<?xml version="1.0" standalone="no"?>
<!DOCTYPE svg PUBLIC "-//W3C//DTD SVG 1.1//EN" "http://www.w3.org/Graphics/SVG/1.1/DTD/svg11.dtd" >
<svg xmlns="http://www.w3.org/2000/svg">
<metadata>
Created by FontPrep 20130207 at Tue May  2 09:40:39 2017
 By Jon Best
Copyright (c) 2015 Monotype Imaging Inc. All rights reserved.
</metadata>
<defs>
<font id="f1fb684f5d946f210754ad12cf95f1ea" horiz-adv-x='1024' >
  <font-face 
    font-family="CaeciliaLTPro-45Light"
    font-weight="300"
    font-stretch="normal"
    units-per-em="2048"
    panose-1="2 6 4 2 3 3 6 2 2 4"
    ascent="1575"
    descent="-473"
    x-height="1053"
    cap-height="1434"
    bbox="-336 -545 2314 2030"
    underline-thickness="102"
    underline-position="-102"
    unicode-range="U+000D-FB02"
  />
<missing-glyph horiz-adv-x="1048" 
d="M455 240v137h114v-137h-114zM525 1247q116 1 188 -73t71 -195q0 -68 -24 -121q-24 -54 -94 -114q-68 -60 -90 -99t-21 -117v-49h-94q-4 20 -4 43q1 102 27 156t90 118t84 98q22 34 22 92t-46 108q-46 51 -110 51q-143 0 -168 -195l-102 17q12 137 84 209t187 71zM102 102
h844v1264h-844v-1264zM0 1470h1049v-1470h-1049v1470z" />
    <glyph glyph-name="IJ" unicode="IJ" horiz-adv-x="1335" 
d="M786 1434h451v-91h-164l-10 -972q-4 -273 -115 -449t-348 -274l-33 90q199 98 290 249t93 363l8 993h-172v91zM117 1434h450v-91h-164l-8 -1253h172v-90h-450v90h164l8 1253h-172v91z" />
    <glyph glyph-name="ij" unicode="ij" horiz-adv-x="1249" 
d="M705 1053h309l-10 -949q-2 -293 -122 -440t-366 -203l-16 93q135 30 222 96t131 182t46 338l8 793h-202v90zM952 1591q43 -1 71 -31t28 -75t-28 -76t-71 -31q-42 0 -70 31t-28 76t28 75t70 31zM49 1053h309l-6 -963h189v-90h-475v90h180l6 873h-203v90zM297 1591
q43 -1 71 -31t28 -75t-28 -76t-71 -31t-71 31t-27 76q0 45 27 76q28 30 71 30z" />
    <glyph glyph-name="fi" unicode="fi" horiz-adv-x="1251" 
d="M702 1591q129 0 256 -30v-97q-84 37 -242 37t-241 -78q-82 -78 -84 -202l-2 -168h627l-8 -963h186v-90h-479v90h186l8 873h-520l-4 -873h186v-90h-471v90h179l4 873h-226v90h226l2 166q2 176 111 274t306 98z" />
    <glyph glyph-name="fl" unicode="fl" horiz-adv-x="1290" 
d="M680 1591q176 0 281 -28l92 12l-9 -1485h177v-90h-459v90h176l8 1378q-90 33 -240 33t-232 -78q-81 -78 -83 -200l-2 -170h318v-90h-318l-4 -873h186v-90h-471v90h179l4 873h-226v90h226l2 166q2 176 111 274q108 98 284 98z" />
    <glyph glyph-name=".notdef" horiz-adv-x="1048" 
d="M455 240v137h114v-137h-114zM525 1247q116 1 188 -73t71 -195q0 -68 -24 -121q-24 -54 -94 -114q-68 -60 -90 -99t-21 -117v-49h-94q-4 20 -4 43q1 102 27 156t90 118t84 98q22 34 22 92t-46 108q-46 51 -110 51q-143 0 -168 -195l-102 17q12 137 84 209t187 71zM102 102
h844v1264h-844v-1264zM0 1470h1049v-1470h-1049v1470z" />
    <glyph glyph-name=".null" horiz-adv-x="0" 
 />
    <glyph glyph-name="nonmarkingreturn" horiz-adv-x="681" 
 />
    <glyph glyph-name="NULL" horiz-adv-x="0" 
 />
    <glyph glyph-name="NULL" horiz-adv-x="0" 
 />
    <glyph glyph-name="CR" unicode="&#xd;" horiz-adv-x="569" 
 />
    <glyph glyph-name="space" unicode=" " horiz-adv-x="569" 
 />
    <glyph glyph-name="exclam" unicode="!" horiz-adv-x="647" 
d="M324 172q38 0 66 -29t28 -69t-28 -70q-28 -29 -66 -29t-67 29q-28 29 -28 70q0 42 28 70t67 28zM279 492l-17 1083h123l-16 -1083h-90z" />
    <glyph glyph-name="quotedbl" unicode="&#x22;" horiz-adv-x="681" 
d="M184 1092q-51 0 -51 61l-18 246l-9 114q0 35 20 57t58 22q37 0 58 -22q20 -22 20 -57l-26 -360q-1 -61 -52 -61zM498 1092q-51 0 -52 61l-26 360q0 35 20 57t58 22t57 -22q20 -22 20 -57l-26 -360q0 -61 -51 -61z" />
    <glyph glyph-name="numbersign" unicode="#" 
d="M446 877l-45 -320h291l45 320h-291zM1079 975v-98h-243l-45 -320h229v-98h-244l-63 -459h-99l64 459h-291l-63 -459h-99l64 459h-230v98h244l45 320h-229v98h243l64 459h98l-63 -459h291l63 459h98l-63 -459h229z" />
    <glyph glyph-name="dollar" unicode="$" 
d="M938 373q0 125 -76 186t-215 92l-37 8l-4 -581q152 6 242 88t90 207zM201 1084q1 -112 65 -183q64 -70 254 -110l4 565q-139 -4 -231 -82t-92 -190zM1053 387q0 -174 -120 -286t-327 -121l-4 -275h-90l4 275q-90 -2 -231 16t-197 37l4 286h98l-4 -200q141 -41 330 -41
l4 598q-238 45 -336 142t-98 241q0 96 40 175q70 138 247 196q75 24 151 24l4 260h90l-4 -260q164 0 361 -57l-4 -262h-99l5 180q-102 41 -263 41l-4 -582l74 -18q209 -52 289 -148t80 -221z" />
    <glyph glyph-name="percent" unicode="%" horiz-adv-x="1744" 
d="M1112 305q0 -111 57 -177t155 -67q98 0 153 68t55 179t-55 176t-151 65q-96 -1 -156 -67q-58 -66 -58 -177zM1327 631q135 0 219 -88t84 -236q0 -147 -85 -237t-222 -90t-223 90t-86 233t89 235t224 93zM213 1128q0 -112 57 -178q56 -66 154 -66t154 68q55 68 55 181
t-56 176q-55 63 -151 63t-155 -66q-58 -67 -58 -178zM115 1126q0 144 89 236t225 92t219 -88t83 -234t-86 -238t-223 -91q-137 0 -222 90t-85 233zM348 -61l940 1605l74 -49l-940 -1606z" />
    <glyph glyph-name="ampersand" unicode="&#x26;" horiz-adv-x="1669" 
d="M307 366q-1 -118 105 -205t268 -87q238 0 389 180l-500 481q-139 -90 -201 -170q-62 -81 -61 -199zM410 1170q0 -74 38 -138t150 -172l117 84q139 102 139 219q0 93 -55 149t-155 56t-167 -61q-67 -63 -67 -137zM648 1458q146 0 230 -77t83 -193q0 -174 -148 -279
l-156 -110l471 -457q109 172 109 410h-174v90h457v-90h-177q-10 -281 -147 -478q137 -132 179 -158t120 -26h35v-90h-55q-94 0 -159 37t-181 156q-174 -209 -461 -209q-223 0 -352 112t-129 283q0 104 66 203q67 98 245 219q-201 188 -201 354q0 131 99 217q100 86 246 86z
" />
    <glyph glyph-name="quotesingle" unicode="'" horiz-adv-x="454" 
d="M227 1092q-51 0 -51 61l-26 360q0 35 20 57t57 22t58 -22q20 -22 20 -57l-26 -360q-1 -61 -52 -61z" />
    <glyph glyph-name="parenleft" unicode="(" horiz-adv-x="645" 
d="M297 528q0 -604 338 -1017l-76 -56q-369 475 -369 1073q0 314 80 574t260 504l82 -52q-172 -216 -244 -464t-71 -562z" />
    <glyph glyph-name="parenright" unicode=")" horiz-adv-x="645" 
d="M455 526q0 -315 -80 -573t-260 -498l-82 51q168 211 241 455q74 244 74 565q0 600 -338 1024l76 56q369 -479 369 -1080z" />
    <glyph glyph-name="asterisk" unicode="*" horiz-adv-x="684" 
d="M307 1305l-16 270h98l-16 -270l231 131l37 -72l-240 -115l240 -112l-37 -72l-231 131l16 -268h-98l16 268l-229 -131l-35 72l238 112l-238 115l35 72z" />
    <glyph glyph-name="plus" unicode="+" horiz-adv-x="1228" 
d="M565 567v469h99v-469h469v-98h-469v-469h-99v469h-469v98h469z" />
    <glyph glyph-name="comma" unicode="," horiz-adv-x="569" 
d="M186 94q0 34 27 56t71 22t76 -45t31 -125q0 -80 -46 -174t-118 -156l-49 49q98 102 98 193q0 49 -45 98t-45 82z" />
    <glyph glyph-name="hyphen" unicode="-" horiz-adv-x="796" 
d="M150 586h497v-107h-497v107z" />
    <glyph glyph-name="period" unicode="." horiz-adv-x="569" 
d="M285 172q39 0 67 -29t27 -69q0 -40 -28 -70q-29 -29 -67 -29t-66 29t-28 70q0 42 28 70t67 28z" />
    <glyph glyph-name="slash" unicode="/" horiz-adv-x="796" 
d="M-8 -125l719 1716l94 -32l-719 -1717z" />
    <glyph glyph-name="zero" unicode="0" 
d="M555 -20q-215 0 -339 200t-124 520t139 537t369 217q203 0 325 -197t122 -512q0 -436 -218 -652q-114 -113 -274 -113zM563 78q164 0 266 184q103 184 103 470t-93 454q-93 170 -258 170t-269 -181t-105 -466q0 -285 96 -458t260 -173z" />
    <glyph glyph-name="one" unicode="1" 
d="M999 90v-90h-704v90h293l8 1227q-37 -33 -55 -43l-326 -209l-55 82l452 287h90l-8 -1344h305z" />
    <glyph glyph-name="two" unicode="2" 
d="M563 1454q185 0 291 -105t107 -280q0 -305 -406 -694l-287 -275v-6q82 4 140 4h591v-98h-870v84l354 352q205 205 284 349q79 145 79 279t-78 213t-214 79t-218 -83t-94 -218h-107q16 171 130 285t298 114z" />
    <glyph glyph-name="three" unicode="3" 
d="M542 1454q183 0 285 -91t103 -255q0 -125 -80 -220t-213 -134v-4q166 -18 258 -112t92 -245q0 -186 -138 -300t-372 -113q-188 0 -336 71l6 111q177 -84 347 -84t274 85t104 235t-110 214q-110 66 -367 66h-30v98h12q195 0 317 92t121 248q0 115 -72 177q-71 63 -205 63
t-213 -70t-85 -192h-107q4 150 115 255t294 105z" />
    <glyph glyph-name="four" unicode="4" 
d="M311 539h383l4 563l7 192h-5q-43 -80 -94 -151l-434 -608q86 4 139 4zM1087 539v-90h-286l-4 -359h182v-90h-457v90h168l4 359h-637v79l641 906h107l-4 -895h286z" />
    <glyph glyph-name="five" unicode="5" 
d="M909 1434v-99h-604l-4 -473q666 0 666 -438q1 -199 -141 -322t-380 -122q-174 0 -290 53v104q123 -59 301 -59q179 0 287 88t108 244q0 186 -152 270t-497 84h-8l4 670h710z" />
    <glyph glyph-name="six" unicode="6" 
d="M596 78q131 0 218 96t87 252t-82 245t-225 89q-106 0 -206 -58t-150 -145q2 -223 99 -351t259 -128zM817 1454q39 0 104 -9t78 -15l-14 -99q-104 25 -178 25q-277 0 -423 -184t-146 -500q156 186 374 186q182 0 293 -121t111 -313t-116 -318q-116 -127 -306 -126
q-227 0 -349 162t-122 464q0 408 179 628t515 220z" />
    <glyph glyph-name="seven" unicode="7" 
d="M141 1434h852v-74l-260 -563q-211 -457 -430 -797h-131q200 283 440 800q240 518 258 535h-729v99z" />
    <glyph glyph-name="eight" unicode="8" 
d="M574 78q154 0 242 74q89 74 89 208t-164 234q-72 45 -123 72q-50 28 -53 30q-215 -111 -274 -186q-58 -75 -58 -182q-1 -106 93 -178t248 -72zM786 1292q-78 62 -208 64q-130 0 -216 -66t-86 -178t73 -173t194 -122q18 -10 28 -14q9 6 65 39t72 44t57 44q99 82 99 191
t-78 171zM170 1090q0 172 112 268t298 96t288 -86t102 -226t-79 -226q-80 -86 -225 -162q86 -46 120 -66t92 -62t80 -75q60 -88 62 -199q0 -168 -128 -270t-331 -102t-323 97t-119 257q0 106 66 198q67 92 188 158l94 51l-113 68q-184 109 -184 281z" />
    <glyph glyph-name="nine" unicode="9" 
d="M238 1009q0 -155 82 -245t210 -90q130 0 232 64t139 136v9q0 213 -95 343t-263 130q-131 0 -218 -96t-87 -251zM545 1454q227 0 349 -163t122 -464q0 -407 -179 -627t-515 -220q-41 0 -106 9t-77 15l15 98q74 -25 178 -24q276 0 423 183q146 183 146 501
q-160 -186 -375 -187q-182 0 -293 122t-111 312q0 189 118 317q117 128 305 128z" />
    <glyph glyph-name="colon" unicode=":" horiz-adv-x="569" 
d="M285 172q39 0 67 -29t27 -69q0 -40 -28 -70q-29 -29 -67 -29t-66 29t-28 70q0 42 28 70t67 28zM285 1016q39 0 67 -29t27 -69q0 -40 -28 -70q-29 -29 -67 -29t-66 29t-28 70q0 42 28 70t67 28z" />
    <glyph glyph-name="semicolon" unicode=";" horiz-adv-x="569" 
d="M186 94q0 34 27 56t71 22t76 -45t31 -125q0 -80 -46 -174t-118 -156l-49 49q98 102 98 193q0 49 -45 98t-45 82zM285 1016q39 0 67 -29t27 -69q0 -40 -28 -70q-29 -29 -67 -29t-66 29t-28 70q0 42 28 70t67 28z" />
    <glyph glyph-name="less" unicode="&#x3c;" horiz-adv-x="1228" 
d="M96 575l1037 478v-103l-938 -432l938 -432v-102l-1037 477v114z" />
    <glyph glyph-name="equal" unicode="=" horiz-adv-x="1228" 
d="M96 367h1037v-99h-1037v99zM96 768h1037v-98h-1037v98z" />
    <glyph glyph-name="greater" unicode="&#x3e;" horiz-adv-x="1228" 
d="M96 950v103l1037 -478v-114l-1037 -477v102l938 432z" />
    <glyph glyph-name="question" unicode="?" horiz-adv-x="1024" 
d="M307 74q-1 42 25 70t68 28t69 -28t27 -70t-27 -70q-27 -29 -69 -29t-68 28t-25 71zM461 1591q171 0 281 -96t110 -242q0 -178 -143 -297q-65 -54 -139 -112q-75 -57 -110 -89q-54 -49 -54 -105t63 -120l-78 -69q-100 72 -100 184q0 80 46 129t261 217q139 109 139 246
q1 109 -75 183t-194 73q-118 0 -216 -39l-14 100q102 37 223 37z" />
    <glyph glyph-name="at" unicode="@" horiz-adv-x="1638" 
d="M504 578q0 -207 186 -207q94 0 183 89t133 202q43 113 43 204q0 190 -162 190q-163 0 -273 -160q-110 -162 -110 -318zM848 1458q314 0 513 -177q200 -177 200 -439q1 -129 -59 -257t-179 -220t-238 -93q-61 0 -98 34t-37 93v11h-4q-143 -138 -273 -138t-203 80t-73 215
q-1 225 143 407t349 181q160 0 223 -168h4l49 133h115l-201 -575q-31 -90 -30 -131q0 -51 55 -52q127 0 243 160t115 314q0 104 -37 194t-97 150q-186 188 -471 188t-483 -190t-198 -462t200 -460q200 -190 484 -190q168 0 322 74t229 202h123q-104 -168 -286 -267
t-388 -100q-326 0 -554 216q-228 217 -228 525t228 525t542 217z" />
    <glyph glyph-name="A" unicode="A" horiz-adv-x="1478" 
d="M754 1303h-4q-6 -37 -29 -91l-213 -524h463l-185 514q-28 74 -32 101zM1462 90v-90h-450v90h178l-186 508h-533l-203 -508h191v-90h-443v90h138l553 1344h114l492 -1344h149z" />
    <glyph glyph-name="B" unicode="B" horiz-adv-x="1251" 
d="M598 90q399 0 399 305q0 141 -105 220t-276 79h-231l-4 -604h217zM561 784q147 0 243 80q95 80 95 215q0 264 -305 264h-205l-4 -559h176zM102 1434h492q127 0 217 -37t130 -97q71 -105 72 -222q1 -118 -72 -208t-193 -110v-4q164 -8 264 -104t100 -273q0 -175 -132 -277
t-368 -102h-510v90h164l8 1253h-172v91z" />
    <glyph glyph-name="C" unicode="C" horiz-adv-x="1402" 
d="M874 1458q219 0 400 -65l-4 -287h-107l4 215q-145 39 -299 39q-291 0 -465 -176t-174 -473t168 -467t457 -170q156 0 291 32l2 222h106l-2 -297q-264 -55 -409 -56q-340 0 -534 197t-194 541q0 345 208 545t552 200z" />
    <glyph glyph-name="D" unicode="D" horiz-adv-x="1554" 
d="M698 90q297 0 468 169t171 467t-166 458t-469 159h-313l-8 -1253h317zM102 1434h635q335 0 525 -180t190 -529t-197 -537t-542 -188h-611v90h164l8 1253h-172v91z" />
    <glyph glyph-name="E" unicode="E" horiz-adv-x="1175" 
d="M102 1434h924v-287h-90v196h-547l-4 -573h498v-90h-498l-4 -590h567l17 213h98l-16 -303h-945v90h164l8 1253h-172v91z" />
    <glyph glyph-name="F" unicode="F" 
d="M102 1434h924l-4 -293h-94l-4 202h-535l-4 -585h547v-90h-547l-4 -578h194v-90h-473v90h164l8 1253h-172v91z" />
    <glyph glyph-name="G" unicode="G" horiz-adv-x="1478" 
d="M874 1458q207 0 418 -67v-277h-106v199q-119 47 -301 47q-303 0 -479 -176t-176 -473t167 -467q168 -170 457 -170q156 0 291 32l8 402h-182v90h456v-90h-167l-9 -477q-264 -55 -409 -56q-340 0 -534 197t-194 541q0 345 208 545t552 200z" />
    <glyph glyph-name="H" unicode="H" horiz-adv-x="1593" 
d="M102 1434h459v-91h-172l-4 -585h823l4 585h-180v91h459v-91h-164l-8 -1253h172v-90h-459v90h172l4 578h-823l-4 -578h180v-90h-459v90h164l8 1253h-172v91z" />
    <glyph glyph-name="I" unicode="I" horiz-adv-x="684" 
d="M117 1434h450v-91h-164l-8 -1253h172v-90h-450v90h164l8 1253h-172v91z" />
    <glyph glyph-name="J" unicode="J" horiz-adv-x="645" 
d="M96 1434h451v-91h-164l-10 -972q-4 -273 -115 -449t-348 -274l-33 90q199 98 290 249t93 363l8 993h-172v91z" />
    <glyph glyph-name="K" unicode="K" horiz-adv-x="1402" 
d="M102 1434h451v-91h-164l-4 -581l678 581h-178v91h450v-91h-133l-694 -602l694 -651h141v-90h-466v90h178l-670 617l-4 -617h172v-90h-451v90h164l8 1253h-172v91z" />
    <glyph glyph-name="L" unicode="L" 
d="M102 1434h451v-91h-164l-8 -1253h567l17 213h98l-16 -303h-945v90h164l8 1253h-172v91z" />
    <glyph glyph-name="M" unicode="M" horiz-adv-x="1857" 
d="M86 1434h336l469 -1172q35 -88 37 -102h4q2 23 14 49l496 1225h330v-91h-183l8 -1253h175v-90h-463v90h182l-8 1167h-4q-4 -18 -13 -38l-493 -1219h-92l-482 1182q-14 39 -20 67h-4l-8 -1159h182v-90h-463v90h174l8 1253h-182v91z" />
    <glyph glyph-name="N" unicode="N" horiz-adv-x="1630" 
d="M63 1434h312l866 -1186q23 -33 49 -86h4l6 1181h-200v91h467v-91h-158l-10 -1343h-115l-872 1196q-23 31 -43 76h-4l-9 -1182h189v-90h-461v90h166l8 1253h-195v91z" />
    <glyph glyph-name="O" unicode="O" horiz-adv-x="1552" 
d="M229 717q1 -305 145 -474t401 -169t403 170q145 170 145 474t-145 473q-146 169 -402 169t-402 -169t-145 -474zM115 710q0 348 174 548t490 200t488 -192q171 -193 171 -543t-174 -549t-490 -199t-488 193q-171 193 -171 542z" />
    <glyph glyph-name="P" unicode="P" 
d="M602 698q152 0 242 86t90 240t-97 237t-264 82h-184l-4 -645h217zM102 1434h449q498 0 498 -402q0 -196 -127 -314t-324 -118h-213l-4 -510h192v-90h-471v90h164l8 1253h-172v91z" />
    <glyph glyph-name="Q" unicode="Q" horiz-adv-x="1552" 
d="M229 717q1 -305 145 -474t401 -169t403 169q145 169 145 474t-145 474q-146 169 -402 169t-402 -169t-145 -474zM918 -14q492 -260 672 -260q94 0 134 6v-99q-117 -6 -131 -6q-193 0 -571 195l-301 155q-293 17 -450 207t-157 532t174 542q173 200 490 200t489 -192
q171 -193 171 -549q0 -305 -138 -495t-382 -232v-4z" />
    <glyph glyph-name="R" unicode="R" horiz-adv-x="1327" 
d="M590 750q147 0 247 81q99 82 99 228q0 145 -86 215t-266 69h-195l-4 -593h205zM102 1434h488q461 0 461 -367q-1 -162 -99 -264t-235 -117v-4q84 -14 170 -158l160 -266q67 -112 97 -140t78 -28t81 8v-98q-106 -8 -109 -8q-68 0 -104 20t-78 90l-226 377
q-68 115 -115 144q-48 29 -124 28h-162l-4 -561h186v-90h-465v90h164l8 1253h-172v91z" />
    <glyph glyph-name="S" unicode="S" horiz-adv-x="1175" 
d="M160 1048q0 188 129 298q129 112 331 112t386 -65l4 -263h-99l-4 189q-123 41 -281 41t-254 -80q-98 -80 -98 -194t70 -181t264 -119t273 -96q184 -100 184 -319q0 -180 -132 -288t-352 -108t-427 68l-4 281h106l4 -197q137 -53 313 -53t277 80q100 80 100 205t-72 193
t-235 112q-236 63 -313 104q-170 92 -170 280z" />
    <glyph glyph-name="T" unicode="T" horiz-adv-x="1368" 
d="M926 90v-90h-484v90h181l8 1253h-459l-8 -231h-98l8 322h1220l9 -322h-99l-8 231h-451l-8 -1253h189z" />
    <glyph glyph-name="U" unicode="U" horiz-adv-x="1556" 
d="M786 74q158 0 242 42t125 154t43 328l8 745h-180v91h457v-91h-162l-8 -794q-4 -395 -213 -508q-121 -66 -322 -66q-200 1 -316 61t-163 172t-47 338t8 797h-182v91h465v-91h-168l-8 -778q1 -285 83 -388t338 -103z" />
    <glyph glyph-name="V" unicode="V" horiz-adv-x="1441" 
d="M4 1434h449v-91h-179l428 -1128q20 -45 23 -76h4q12 49 21 72l434 1132h-180v91h434v-91h-140l-518 -1343h-114l-514 1343h-148v91z" />
    <glyph glyph-name="W" unicode="W" horiz-adv-x="2162" 
d="M16 1434h445v-91h-168l373 -1150q14 -53 20 -78h4q4 25 23 69l350 873l-88 286h-162v91h442v-91h-165l356 -1142q12 -35 20 -86h4q6 25 19 61l409 1167h-190v91h438v-91h-141l-481 -1343h-129l-285 915h-4l-361 -915h-131l-444 1343h-154v91z" />
    <glyph glyph-name="X" unicode="X" horiz-adv-x="1402" 
d="M82 1434h461v-91h-185q20 -25 33 -43l318 -479l319 459q29 41 51 63h-186v91h444v-91h-141l-428 -604l434 -649h146v-90h-455v90h176q-35 45 -371 557l-344 -502q-16 -29 -43 -55h193v-90h-449v90h131l459 649l-412 604h-151v91z" />
    <glyph glyph-name="Y" unicode="Y" horiz-adv-x="1441" 
d="M12 1434h441v-91h-154q20 -23 51 -63l387 -539l396 547q14 27 45 55h-189v91h441v-91h-136l-497 -704l-9 -549h179v-90h-459v90h168l6 549l-516 704h-154v91z" />
    <glyph glyph-name="Z" unicode="Z" horiz-adv-x="1327" 
d="M1202 1434v-91l-901 -1204q-18 -25 -43 -49h836l8 227h98l-8 -317h-1067v90l903 1196q14 20 49 57h-821l-8 -221h-98l8 312h1044z" />
    <glyph glyph-name="bracketleft" unicode="[" horiz-adv-x="645" 
d="M569 1575v-90h-221l-8 -1909h211v-90h-318l9 2089h327z" />
    <glyph glyph-name="backslash" unicode="\" horiz-adv-x="796" 
d="M-8 1559l94 32l719 -1716l-94 -33z" />
    <glyph glyph-name="bracketright" unicode="]" horiz-adv-x="645" 
d="M94 1575h318l-9 -2089h-327v90h221l8 1909h-211v90z" />
    <glyph glyph-name="asciicircum" unicode="^" horiz-adv-x="1228" 
d="M190 686l377 748h95l376 -748h-112l-312 612l-311 -612h-113z" />
    <glyph glyph-name="underscore" unicode="_" horiz-adv-x="1024" 
d="M0 -154h1024v-102h-1024v102z" />
    <glyph glyph-name="grave" unicode="`" horiz-adv-x="569" 
d="M25 1546l69 64l357 -314l-72 -55z" />
    <glyph glyph-name="a" unicode="a" horiz-adv-x="1175" 
d="M250 270q0 -90 64 -143t182 -53q116 0 210 98q93 98 93 287v43q-287 -10 -359 -27q-190 -38 -190 -205zM545 1077q360 0 360 -350q0 -176 -2 -278l-6 -359h172v-90h-274q0 109 22 240h-4q-96 -264 -344 -265q-154 0 -244 78t-90 213t98 215t279 92l287 19q4 86 4 94
q0 162 -66 228t-193 65q-127 0 -261 -41l-4 -176h-99l4 242q148 73 361 73z" />
    <glyph glyph-name="b" unicode="b" horiz-adv-x="1214" 
d="M557 66q205 0 317 129t111 345q0 216 -88 328q-89 112 -239 111t-252 -109t-103 -292l-2 -459q117 -53 256 -53zM0 1575h311l-4 -590q0 -98 -22 -184h4q47 135 145 206t234 70q196 0 314 -138t118 -351q0 -289 -142 -451t-403 -162q-209 0 -358 82l8 1428h-205v90z" />
    <glyph glyph-name="c" unicode="c" horiz-adv-x="1062" 
d="M635 1077q166 0 317 -55v-256h-98v180q-102 33 -225 33q-191 0 -295 -119t-104 -334q0 -216 104 -334t292 -118t320 61v-104q-129 -55 -321 -56q-238 0 -374 152q-136 153 -136 399t139 398t381 153z" />
    <glyph glyph-name="d" unicode="d" horiz-adv-x="1251" 
d="M645 979q-197 0 -307 -125t-109 -341q0 -216 86 -328q86 -111 244 -111t248 119t92 358l2 377q-113 51 -256 51zM672 1575h338l-9 -1485h181v-90h-291q0 59 16 217h-4q-49 -127 -140 -184t-231 -58q-186 -1 -302 137t-116 392t145 414q144 160 382 159q127 0 260 -51
l4 459h-233v90z" />
    <glyph glyph-name="e" unicode="e" horiz-adv-x="1099" 
d="M556 979q-150 0 -244 -98t-99 -254h674q-2 166 -91 259q-90 93 -240 93zM98 526q0 250 126 400t338 151q212 0 325 -140t114 -400h-788q1 -225 107 -344t311 -119q160 0 323 88l-4 -107q-55 -33 -150 -57t-186 -23q-248 0 -382 150q-134 151 -134 401z" />
    <glyph glyph-name="f" unicode="f" horiz-adv-x="757" 
d="M680 1591q123 0 194 -24l-10 -97q-88 31 -178 31q-143 0 -218 -78t-77 -204l-2 -166h299v-90h-299l-4 -873h190v-90h-450v90h154l4 873h-189v90h189l2 166q2 176 108 274q107 98 287 98z" />
    <glyph glyph-name="g" unicode="g" horiz-adv-x="1099" 
d="M193 -246q-1 -82 107 -142t280 -60t279 60q108 62 108 169q0 82 -65 119q-65 38 -243 62t-188 26q-131 -25 -205 -88q-73 -64 -73 -146zM227 688q0 -129 85 -212q84 -83 226 -83t223 80t81 212t-87 213t-223 81t-221 -81q-84 -81 -84 -210zM528 1077q94 0 179 -33h387
v-90h-41q-86 0 -135 4l-91 7l-4 -4q125 -91 125 -265t-110 -284t-275 -109q-121 0 -189 -33t-67 -84q0 -70 170 -98l342 -61q143 -25 199 -80t55 -158q0 -147 -134 -237q-135 -90 -363 -91q-228 0 -359 76t-131 209q0 96 82 172t199 92v4q-166 41 -166 158q0 63 49 104
t139 54v4q-268 74 -268 348q0 170 113 283q114 112 294 112z" />
    <glyph glyph-name="h" unicode="h" horiz-adv-x="1327" 
d="M698 979q-145 0 -241 -114t-99 -290l-4 -485h166v-90h-430v90h158l8 1395h-233v90h339l-4 -569q-2 -119 -22 -205h4q86 277 402 277q163 0 250 -102q87 -101 87 -325l-8 -561h166v-90h-430v90h158l8 555q0 178 -65 256t-210 78z" />
    <glyph glyph-name="i" unicode="i" horiz-adv-x="606" 
d="M49 1053h309l-6 -963h189v-90h-475v90h180l6 873h-203v90zM297 1591q43 -1 71 -31t28 -75t-28 -76t-71 -31t-71 31t-27 76q0 45 27 76q28 30 71 30z" />
    <glyph glyph-name="j" unicode="j" horiz-adv-x="645" 
d="M100 1053h310l-11 -949q-1 -293 -121 -440t-366 -203l-16 93q135 30 222 96t131 182t46 338l8 793h-203v90zM348 1591q43 -1 71 -31q27 -30 27 -75t-28 -76t-70 -31t-70 31t-28 76t28 75t70 31z" />
    <glyph glyph-name="k" unicode="k" horiz-adv-x="1175" 
d="M23 1575h339l-4 -993l451 376v5h-152v90h410v-90h-125l-465 -396l522 -477h113v-90h-405v90h147l-496 449l-4 -449h166v-90h-430v90h158l8 1395h-233v90z" />
    <glyph glyph-name="l" unicode="l" horiz-adv-x="647" 
d="M41 1575h340l-8 -1485h182v-90h-463v90h174l8 1395h-233v90z" />
    <glyph glyph-name="m" unicode="m" horiz-adv-x="2007" 
d="M705 1077q266 0 329 -250q115 250 371 250q360 0 354 -426l-8 -561h166v-90h-430v90h158l8 555q6 334 -275 334q-133 0 -224 -117t-93 -264l-8 -508h166v-90h-431v90h158l4 551q2 338 -266 338q-133 0 -229 -112t-99 -283l-4 -494h166v-90h-428v90h156l4 873h-182v90h290
q0 -113 -24 -252h4q38 127 138 201t229 75z" />
    <glyph glyph-name="n" unicode="n" horiz-adv-x="1327" 
d="M725 1077q360 0 354 -413l-8 -574h166v-90h-430v90h158l8 555q2 174 -64 254t-211 80t-241 -114t-99 -290l-4 -485h166v-90h-430v90h158l4 873h-184v90h292q0 -113 -24 -252h4q41 133 140 205q100 71 245 71z" />
    <glyph glyph-name="o" unicode="o" horiz-adv-x="1175" 
d="M587 979q-175 0 -275 -122t-99 -332q0 -211 99 -331q100 -120 276 -120t275 121t99 331t-100 332q-100 121 -275 121zM587 1077q222 1 356 -151t134 -401t-132 -399t-356 -151q-224 0 -358 153q-133 152 -133 398t133 399q134 152 356 152z" />
    <glyph glyph-name="p" unicode="p" horiz-adv-x="1251" 
d="M624 66q192 0 303 129t111 347t-87 328t-239 109t-254 -109q-100 -108 -102 -321l-2 -436q78 -47 270 -47zM721 1077q199 0 315 -134t117 -355q0 -289 -141 -451t-406 -162q-150 0 -252 37l-4 -436h191v-90h-467v90h170l10 1387h-199v90h307q0 -115 -14 -222l6 5
q66 129 153 185t214 56z" />
    <glyph glyph-name="q" unicode="q" horiz-adv-x="1251" 
d="M645 979q-197 0 -307 -125t-109 -341q0 -216 86 -328q86 -111 245 -111t248 121t91 360l2 373q-113 51 -256 51zM651 1077q117 0 273 -49l80 16l-9 -1468h197v-90h-473v90h170l4 438q0 129 10 197h-4q-92 -236 -367 -236q-186 -1 -302 137t-116 390t146 414
q145 162 391 161z" />
    <glyph glyph-name="r" unicode="r" horiz-adv-x="872" 
d="M727 1077q55 0 147 -22l-16 -103q-59 27 -129 27q-141 0 -245 -158t-105 -352l-4 -379h196v-90h-471v90h170l6 873h-198v90h309q0 -131 -16 -338h4q49 174 140 268t212 94z" />
    <glyph glyph-name="s" unicode="s" horiz-adv-x="985" 
d="M106 794q0 116 102 200q102 83 272 83q169 0 313 -65l4 -240h-99l-4 170q-80 45 -209 45t-197 -51t-67 -143q0 -154 178 -193l187 -41q147 -33 211 -97q63 -65 63 -171q0 -154 -103 -235t-305 -81t-333 70l-8 254h100l4 -178q87 -55 235 -55t222 59t74 143t-43 126
q-42 42 -148 69l-162 39q-155 36 -221 106t-66 186z" />
    <glyph glyph-name="t" unicode="t" horiz-adv-x="796" 
d="M719 1053v-90h-350l-4 -621q-2 -166 41 -221q44 -55 148 -55t222 59l-10 -96q-111 -53 -242 -54q-266 0 -266 306q0 375 4 682h-184v90h184l4 274l107 8l-4 -282h350z" />
    <glyph glyph-name="u" unicode="u" horiz-adv-x="1327" 
d="M78 1053h287l-9 -645q-2 -178 64 -256t218 -78t240 112q87 112 91 318l8 459h-189v90h295l-8 -963h164v-90h-268q0 113 24 252h-4q-37 -125 -137 -201t-229 -76q-193 -1 -285 103t-90 323l8 562h-180v90z" />
    <glyph glyph-name="v" unicode="v" 
d="M25 1053h391v-90h-133l260 -738q23 -59 28 -135h4q18 96 29 123l273 750h-154v90h391v-90h-123l-370 -963h-99l-362 963h-135v90z" />
    <glyph glyph-name="w" unicode="w" horiz-adv-x="1705" 
d="M39 1053h397v-90h-151l284 -848h4l23 82l213 587l-61 179h-121v90h397v-90h-162l244 -750l24 -98h5l28 104l262 744h-155v90h397v-90h-135l-348 -963h-115l-197 590l-16 82h-4q-16 -55 -125 -363q-108 -307 -111 -309h-106l-340 963h-131v90z" />
    <glyph glyph-name="x" unicode="x" horiz-adv-x="1175" 
d="M70 1053h407v-90h-147q44 -44 57 -70l209 -283l192 256q59 78 78 97h-161v90h397v-90h-127l-322 -420l340 -453h131v-90h-397v90h141q-14 14 -39 45l-241 328l-240 -316q-23 -31 -49 -57h150v-90h-398v90h131l348 447l-317 426h-143v90z" />
    <glyph glyph-name="y" unicode="y" 
d="M10 1053h412v-90h-150l287 -785q12 -35 21 -69h4q2 31 16 67l274 787h-157v90h391v-90h-127l-365 -1022q-98 -274 -207 -377q-110 -102 -276 -103q-45 0 -123 17v100q80 -18 123 -18q125 0 198 60t124 185l69 168l-377 990h-137v90z" />
    <glyph glyph-name="z" unicode="z" horiz-adv-x="1062" 
d="M958 1053v-90l-665 -816q-27 -35 -53 -57h608l12 195h101l-17 -285h-829v90l667 817q33 39 52 56h-584l-8 -185h-101l13 275h804z" />
    <glyph glyph-name="braceleft" unicode="{" horiz-adv-x="645" 
d="M461 1575h102v-90h-102q-98 0 -99 -150v-504q0 -264 -139 -299v-4q139 -33 139 -299v-503q0 -150 97 -150h104v-90h-100q-207 0 -207 268v432q0 293 -131 299v90q71 2 101 77t30 222v431q0 270 205 270z" />
    <glyph glyph-name="bar" unicode="|" horiz-adv-x="454" 
d="M178 -512v2048h98v-2048h-98z" />
    <glyph glyph-name="braceright" unicode="}" horiz-adv-x="645" 
d="M82 1485v90h102q205 0 205 -270v-431q0 -147 30 -222t101 -77v-90q-131 -2 -131 -299v-432q0 -268 -205 -268h-102v90h104q96 0 97 150v493q0 283 139 309v4q-139 29 -139 302v501q0 150 -97 150h-104z" />
    <glyph glyph-name="asciitilde" unicode="~" horiz-adv-x="1228" 
d="M397 641q95 0 241 -70t196 -69q84 0 180 139l73 -61q-68 -102 -128 -140t-135 -37q-75 0 -219 70t-212 70q-104 0 -178 -140l-74 62q96 176 256 176z" />
    <glyph glyph-name="uni00A0" unicode="&#xa0;" horiz-adv-x="569" 
 />
    <glyph glyph-name="exclamdown" unicode="&#xa1;" horiz-adv-x="647" 
d="M262 -498l17 1084h90l16 -1084h-123zM324 1102q38 0 66 -29t28 -69t-28 -70q-28 -29 -66 -29t-67 29q-28 29 -28 70q0 42 28 70t67 28z" />
    <glyph glyph-name="cent" unicode="&#xa2;" 
d="M266 527q0 -195 85 -311t243 -136l4 893q-156 -18 -244 -135t-88 -311zM987 766h-98v180q-88 31 -201 31l-4 -901q174 0 299 57v-102q-119 -53 -299 -54l-2 -251h-90l2 256q-209 20 -326 168q-116 148 -116 378q0 229 120 377q121 148 326 166l2 227h90l-2 -223
q170 -4 299 -53v-256z" />
    <glyph glyph-name="sterling" unicode="&#xa3;" 
d="M754 1454q115 0 303 -53l-4 -262h-99l4 180q-131 37 -225 37q-170 0 -265 -88t-95 -232t10 -239h324v-90h-320q0 -3 7 -101t7 -184q-1 -86 -23 -192t-56 -140h620l16 199h99l-17 -289h-991v90h158q80 125 80 332q0 66 -4 188l-4 97h-191v90h184l-8 94q-6 57 -6 119
q0 212 128 328t368 116z" />
    <glyph glyph-name="currency" unicode="&#xa4;" 
d="M160 717q0 -168 121 -289t289 -121t289 121q120 121 120 289t-122 289q-122 120 -287 120q-166 0 -288 -120t-122 -289zM569 1225q182 0 316 -113l114 113l78 -78l-110 -111q111 -131 111 -314t-109 -321l108 -114l-78 -78l-108 119q-133 -119 -319 -119t-322 119
l-111 -117l-78 76l111 116q-111 141 -111 324t115 303l-115 117l78 78l115 -113q133 113 315 113z" />
    <glyph glyph-name="yen" unicode="&#xa5;" 
d="M31 1434h348v-91h-121l324 -618l317 618h-139v91h348v-91h-107l-323 -620h252v-78h-295l-2 -209h297v-78h-297l-4 -268h133v-90h-363v90h131l5 268h-302v78h302l2 209h-304v78h259l-340 620h-121v91z" />
    <glyph glyph-name="brokenbar" unicode="&#xa6;" horiz-adv-x="454" 
d="M178 -358v716h98v-716h-98zM178 666v716h98v-716h-98z" />
    <glyph glyph-name="section" unicode="&#xa7;" 
d="M301 584q0 -121 98 -178l285 -156q110 74 138 121t28 110q0 125 -141 203l-234 127q-88 -45 -131 -98t-43 -129zM601 1458q173 0 347 -59v-238h-98v158q-109 41 -243 41t-213 -56t-79 -153q0 -137 136 -211l294 -162q215 -113 215 -292t-194 -283q193 -117 192 -291
q0 -143 -117 -240q-118 -96 -297 -96t-366 68v264h90v-189q140 -45 274 -45t218 65t84 169q0 137 -168 225q-332 176 -411 245t-79 183t44 179t163 120q-109 68 -151 129t-41 154q0 143 113 229q114 86 287 86z" />
    <glyph glyph-name="dieresis" unicode="&#xa8;" horiz-adv-x="569" 
d="M503 1507q37 -1 63 -29t26 -69t-26 -70t-64 -29t-64 30q-27 28 -26 69q0 41 26 70q27 28 65 28zM68 1507q38 -1 64 -29t26 -69t-26 -70t-64 -29t-65 28q-26 28 -26 70t26 70t65 29z" />
    <glyph glyph-name="copyright" unicode="&#xa9;" horiz-adv-x="1638" 
d="M838 1186q154 0 256 -82t125 -227h-107q-20 96 -94 153t-180 57q-154 0 -245 -101t-91 -265t95 -270t247 -107q102 0 176 59t92 160h107q-35 -147 -137 -232t-238 -85q-197 0 -323 133t-126 341t122 337t321 129zM176 712q0 -266 190 -452t457 -186q266 0 453 190
q186 190 186 452t-187 453t-455 191t-456 -190t-188 -458zM840 1458q274 0 497 -213t223 -522t-211 -528q-213 -219 -527 -219t-529 218t-215 528t219 523t543 213z" />
    <glyph glyph-name="ordfeminine" unicode="&#xaa;" horiz-adv-x="704" 
d="M164 977q0 -49 40 -81t116 -32t138 56t62 145v45l-147 -6q-209 -8 -209 -127zM351 1454q131 0 193 -52t60 -167l-4 -363h109v-57h-191q0 65 14 135v8h-6q-59 -160 -225 -159q-104 0 -166 47q-61 47 -61 129q0 166 241 182l205 12q4 66 4 72q0 82 -43 115t-125 33
t-170 -25l-4 -100h-65l4 145q100 45 230 45z" />
    <glyph glyph-name="guillemotleft" unicode="&#xab;" horiz-adv-x="948" 
d="M481 575l275 295l69 -63l-254 -275l244 -272l-70 -65l-264 294v86zM123 575l274 295l70 -63l-254 -275l244 -272l-70 -65l-264 294v86z" />
    <glyph glyph-name="logicalnot" unicode="&#xac;" horiz-adv-x="1228" 
d="M96 768h1037v-541h-99v443h-938v98z" />
    <glyph glyph-name="uni00AD" unicode="&#xad;" horiz-adv-x="796" 
d="M150 586h497v-107h-497v107z" />
    <glyph glyph-name="registered" unicode="&#xae;" horiz-adv-x="1638" 
d="M176 712q0 -266 190 -452t457 -186q266 0 453 190q186 190 186 452t-187 453t-455 191t-456 -190t-188 -458zM840 1458q274 0 497 -213t223 -522t-211 -528q-213 -219 -527 -219t-529 218t-215 528t219 523t543 213zM633 758h248q90 0 142 40t52 122q0 158 -211 157h-231
v-319zM535 1167h356q137 0 210 -63t73 -186q0 -211 -226 -250l266 -400h-110l-266 400h-205v-400h-98v899z" />
    <glyph glyph-name="macron" unicode="&#xaf;" horiz-adv-x="569" 
d="M16 1473h537v-91h-537v91z" />
    <glyph glyph-name="degree" unicode="&#xb0;" horiz-adv-x="819" 
d="M207 1161q0 -84 60 -143q59 -60 143 -60t143 60t59 143t-59 143t-142 60t-144 -59q-60 -60 -60 -144zM409 1454q121 0 207 -86t86 -207t-86 -207t-206 -86t-206 86q-87 86 -87 206t86 207t206 87z" />
    <glyph glyph-name="plusminus" unicode="&#xb1;" horiz-adv-x="1228" 
d="M96 98h1037v-98h-1037v98zM565 659v377h99v-377h469v-98h-469v-377h-99v377h-469v98h469z" />
    <glyph glyph-name="twosuperior" unicode="&#xb2;" horiz-adv-x="681" 
d="M649 655v-73h-567v77l260 236q197 178 199 324q2 73 -48 117q-51 44 -131 44t-129 -45t-57 -121h-98q8 106 85 173t204 67t199 -63t73 -157q0 -94 -56 -187q-56 -92 -208 -230l-187 -170v-4l82 12h379z" />
    <glyph glyph-name="threesuperior" unicode="&#xb3;" horiz-adv-x="681" 
d="M356 1454q123 0 190 -56q66 -56 66 -140t-56 -144q-56 -59 -142 -82v-4q111 -8 173 -64t62 -159t-89 -171q-90 -68 -236 -69q-146 0 -232 43v82q120 -51 224 -51t170 50t65 133q0 83 -65 122t-224 39h-24v74h6q126 0 198 51t72 141q0 61 -44 97t-122 34q-78 0 -124 -38
t-48 -105h-98q4 97 80 157t198 60z" />
    <glyph glyph-name="acute" unicode="&#xb4;" horiz-adv-x="569" 
d="M119 1296l356 314l70 -64l-355 -305z" />
    <glyph glyph-name="mu" unicode="&#xb5;" horiz-adv-x="1327" 
d="M78 963v90h287q-9 -459 -9 -642t65 -260t213 -77t240 105t95 296l8 488h-189v90h295l-8 -963h164v-90h-268q0 113 24 252h-4q-39 -125 -138 -201t-228 -76q-84 0 -158 38t-111 100h-4q4 -41 4 -54l-4 -573h-104l2 940l8 537h-180z" />
    <glyph glyph-name="paragraph" unicode="&#xb6;" horiz-adv-x="1228" 
d="M563 1434h369v-1833h-98v1742h-216v-1742h-98v1054q-143 2 -239 113t-97 260q0 188 104 297t275 109z" />
    <glyph glyph-name="periodcentered" unicode="&#xb7;" horiz-adv-x="569" 
d="M285 713q47 0 81 -34t34 -80t-34 -81q-32 -35 -80 -35t-82 35t-34 81t34 80t81 34z" />
    <glyph glyph-name="cedilla" unicode="&#xb8;" horiz-adv-x="569" 
d="M260 -205v221h82v-147h16q72 0 116 -39q44 -40 44 -108t-50 -113t-154 -45t-197 37l14 73q82 -37 164 -36q117 0 117 81q0 39 -28 57t-97 19h-27z" />
    <glyph glyph-name="onesuperior" unicode="&#xb9;" horiz-adv-x="681" 
d="M637 655v-73h-457v73h182l5 709l-240 -145l-37 63l291 172h76l-4 -799h184z" />
    <glyph glyph-name="ordmasculine" unicode="&#xba;" horiz-adv-x="704" 
d="M354 1389q-106 0 -170 -72t-65 -190q0 -119 62 -191t171 -72t171 73q63 73 63 191t-64 189q-62 72 -168 72zM29 1127q0 147 89 237t235 90q147 0 235 -90t88 -236t-88 -238q-88 -91 -236 -91t-235 90q-88 90 -88 238z" />
    <glyph glyph-name="guillemotright" unicode="&#xbb;" horiz-adv-x="948" 
d="M492 805l69 65l264 -295v-86l-274 -294l-70 63l254 274zM133 805l70 65l264 -295v-86l-274 -294l-70 63l254 274z" />
    <glyph glyph-name="onequarter" unicode="&#xbc;" horiz-adv-x="1708" 
d="M1069 338l64 4h249l4 332q1 51 7 100h-4q-18 -35 -56 -86zM1647 342v-74h-172l-5 -194h107v-74h-297v74h98l4 194h-405v70l409 534h93l-4 -530h172zM608 655v-73h-456v73h182l4 709l-240 -145l-37 63l291 172h76l-4 -799h184zM348 -61l940 1605l74 -49l-940 -1606z" />
    <glyph glyph-name="onehalf" unicode="&#xbd;" horiz-adv-x="1708" 
d="M1647 74v-74h-568v78l260 235q197 178 199 324q2 72 -48 117t-130 45t-129 -45t-57 -121h-99q8 107 85 173t204 66t200 -63q72 -63 72 -157t-56 -187q-56 -92 -208 -229l-186 -170v-5l82 13h379zM348 -61l940 1605l74 -49l-940 -1606zM608 655v-73h-456v73h182l4 709
l-240 -145l-37 63l291 172h76l-4 -799h184z" />
    <glyph glyph-name="threequarters" unicode="&#xbe;" horiz-adv-x="1708" 
d="M1069 338l64 4h249l4 334q1 49 7 98h-4q-18 -35 -56 -86zM1647 342v-74h-172l-5 -194h107v-74h-297v74h98l4 194h-405v70l409 534h93l-4 -530h172zM340 1454q124 0 190 -56t66 -140t-55 -144q-55 -59 -144 -82v-4q111 -8 173 -64t62 -160t-88 -172q-90 -68 -236 -67
q-146 0 -232 43v82q125 -51 226 -51t167 49t66 134t-65 123t-224 38h-25v74h8q125 0 197 51t72 141q0 61 -43 97t-121 34q-78 0 -125 -38t-49 -105h-99q4 97 80 157t199 60zM348 -61l940 1605l74 -49l-940 -1606z" />
    <glyph glyph-name="questiondown" unicode="&#xbf;" horiz-adv-x="1024" 
d="M528 1003q0 43 27 71t69 28t68 -28t25 -70q1 -42 -25 -71q-26 -28 -68 -28t-69 28t-27 70zM563 -514q-171 0 -281 96t-110 242q0 178 143 297q65 54 139 112q75 57 110 89q54 49 54 105t-63 120l78 69q100 -72 100 -184q0 -80 -46 -129t-261 -217q-139 -109 -139 -246
q-1 -108 75 -182t194 -74t216 39l14 -100q-102 -37 -223 -37z" />
    <glyph glyph-name="Agrave" unicode="&#xc0;" horiz-adv-x="1478" 
d="M496 1802l69 64l357 -314l-72 -55zM754 1303h-4q-6 -37 -29 -91l-213 -524h463l-185 514q-28 74 -32 101zM1462 90v-90h-450v90h178l-186 508h-533l-203 -508h191v-90h-443v90h138l553 1344h114l492 -1344h149z" />
    <glyph glyph-name="Aacute" unicode="&#xc1;" horiz-adv-x="1478" 
d="M610 1552l357 314l69 -64l-354 -305zM754 1303h-4q-6 -37 -29 -91l-213 -524h463l-185 514q-28 74 -32 101zM1462 90v-90h-450v90h178l-186 508h-533l-203 -508h191v-90h-443v90h138l553 1344h114l492 -1344h149z" />
    <glyph glyph-name="Acircumflex" unicode="&#xc2;" horiz-adv-x="1478" 
d="M461 1563l258 282h98l250 -282l-72 -62l-227 262l-240 -262zM754 1303h-4q-6 -37 -29 -91l-213 -524h463l-185 514q-28 74 -32 101zM1462 90v-90h-450v90h178l-186 508h-533l-203 -508h191v-90h-443v90h138l553 1344h114l492 -1344h149z" />
    <glyph glyph-name="Atilde" unicode="&#xc3;" horiz-adv-x="1478" 
d="M627 1780q73 0 161 -54t117 -53q63 0 127 92l72 -53q-76 -137 -207 -137q-59 0 -146 53t-120 53q-63 0 -127 -98l-80 53q82 144 203 144zM754 1303h-4q-6 -37 -29 -91l-213 -524h463l-185 514q-28 74 -32 101zM1462 90v-90h-450v90h178l-186 508h-533l-203 -508h191v-90
h-443v90h138l553 1344h114l492 -1344h149z" />
    <glyph glyph-name="Adieresis" unicode="&#xc4;" horiz-adv-x="1478" 
d="M891 1665q1 41 27 69t64 29q38 -1 64 -29t26 -69t-26 -70t-64 -29t-64 30q-26 28 -27 69zM547 1763q39 -1 65 -29t25 -69q0 -41 -26 -70q-27 -29 -65 -29t-64 28t-26 70t26 71q26 28 65 28zM754 1303h-4q-6 -37 -29 -91l-213 -524h463l-185 514q-28 74 -32 101zM1462 90
v-90h-450v90h178l-186 508h-533l-203 -508h191v-90h-443v90h138l553 1344h114l492 -1344h149z" />
    <glyph glyph-name="Aring" unicode="&#xc5;" horiz-adv-x="1478" 
d="M659 1681q0 -49 29 -81t76 -31q47 0 76 32q28 33 28 81t-28 80q-29 32 -76 32t-76 -32t-29 -81zM764 1868q78 0 132 -54t54 -132t-54 -133q-54 -54 -132 -54t-132 54t-54 132q0 79 54 133t132 54zM754 1303h-4q-6 -37 -29 -91l-213 -524h463l-185 514q-28 74 -32 101z
M1462 90v-90h-450v90h178l-186 508h-533l-203 -508h191v-90h-443v90h138l553 1344h114l492 -1344h149z" />
    <glyph glyph-name="AE" unicode="&#xc6;" horiz-adv-x="1972" 
d="M1073 1343h-127l-340 -608h463zM1688 735v-90h-504l-4 -555h567l12 215h101l-17 -305h-944v90h166l4 555h-508l-309 -555h180v-90h-442v90h139l762 1344h907l4 -289h-98l-4 198h-512l-4 -608h504z" />
    <glyph glyph-name="Ccedilla" unicode="&#xc7;" horiz-adv-x="1402" 
d="M874 1458q219 0 400 -65l-4 -287h-107l4 215q-143 39 -303 39q-285 0 -460 -172t-175 -475t167 -471t458 -168q156 0 291 32l2 222h106l-2 -297q-258 -55 -399 -56v-106h16q72 0 116 -39q44 -40 44 -108t-51 -113t-155 -45t-195 37l14 73q82 -37 164 -36q117 0 117 81
q0 39 -29 57t-98 19h-25v185q-311 20 -483 215t-172 529q-1 334 207 534t552 200z" />
    <glyph glyph-name="Egrave" unicode="&#xc8;" horiz-adv-x="1175" 
d="M317 1802l70 64l356 -314l-71 -55zM102 1434h924v-287h-90v196h-547l-4 -573h498v-90h-498l-4 -590h567l17 213h98l-16 -303h-945v90h164l8 1253h-172v91z" />
    <glyph glyph-name="Eacute" unicode="&#xc9;" horiz-adv-x="1175" 
d="M436 1552l357 314l69 -64l-354 -305zM102 1434h924v-287h-90v196h-547l-4 -573h498v-90h-498l-4 -590h567l17 213h98l-16 -303h-945v90h164l8 1253h-172v91z" />
    <glyph glyph-name="Ecircumflex" unicode="&#xca;" horiz-adv-x="1175" 
d="M285 1563l258 282h98l250 -282l-72 -62l-227 262l-240 -262zM102 1434h924v-287h-90v196h-547l-4 -573h498v-90h-498l-4 -590h567l17 213h98l-16 -303h-945v90h164l8 1253h-172v91z" />
    <glyph glyph-name="Edieresis" unicode="&#xcb;" horiz-adv-x="1175" 
d="M806 1763q38 -1 64 -29t25 -69q0 -41 -26 -70q-25 -29 -63 -29t-65 30q-27 28 -26 69q0 41 26 70q27 28 65 28zM371 1763q39 -1 65 -29t25 -69q0 -41 -26 -70q-27 -29 -65 -29t-64 28t-26 70t26 71q26 28 65 28zM102 1434h924v-287h-90v196h-547l-4 -573h498v-90h-498
l-4 -590h567l17 213h98l-16 -303h-945v90h164l8 1253h-172v91z" />
    <glyph glyph-name="Igrave" unicode="&#xcc;" horiz-adv-x="684" 
d="M66 1802l69 64l357 -314l-72 -55zM117 1434h450v-91h-164l-8 -1253h172v-90h-450v90h164l8 1253h-172v91z" />
    <glyph glyph-name="Iacute" unicode="&#xcd;" horiz-adv-x="684" 
d="M180 1552l357 314l69 -64l-354 -305zM117 1434h450v-91h-164l-8 -1253h172v-90h-450v90h164l8 1253h-172v91z" />
    <glyph glyph-name="Icircumflex" unicode="&#xce;" horiz-adv-x="684" 
d="M43 1563l258 282h98l250 -282l-71 -62l-228 262l-239 -262zM117 1434h450v-91h-164l-8 -1253h172v-90h-450v90h164l8 1253h-172v91z" />
    <glyph glyph-name="Idieresis" unicode="&#xcf;" horiz-adv-x="684" 
d="M473 1665q1 41 27 69t64 29q38 -1 64 -29t26 -69t-26 -70t-64 -29t-64 30q-26 28 -27 69zM129 1763q39 -1 65 -29t26 -69t-26 -70t-65 -29t-65 28t-25 70q-1 42 25 70t65 29zM117 1434h450v-91h-164l-8 -1253h172v-90h-450v90h164l8 1253h-172v91z" />
    <glyph glyph-name="Eth" unicode="&#xd0;" horiz-adv-x="1554" 
d="M852 827v-98h-467l-4 -639h356q264 0 432 173t168 467t-166 454t-460 159h-322l-4 -516h467zM102 1434h639q331 0 521 -182t190 -527t-198 -535t-541 -190h-611v90h164l4 639h-180v98h180l4 516h-172v91z" />
    <glyph glyph-name="Ntilde" unicode="&#xd1;" horiz-adv-x="1630" 
d="M682 1780q72 0 160 -54t119 -53q63 0 126 92l72 -53q-76 -137 -207 -137q-59 0 -146 53t-120 53q-63 0 -127 -98l-80 53q82 144 203 144zM63 1434h312l866 -1186q23 -33 49 -86h4l6 1181h-200v91h467v-91h-158l-10 -1343h-115l-872 1196q-23 31 -43 76h-4l-9 -1182h189
v-90h-461v90h166l8 1253h-195v91z" />
    <glyph glyph-name="Ograve" unicode="&#xd2;" horiz-adv-x="1552" 
d="M506 1802l69 64l357 -314l-72 -55zM229 717q1 -305 145 -474t401 -169t403 170q145 170 145 474t-145 473q-146 169 -402 169t-402 -169t-145 -474zM115 710q0 348 174 548t490 200t488 -192q171 -193 171 -543t-174 -549t-490 -199t-488 193q-171 193 -171 542z" />
    <glyph glyph-name="Oacute" unicode="&#xd3;" horiz-adv-x="1552" 
d="M623 1552l356 314l70 -64l-355 -305zM229 717q1 -305 145 -474t401 -169t403 170q145 170 145 474t-145 473q-146 169 -402 169t-402 -169t-145 -474zM115 710q0 348 174 548t490 200t488 -192q171 -193 171 -543t-174 -549t-490 -199t-488 193q-171 193 -171 542z" />
    <glyph glyph-name="Ocircumflex" unicode="&#xd4;" horiz-adv-x="1552" 
d="M471 1563l258 282h98l250 -282l-71 -62l-228 262l-239 -262zM229 717q1 -305 145 -474t401 -169t403 170q145 170 145 474t-145 473q-146 169 -402 169t-402 -169t-145 -474zM115 710q0 348 174 548t490 200t488 -192q171 -193 171 -543t-174 -549t-490 -199t-488 193
q-171 193 -171 542z" />
    <glyph glyph-name="Otilde" unicode="&#xd5;" horiz-adv-x="1552" 
d="M637 1780q72 0 160 -54t118 -53q63 0 127 92l72 -53q-76 -137 -207 -137q-59 0 -146 53t-120 53q-63 0 -127 -98l-80 53q82 144 203 144zM229 717q1 -305 145 -474t401 -169t403 170q145 170 145 474t-145 473q-146 169 -402 169t-402 -169t-145 -474zM115 710
q0 348 174 548t490 200t488 -192q171 -193 171 -543t-174 -549t-490 -199t-488 193q-171 193 -171 542z" />
    <glyph glyph-name="Odieresis" unicode="&#xd6;" horiz-adv-x="1552" 
d="M903 1665q1 41 27 69t64 29q38 -1 64 -29t26 -69t-26 -70t-64 -29t-64 30q-26 28 -27 69zM559 1763q39 -1 65 -29t26 -69t-26 -70t-65 -29t-65 28t-25 70q-1 42 25 70t65 29zM229 717q1 -305 145 -474t401 -169t403 170q145 170 145 474t-145 473q-146 169 -402 169
t-402 -169t-145 -474zM115 710q0 348 174 548t490 200t488 -192q171 -193 171 -543t-174 -549t-490 -199t-488 193q-171 193 -171 542z" />
    <glyph glyph-name="multiply" unicode="&#xd7;" horiz-adv-x="1228" 
d="M152 907l73 74l387 -391l392 391l73 -74l-389 -389l389 -389l-73 -74l-392 389l-387 -389l-73 74l389 389z" />
    <glyph glyph-name="Oslash" unicode="&#xd8;" horiz-adv-x="1552" 
d="M1323 730q0 316 -172 489l-655 -1076q119 -70 280 -69q256 0 402 170q145 170 145 486zM229 717q0 -352 187 -516l659 1079q-121 80 -303 80q-252 0 -398 -169t-145 -474zM776 -25q-195 0 -338 74l-153 -250l-82 49l153 254q-242 188 -241 615q0 341 173 541t488 200
q212 0 357 -84l143 234l82 -49l-146 -240q225 -190 226 -602q0 -342 -174 -542t-488 -200z" />
    <glyph glyph-name="Ugrave" unicode="&#xd9;" horiz-adv-x="1556" 
d="M508 1802l70 64l356 -314l-72 -55zM786 74q158 0 242 42t125 154t43 328l8 745h-180v91h457v-91h-162l-8 -794q-4 -395 -213 -508q-121 -66 -322 -66q-200 1 -316 61t-163 172t-47 338t8 797h-182v91h465v-91h-168l-8 -778q1 -285 83 -388t338 -103z" />
    <glyph glyph-name="Uacute" unicode="&#xda;" horiz-adv-x="1556" 
d="M627 1552l356 314l70 -64l-355 -305zM786 74q158 0 242 42t125 154t43 328l8 745h-180v91h457v-91h-162l-8 -794q-4 -395 -213 -508q-121 -66 -322 -66q-200 1 -316 61t-163 172t-47 338t8 797h-182v91h465v-91h-168l-8 -778q1 -285 83 -388t338 -103z" />
    <glyph glyph-name="Ucircumflex" unicode="&#xdb;" horiz-adv-x="1556" 
d="M479 1563l258 282h99l249 -282l-71 -62l-228 262l-239 -262zM786 74q158 0 242 42t125 154t43 328l8 745h-180v91h457v-91h-162l-8 -794q-4 -395 -213 -508q-121 -66 -322 -66q-200 1 -316 61t-163 172t-47 338t8 797h-182v91h465v-91h-168l-8 -778q1 -285 83 -388
t338 -103z" />
    <glyph glyph-name="Udieresis" unicode="&#xdc;" horiz-adv-x="1556" 
d="M1017 1763q37 -1 63 -29t26 -69t-26 -70t-64 -29t-64 30q-27 28 -26 69q0 41 26 70q27 28 65 28zM582 1763q38 -1 64 -29t26 -69t-26 -70t-64 -29t-65 28q-25 28 -25 70t25 71q26 28 65 28zM786 74q158 0 242 42t125 154t43 328l8 745h-180v91h457v-91h-162l-8 -794
q-4 -395 -213 -508q-121 -66 -322 -66q-200 1 -316 61t-163 172t-47 338t8 797h-182v91h465v-91h-168l-8 -778q1 -285 83 -388t338 -103z" />
    <glyph glyph-name="Yacute" unicode="&#xdd;" horiz-adv-x="1441" 
d="M637 1552l356 314l70 -64l-354 -305zM12 1434h441v-91h-154q20 -23 51 -63l387 -539l396 547q14 27 45 55h-189v91h441v-91h-136l-497 -704l-9 -549h179v-90h-459v90h168l6 549l-516 704h-154v91z" />
    <glyph glyph-name="Thorn" unicode="&#xde;" 
d="M604 446q146 0 238 88t92 240t-97 235t-264 83h-186l-4 -646h221zM102 1434h451v-91h-164v-161h162q498 0 498 -402q0 -190 -126 -311t-323 -121h-217l-2 -258h172v-90h-451v90h164l8 1253h-172v91z" />
    <glyph glyph-name="germandbls" unicode="&#xdf;" horiz-adv-x="1402" 
d="M285 1106q0 252 137 368t346 117q209 0 323 -80t113 -221q0 -111 -52 -172t-192 -137t-178 -111q-45 -46 -45 -112t68 -107t215 -80q268 -72 268 -276q0 -139 -96 -225t-275 -86t-286 41v260h90v-191q96 -20 211 -20q114 0 182 58t68 143t-47 125t-209 93t-203 85
q-92 66 -92 186q0 47 11 80q12 33 64 82q52 50 174 116t158 103q60 59 60 149t-88 148t-256 59q-168 0 -264 -97t-99 -276l-8 -1038h139v-90h-411v90h165l9 873h-205v90h205v53z" />
    <glyph glyph-name="agrave" unicode="&#xe0;" horiz-adv-x="1175" 
d="M260 1546l70 64l356 -314l-72 -55zM250 270q0 -90 64 -143t182 -53q116 0 210 98q93 98 93 287v43q-287 -10 -359 -27q-190 -38 -190 -205zM545 1077q360 0 360 -350q0 -176 -2 -278l-6 -359h172v-90h-274q0 109 22 240h-4q-96 -264 -344 -265q-154 0 -244 78t-90 213
t98 215t279 92l287 19q4 86 4 94q0 162 -66 228t-193 65q-127 0 -261 -41l-4 -176h-99l4 242q148 73 361 73z" />
    <glyph glyph-name="aacute" unicode="&#xe1;" horiz-adv-x="1175" 
d="M365 1296l356 314l70 -64l-355 -305zM250 270q0 -90 64 -143t182 -53q116 0 210 98q93 98 93 287v43q-287 -10 -359 -27q-190 -38 -190 -205zM545 1077q360 0 360 -350q0 -176 -2 -278l-6 -359h172v-90h-274q0 109 22 240h-4q-96 -264 -344 -265q-154 0 -244 78t-90 213
t98 215t279 92l287 19q4 86 4 94q0 162 -66 228t-193 65q-127 0 -261 -41l-4 -176h-99l4 242q148 73 361 73z" />
    <glyph glyph-name="acircumflex" unicode="&#xe2;" horiz-adv-x="1175" 
d="M223 1307l258 282h99l249 -282l-71 -62l-228 262l-239 -262zM250 270q0 -90 64 -143t182 -53q116 0 210 98q93 98 93 287v43q-287 -10 -359 -27q-190 -38 -190 -205zM545 1077q360 0 360 -350q0 -176 -2 -278l-6 -359h172v-90h-274q0 109 22 240h-4q-96 -264 -344 -265
q-154 0 -244 78t-90 213t98 215t279 92l287 19q4 86 4 94q0 162 -66 228t-193 65q-127 0 -261 -41l-4 -176h-99l4 242q148 73 361 73z" />
    <glyph glyph-name="atilde" unicode="&#xe3;" horiz-adv-x="1175" 
d="M393 1524q70 0 159 -54t120 -53q63 0 127 92l71 -53q-76 -137 -206 -137q-56 0 -144 53t-123 53q-63 0 -127 -98l-80 53q82 144 203 144zM250 270q0 -90 64 -143t182 -53q116 0 210 98q93 98 93 287v43q-287 -10 -359 -27q-190 -38 -190 -205zM545 1077q360 0 360 -350
q0 -176 -2 -278l-6 -359h172v-90h-274q0 109 22 240h-4q-96 -264 -344 -265q-154 0 -244 78t-90 213t98 215t279 92l287 19q4 86 4 94q0 162 -66 228t-193 65q-127 0 -261 -41l-4 -176h-99l4 242q148 73 361 73z" />
    <glyph glyph-name="adieresis" unicode="&#xe4;" horiz-adv-x="1175" 
d="M657 1409q0 41 27 69t65 29q37 -1 63 -29t26 -69t-26 -70t-64 -29t-64 30q-27 28 -27 69zM313 1507q39 -1 65 -29t26 -69t-26 -70t-65 -29t-65 28t-25 70q-1 42 25 70t65 29zM250 270q0 -90 64 -143t182 -53q116 0 210 98q93 98 93 287v43q-287 -10 -359 -27
q-190 -38 -190 -205zM545 1077q360 0 360 -350q0 -176 -2 -278l-6 -359h172v-90h-274q0 109 22 240h-4q-96 -264 -344 -265q-154 0 -244 78t-90 213t98 215t279 92l287 19q4 86 4 94q0 162 -66 228t-193 65q-127 0 -261 -41l-4 -176h-99l4 242q148 73 361 73z" />
    <glyph glyph-name="aring" unicode="&#xe5;" horiz-adv-x="1175" 
d="M526 1538q-44 0 -74 -33t-30 -81t30 -80t76 -31q46 0 74 32q29 31 29 79t-30 81t-75 33zM526 1612q76 0 131 -54t55 -132t-54 -133q-54 -54 -132 -54t-132 55t-54 131q0 75 55 131t131 56zM250 270q0 -90 64 -143t182 -53q116 0 210 98q93 98 93 287v43
q-287 -10 -359 -27q-190 -38 -190 -205zM545 1077q360 0 360 -350q0 -176 -2 -278l-6 -359h172v-90h-274q0 109 22 240h-4q-96 -264 -344 -265q-154 0 -244 78t-90 213t98 215t279 92l287 19q4 86 4 94q0 162 -66 228t-193 65q-127 0 -261 -41l-4 -176h-99l4 242
q148 73 361 73z" />
    <glyph glyph-name="ae" unicode="&#xe6;" horiz-adv-x="1781" 
d="M516 74q129 0 220 100t91 258v80l-247 -12q-330 -18 -330 -217q0 -94 68 -152q69 -57 198 -57zM1242 979q-148 -1 -227 -95t-81 -282h627q-2 180 -87 278q-84 98 -232 99zM556 1077q108 0 204 -58q94 -58 133 -159q100 217 352 217q217 0 323 -136t107 -429h-741v-119
q4 -145 100 -232t268 -87t310 78v-107q-43 -29 -135 -49t-191 -21q-156 0 -270 74t-144 197h-4q-35 -127 -139 -199t-253 -72t-245 83q-96 84 -96 224t109 219t311 89l272 12v84q0 293 -313 293q-117 0 -244 -41l-4 -176h-98l4 242q60 29 168 51t216 22z" />
    <glyph glyph-name="ccedilla" unicode="&#xe7;" horiz-adv-x="1062" 
d="M625 1077q180 0 327 -55v-256h-98v180q-102 33 -225 33q-191 0 -295 -119t-104 -334q0 -216 104 -334t292 -118t320 61v-104q-113 -53 -295 -56v-106h17q72 0 116 -39q44 -40 43 -108q0 -68 -51 -113q-50 -45 -154 -45t-196 37l14 73q82 -37 162 -36q119 0 119 81
q0 39 -29 57t-98 19h-25v180q-215 18 -335 169q-120 150 -120 390t138 392q137 152 373 151z" />
    <glyph glyph-name="egrave" unicode="&#xe8;" horiz-adv-x="1099" 
d="M311 1546l70 64l356 -314l-71 -55zM556 979q-150 0 -244 -98t-99 -254h674q-2 166 -91 259q-90 93 -240 93zM98 526q0 250 126 400t338 151q212 0 325 -140t114 -400h-788q1 -225 107 -344t311 -119q160 0 323 88l-4 -107q-55 -33 -150 -57t-186 -23q-248 0 -382 150
q-134 151 -134 401z" />
    <glyph glyph-name="eacute" unicode="&#xe9;" horiz-adv-x="1099" 
d="M426 1296l356 314l70 -64l-354 -305zM556 979q-150 0 -244 -98t-99 -254h674q-2 166 -91 259q-90 93 -240 93zM98 526q0 250 126 400t338 151q212 0 325 -140t114 -400h-788q1 -225 107 -344t311 -119q160 0 323 88l-4 -107q-55 -33 -150 -57t-186 -23q-248 0 -382 150
q-134 151 -134 401z" />
    <glyph glyph-name="ecircumflex" unicode="&#xea;" horiz-adv-x="1099" 
d="M272 1307l258 282h99l250 -282l-72 -62l-227 262l-240 -262zM556 979q-150 0 -244 -98t-99 -254h674q-2 166 -91 259q-90 93 -240 93zM98 526q0 250 126 400t338 151q212 0 325 -140t114 -400h-788q1 -225 107 -344t311 -119q160 0 323 88l-4 -107q-55 -33 -150 -57
t-186 -23q-248 0 -382 150q-134 151 -134 401z" />
    <glyph glyph-name="edieresis" unicode="&#xeb;" horiz-adv-x="1099" 
d="M702 1409q0 41 27 69t65 29q38 -1 64 -29t25 -69q0 -41 -26 -70q-25 -29 -63 -29t-65 30q-27 28 -27 69zM358 1507q39 -1 65 -29t26 -69t-26 -70t-65 -29q-38 0 -64 28t-26 70t26 70t64 29zM556 979q-150 0 -244 -98t-99 -254h674q-2 166 -91 259q-90 93 -240 93zM98 526
q0 250 126 400t338 151q212 0 325 -140t114 -400h-788q1 -225 107 -344t311 -119q160 0 323 88l-4 -107q-55 -33 -150 -57t-186 -23q-248 0 -382 150q-134 151 -134 401z" />
    <glyph glyph-name="igrave" unicode="&#xec;" horiz-adv-x="606" 
d="M25 1546l69 64l357 -314l-72 -55zM49 1053h309l-6 -963h189v-90h-475v90h180l6 873h-203v90z" />
    <glyph glyph-name="iacute" unicode="&#xed;" horiz-adv-x="606" 
d="M119 1296l356 314l70 -64l-355 -305zM49 1053h309l-6 -963h189v-90h-475v90h180l6 873h-203v90z" />
    <glyph glyph-name="icircumflex" unicode="&#xee;" horiz-adv-x="606" 
d="M-18 1307l258 282h98l250 -282l-72 -62l-227 262l-240 -262zM49 1053h309l-6 -963h189v-90h-475v90h180l6 873h-203v90z" />
    <glyph glyph-name="idieresis" unicode="&#xef;" horiz-adv-x="606" 
d="M503 1507q37 -1 63 -29t26 -69t-26 -70t-64 -29t-64 30q-27 28 -26 69q0 41 26 70q27 28 65 28zM68 1507q38 -1 64 -29t26 -69t-26 -70t-64 -29t-65 28q-26 28 -26 70t26 70t65 29zM49 1053h309l-6 -963h189v-90h-475v90h180l6 873h-203v90z" />
    <glyph glyph-name="eth" unicode="&#xf0;" horiz-adv-x="1175" 
d="M587 979q-175 0 -275 -122t-99 -332q0 -211 99 -331q100 -120 276 -120t275 121t99 331t-100 332q-100 121 -275 121zM1077 522q0 -248 -134 -397q-134 -150 -356 -150t-356 153q-133 154 -133 398t133 398t357 153q184 0 301 -119h4q-84 199 -305 408l-191 -115l-61 62
l188 112q-61 58 -153 115l92 51q80 -55 143 -114l189 114l61 -61l-184 -113q223 -229 314 -438t91 -457z" />
    <glyph glyph-name="ntilde" unicode="&#xf1;" horiz-adv-x="1327" 
d="M528 1524q70 0 159 -54t120 -53q63 0 127 92l72 -53q-76 -137 -207 -137q-55 0 -143 53t-124 53q-63 0 -126 -98l-80 53q81 144 202 144zM725 1077q360 0 354 -413l-8 -574h166v-90h-430v90h158l8 555q2 174 -64 254t-211 80t-241 -114t-99 -290l-4 -485h166v-90h-430v90
h158l4 873h-184v90h292q0 -113 -24 -252h4q41 133 140 205q100 71 245 71z" />
    <glyph glyph-name="ograve" unicode="&#xf2;" horiz-adv-x="1175" 
d="M326 1546l69 64l357 -314l-72 -55zM587 979q-175 0 -275 -122t-99 -332q0 -211 99 -331q100 -120 276 -120t275 121t99 331t-100 332q-100 121 -275 121zM587 1077q222 1 356 -151t134 -401t-132 -399t-356 -151q-224 0 -358 153q-133 152 -133 398t133 399
q134 152 356 152z" />
    <glyph glyph-name="oacute" unicode="&#xf3;" horiz-adv-x="1175" 
d="M426 1296l356 314l70 -64l-354 -305zM587 979q-175 0 -275 -122t-99 -332q0 -211 99 -331q100 -120 276 -120t275 121t99 331t-100 332q-100 121 -275 121zM587 1077q222 1 356 -151t134 -401t-132 -399t-356 -151q-224 0 -358 153q-133 152 -133 398t133 399
q134 152 356 152z" />
    <glyph glyph-name="ocircumflex" unicode="&#xf4;" horiz-adv-x="1175" 
d="M289 1307l258 282h98l250 -282l-72 -62l-227 262l-240 -262zM587 979q-175 0 -275 -122t-99 -332q0 -211 99 -331q100 -120 276 -120t275 121t99 331t-100 332q-100 121 -275 121zM587 1077q222 1 356 -151t134 -401t-132 -399t-356 -151q-224 0 -358 153
q-133 152 -133 398t133 399q134 152 356 152z" />
    <glyph glyph-name="otilde" unicode="&#xf5;" horiz-adv-x="1175" 
d="M455 1524q71 0 159 -54t119 -53q63 0 127 92l72 -53q-76 -137 -207 -137q-55 0 -143 53t-123 53q-63 0 -127 -98l-80 53q82 144 203 144zM587 979q-175 0 -275 -122t-99 -332q0 -211 99 -331q100 -120 276 -120t275 121t99 331t-100 332q-100 121 -275 121zM587 1077
q222 1 356 -151t134 -401t-132 -399t-356 -151q-224 0 -358 153q-133 152 -133 398t133 399q134 152 356 152z" />
    <glyph glyph-name="odieresis" unicode="&#xf6;" horiz-adv-x="1175" 
d="M810 1507q38 -1 64 -29t25 -69q0 -41 -26 -70q-25 -29 -63 -29t-65 30q-27 28 -26 69q0 41 26 70q27 28 65 28zM375 1507q39 -1 65 -29t25 -69q0 -41 -26 -70q-27 -29 -65 -29t-64 28t-26 70t26 71q26 28 65 28zM587 979q-175 0 -275 -122t-99 -332q0 -211 99 -331
q100 -120 276 -120t275 121t99 331t-100 332q-100 121 -275 121zM587 1077q222 1 356 -151t134 -401t-132 -399t-356 -151q-224 0 -358 153q-133 152 -133 398t133 399q134 152 356 152z" />
    <glyph glyph-name="divide" unicode="&#xf7;" horiz-adv-x="1228" 
d="M614 205q47 0 81 -34t34 -81t-34 -81t-81 -34q-46 0 -80 34t-34 81t34 81t80 34zM96 567h1037v-98h-1037v98zM614 1061q47 0 81 -34t34 -81t-34 -81t-81 -34q-46 0 -80 34t-34 81t34 81t80 34z" />
    <glyph glyph-name="oslash" unicode="&#xf8;" horiz-adv-x="1175" 
d="M588 74q176 0 275 121t99 337t-110 336l-446 -747q74 -47 182 -47zM586 979q-174 0 -274 -122t-99 -343q0 -221 121 -342l448 754q-78 53 -196 53zM1077 526q0 -246 -132 -398t-357 -153q-131 0 -236 56l-123 -205l-73 49l123 205q-180 156 -181 446q0 244 133 398
t357 153q144 0 248 -61l125 209l73 -49l-127 -213q170 -150 170 -437z" />
    <glyph glyph-name="ugrave" unicode="&#xf9;" horiz-adv-x="1327" 
d="M397 1546l70 64l356 -314l-71 -55zM78 1053h287l-9 -645q-2 -178 64 -256t218 -78t240 112q87 112 91 318l8 459h-189v90h295l-8 -963h164v-90h-268q0 113 24 252h-4q-37 -125 -137 -201t-229 -76q-193 -1 -285 103t-90 323l8 562h-180v90z" />
    <glyph glyph-name="uacute" unicode="&#xfa;" horiz-adv-x="1327" 
d="M500 1296l356 314l70 -64l-355 -305zM78 1053h287l-9 -645q-2 -178 64 -256t218 -78t240 112q87 112 91 318l8 459h-189v90h295l-8 -963h164v-90h-268q0 113 24 252h-4q-37 -125 -137 -201t-229 -76q-193 -1 -285 103t-90 323l8 562h-180v90z" />
    <glyph glyph-name="ucircumflex" unicode="&#xfb;" horiz-adv-x="1327" 
d="M360 1307l258 282h99l250 -282l-72 -62l-227 262l-240 -262zM78 1053h287l-9 -645q-2 -178 64 -256t218 -78t240 112q87 112 91 318l8 459h-189v90h295l-8 -963h164v-90h-268q0 113 24 252h-4q-37 -125 -137 -201t-229 -76q-193 -1 -285 103t-90 323l8 562h-180v90z" />
    <glyph glyph-name="udieresis" unicode="&#xfc;" horiz-adv-x="1327" 
d="M770 1409q0 41 26 69t65 29q38 -1 64 -29q25 -28 25 -69t-26 -70t-63 -29q-39 0 -65 30q-26 28 -26 69zM426 1507q38 -1 64 -29t26 -69t-26 -70t-64 -29t-65 28q-25 28 -25 70t25 71q26 28 65 28zM78 1053h287l-9 -645q-2 -178 64 -256t218 -78t240 112q87 112 91 318
l8 459h-189v90h295l-8 -963h164v-90h-268q0 113 24 252h-4q-37 -125 -137 -201t-229 -76q-193 -1 -285 103t-90 323l8 562h-180v90z" />
    <glyph glyph-name="yacute" unicode="&#xfd;" 
d="M406 1296l356 314l69 -64l-354 -305zM10 1053h412v-90h-150l287 -785q12 -35 21 -69h4q2 31 16 67l274 787h-157v90h391v-90h-127l-365 -1022q-98 -274 -207 -377q-110 -102 -276 -103q-45 0 -123 17v100q80 -18 123 -18q125 0 198 60t124 185l69 168l-377 990h-137v90z
" />
    <glyph glyph-name="thorn" unicode="&#xfe;" horiz-adv-x="1251" 
d="M624 66q192 0 303 129t111 347t-87 328t-239 109t-254 -109q-100 -108 -102 -321l-2 -436q78 -47 270 -47zM721 1077q199 0 315 -134t117 -355q0 -289 -141 -451t-406 -162q-150 0 -252 37l-4 -436h191v-90h-467v90h170l8 1909h-197v90h303q0 -668 -10 -744l6 5
q66 129 153 185t214 56z" />
    <glyph glyph-name="ydieresis" unicode="&#xff;" 
d="M698 1409q0 41 26 69t65 29q38 -1 64 -29t26 -69t-26 -70t-64 -29q-39 0 -65 30q-26 28 -26 69zM354 1507q39 -1 65 -29q25 -28 25 -69t-26 -70t-64 -29t-64 28t-26 70t26 70t64 29zM10 1053h412v-90h-150l287 -785q12 -35 21 -69h4q2 31 16 67l274 787h-157v90h391v-90
h-127l-365 -1022q-98 -274 -207 -377q-110 -102 -276 -103q-45 0 -123 17v100q80 -18 123 -18q125 0 198 60t124 185l69 168l-377 990h-137v90z" />
    <glyph glyph-name="Amacron" unicode="&#x100;" horiz-adv-x="1478" 
d="M496 1729h536v-91h-536v91zM754 1303h-4q-6 -37 -29 -91l-213 -524h463l-185 514q-28 74 -32 101zM1462 90v-90h-450v90h178l-186 508h-533l-203 -508h191v-90h-443v90h138l553 1344h114l492 -1344h149z" />
    <glyph glyph-name="amacron" unicode="&#x101;" horiz-adv-x="1175" 
d="M285 1473h536v-91h-536v91zM250 270q0 -90 64 -143t182 -53q116 0 210 98q93 98 93 287v43q-287 -10 -359 -27q-190 -38 -190 -205zM545 1077q360 0 360 -350q0 -176 -2 -278l-6 -359h172v-90h-274q0 109 22 240h-4q-96 -264 -344 -265q-154 0 -244 78t-90 213t98 215
t279 92l287 19q4 86 4 94q0 162 -66 228t-193 65q-127 0 -261 -41l-4 -176h-99l4 242q148 73 361 73z" />
    <glyph glyph-name="Abreve" unicode="&#x102;" horiz-adv-x="1478" 
d="M764 1636q160 0 209 217l94 -32q-59 -274 -299 -274t-307 274l94 32q49 -217 209 -217zM754 1303h-4q-6 -37 -29 -91l-213 -524h463l-185 514q-28 74 -32 101zM1462 90v-90h-450v90h178l-186 508h-533l-203 -508h191v-90h-443v90h138l553 1344h114l492 -1344h149z" />
    <glyph glyph-name="abreve" unicode="&#x103;" horiz-adv-x="1175" 
d="M559 1380q158 0 207 217l94 -32q-59 -274 -303 -275q-115 0 -191 62t-112 213l94 32q53 -217 211 -217zM250 270q0 -90 64 -143t182 -53q116 0 210 98q93 98 93 287v43q-287 -10 -359 -27q-190 -38 -190 -205zM545 1077q360 0 360 -350q0 -176 -2 -278l-6 -359h172v-90
h-274q0 109 22 240h-4q-96 -264 -344 -265q-154 0 -244 78t-90 213t98 215t279 92l287 19q4 86 4 94q0 162 -66 228t-193 65q-127 0 -261 -41l-4 -176h-99l4 242q148 73 361 73z" />
    <glyph glyph-name="Aogonek" unicode="&#x104;" horiz-adv-x="1478" 
d="M754 1303h-4q-18 -68 -25 -80l-217 -535h463l-191 533q-6 16 -26 82zM1462 90v-90h-73q-150 -113 -150 -252q0 -109 113 -108q33 0 88 10l20 -70q-82 -14 -131 -14q-96 0 -146 45t-50 116t49 145t125 128h-295v90h178l-186 508h-533l-203 -508h191v-90h-443v90h138
l553 1344h114l492 -1344h149z" />
    <glyph glyph-name="aogonek" unicode="&#x105;" horiz-adv-x="1175" 
d="M250 270q0 -90 64 -143t182 -53q116 0 210 98q93 98 93 287v43q-287 -10 -359 -27q-190 -38 -190 -205zM795 0q0 109 22 240h-4q-96 -264 -344 -265q-154 0 -244 78t-90 213t98 215t279 92l287 19q4 86 4 94q0 162 -66 228t-193 65q-127 0 -261 -41l-4 -176h-99l4 242
q147 74 361 73q360 0 360 -350q0 -176 -2 -278l-6 -359h172v-90h-123q-150 -111 -149 -252q0 -109 110 -108q35 0 90 10l21 -70q-82 -14 -129 -14q-96 0 -148 45q-51 45 -51 116t49 145t125 128h-69z" />
    <glyph glyph-name="Cacute" unicode="&#x106;" horiz-adv-x="1402" 
d="M637 1552l356 314l70 -64l-354 -305zM874 1458q219 0 400 -65l-4 -287h-107l4 215q-145 39 -299 39q-291 0 -465 -176t-174 -473t168 -467t457 -170q156 0 291 32l2 222h106l-2 -297q-264 -55 -409 -56q-340 0 -534 197t-194 541q0 345 208 545t552 200z" />
    <glyph glyph-name="cacute" unicode="&#x107;" horiz-adv-x="1062" 
d="M487 1296l357 314l69 -64l-354 -305zM635 1077q166 0 317 -55v-256h-98v180q-102 33 -225 33q-191 0 -295 -119t-104 -334q0 -216 104 -334t292 -118t320 61v-104q-129 -55 -321 -56q-238 0 -374 152q-136 153 -136 399t139 398t381 153z" />
    <glyph glyph-name="Ccircumflex" unicode="&#x108;" horiz-adv-x="1402" 
d="M522 1563l258 282h99l249 -282l-71 -62l-228 262l-239 -262zM874 1458q219 0 400 -65l-4 -287h-107l4 215q-145 39 -299 39q-291 0 -465 -176t-174 -473t168 -467t457 -170q156 0 291 32l2 222h106l-2 -297q-264 -55 -409 -56q-340 0 -534 197t-194 541q0 345 208 545
t552 200z" />
    <glyph glyph-name="ccircumflex" unicode="&#x109;" horiz-adv-x="1062" 
d="M336 1307l258 282h98l250 -282l-72 -62l-227 262l-240 -262zM635 1077q166 0 317 -55v-256h-98v180q-102 33 -225 33q-191 0 -295 -119t-104 -334q0 -216 104 -334t292 -118t320 61v-104q-129 -55 -321 -56q-238 0 -374 152q-136 153 -136 399t139 398t381 153z" />
    <glyph glyph-name="Cdotaccent" unicode="&#x10a;" horiz-adv-x="1402" 
d="M825 1763q39 -1 65 -29t26 -69t-26 -70t-65 -29t-65 28t-25 70q-1 42 25 70t65 29zM874 1458q219 0 400 -65l-4 -287h-107l4 215q-145 39 -299 39q-291 0 -465 -176t-174 -473t168 -467t457 -170q156 0 291 32l2 222h106l-2 -297q-264 -55 -409 -56q-340 0 -534 197
t-194 541q0 345 208 545t552 200z" />
    <glyph glyph-name="cdotaccent" unicode="&#x10b;" horiz-adv-x="1062" 
d="M629 1507q39 -1 65 -29t25 -69q0 -41 -26 -70q-27 -29 -65 -29t-64 28t-26 70t26 71q26 28 65 28zM635 1077q166 0 317 -55v-256h-98v180q-102 33 -225 33q-191 0 -295 -119t-104 -334q0 -216 104 -334t292 -118t320 61v-104q-129 -55 -321 -56q-238 0 -374 152
q-136 153 -136 399t139 398t381 153z" />
    <glyph glyph-name="Ccaron" unicode="&#x10c;" horiz-adv-x="1402" 
d="M537 1815l71 61l228 -262l239 262l68 -61l-258 -283h-99zM874 1458q219 0 400 -65l-4 -287h-107l4 215q-145 39 -299 39q-291 0 -465 -176t-174 -473t168 -467t457 -170q156 0 291 32l2 222h106l-2 -297q-264 -55 -409 -56q-340 0 -534 197t-194 541q0 345 208 545
t552 200z" />
    <glyph glyph-name="ccaron" unicode="&#x10d;" horiz-adv-x="1062" 
d="M336 1528l72 61l227 -262l239 262l68 -61l-258 -283h-98zM635 1077q166 0 317 -55v-256h-98v180q-102 33 -225 33q-191 0 -295 -119t-104 -334q0 -216 104 -334t292 -118t320 61v-104q-129 -55 -321 -56q-238 0 -374 152q-136 153 -136 399t139 398t381 153z" />
    <glyph glyph-name="Dcaron" unicode="&#x10e;" horiz-adv-x="1554" 
d="M442 1794l72 61l227 -262l240 262l68 -61l-258 -283h-99zM698 90q297 0 468 169t171 467t-166 458t-469 159h-313l-8 -1253h317zM102 1434h635q335 0 525 -180t190 -529t-197 -537t-542 -188h-611v90h164l8 1253h-172v91z" />
    <glyph glyph-name="dcaron" unicode="&#x10f;" horiz-adv-x="1251" 
d="M1149 1524q0 71 84 71q43 0 72 -40q29 -39 29 -107t-43 -148q-42 -80 -105 -135l-45 45q90 88 90 142t-41 100q-41 45 -41 72zM645 979q-197 0 -307 -125t-109 -341q0 -216 86 -328q86 -111 244 -111t248 119t92 358l2 377q-113 51 -256 51zM672 1575h338l-9 -1485h181
v-90h-291q0 59 16 217h-4q-49 -127 -140 -184t-231 -58q-186 -1 -302 137t-116 392t145 414q144 160 382 159q127 0 260 -51l4 459h-233v90z" />
    <glyph glyph-name="Dcroat" unicode="&#x110;" horiz-adv-x="1554" 
d="M852 827v-98h-467l-4 -639h356q264 0 432 173t168 467t-166 454t-460 159h-322l-4 -516h467zM102 1434h639q331 0 521 -182t190 -527t-198 -535t-541 -190h-611v90h164l4 639h-180v98h180l4 516h-172v91z" />
    <glyph glyph-name="dcroat" unicode="&#x111;" horiz-adv-x="1251" 
d="M645 979q-197 0 -307 -125t-109 -341q0 -216 86 -328q86 -111 244 -111t248 119t92 358l2 377q-113 51 -256 51zM672 1575h338l-2 -221h159v-90h-159l-7 -1174h181v-90h-291q0 59 16 217h-4q-49 -127 -140 -184t-231 -58q-186 -1 -302 137t-116 392t145 414
q144 160 382 159q127 0 260 -51l2 238h-395v90h395l2 131h-233v90z" />
    <glyph glyph-name="Emacron" unicode="&#x112;" horiz-adv-x="1175" 
d="M344 1729h537v-91h-537v91zM102 1434h924v-287h-90v196h-547l-4 -573h498v-90h-498l-4 -590h567l17 213h98l-16 -303h-945v90h164l8 1253h-172v91z" />
    <glyph glyph-name="emacron" unicode="&#x113;" horiz-adv-x="1099" 
d="M303 1473h537v-91h-537v91zM556 979q-150 0 -244 -98t-99 -254h674q-2 166 -91 259q-90 93 -240 93zM98 526q0 250 126 400t338 151q212 0 325 -140t114 -400h-788q1 -225 107 -344t311 -119q160 0 323 88l-4 -107q-55 -33 -150 -57t-186 -23q-248 0 -382 150
q-134 151 -134 401z" />
    <glyph glyph-name="Ebreve" unicode="&#x114;" horiz-adv-x="1175" 
d="M586 1636q160 0 209 217l94 -32q-59 -274 -299 -274t-307 274l94 32q49 -217 209 -217zM102 1434h924v-287h-90v196h-547l-4 -573h498v-90h-498l-4 -590h567l17 213h98l-16 -303h-945v90h164l8 1253h-172v91z" />
    <glyph glyph-name="ebreve" unicode="&#x115;" horiz-adv-x="1099" 
d="M567 1380q160 0 209 217l94 -32q-59 -274 -303 -275q-115 0 -191 62t-112 213l94 32q55 -217 209 -217zM556 979q-150 0 -244 -98t-99 -254h674q-2 166 -91 259q-90 93 -240 93zM98 526q0 250 126 400t338 151q212 0 325 -140t114 -400h-788q1 -225 107 -344t311 -119
q160 0 323 88l-4 -107q-55 -33 -150 -57t-186 -23q-248 0 -382 150q-134 151 -134 401z" />
    <glyph glyph-name="Edotaccent" unicode="&#x116;" horiz-adv-x="1175" 
d="M633 1763q39 -1 65 -29t25 -69q0 -41 -26 -70q-27 -29 -65 -29t-64 28t-26 70t26 71q26 28 65 28zM102 1434h924v-287h-90v196h-547l-4 -573h498v-90h-498l-4 -590h567l17 213h98l-16 -303h-945v90h164l8 1253h-172v91z" />
    <glyph glyph-name="edotaccent" unicode="&#x117;" horiz-adv-x="1099" 
d="M592 1507q38 -1 64 -29t26 -69t-26 -70t-64 -29t-65 28q-25 28 -25 70t25 71q26 28 65 28zM556 979q-150 0 -244 -98t-99 -254h674q-2 166 -91 259q-90 93 -240 93zM98 526q0 250 126 400t338 151q212 0 325 -140t114 -400h-788q1 -225 107 -344t311 -119q160 0 323 88
l-4 -107q-55 -33 -150 -57t-186 -23q-248 0 -382 150q-134 151 -134 401z" />
    <glyph glyph-name="Eogonek" unicode="&#x118;" horiz-adv-x="1175" 
d="M102 1434h924v-287h-90v196h-547l-4 -573h498v-90h-498l-4 -590h567l17 213h98l-16 -303h-35q-150 -113 -150 -252q0 -109 113 -108q33 0 88 10l20 -70q-82 -14 -131 -14q-96 0 -146 45t-50 116t49 145t125 128h-828v90h164l8 1253h-172v91z" />
    <glyph glyph-name="eogonek" unicode="&#x119;" horiz-adv-x="1099" 
d="M556 979q-150 0 -244 -101t-99 -251h674q-2 166 -91 259q-90 93 -240 93zM98 526q0 250 127 400t338 151q211 0 325 -142t113 -398h-788q10 -463 418 -463q160 0 323 88l-4 -107q-29 -16 -63 -28q-76 -25 -130 -99q-55 -74 -55 -143q-1 -125 111 -125q49 0 90 10l21 -69
q-72 -15 -148 -15t-129 45q-51 45 -51 113t38 134q38 65 97 108q-59 -10 -119 -11q-246 0 -380 150q-134 151 -134 401z" />
    <glyph glyph-name="Ecaron" unicode="&#x11a;" horiz-adv-x="1175" 
d="M326 1794l71 61l228 -262l239 262l68 -61l-258 -283h-99zM102 1434h924v-287h-90v196h-547l-4 -573h498v-90h-498l-4 -590h567l17 213h98l-16 -303h-945v90h164l8 1253h-172v91z" />
    <glyph glyph-name="ecaron" unicode="&#x11b;" horiz-adv-x="1099" 
d="M274 1528l72 61l227 -262l240 262l68 -61l-258 -283h-99zM556 979q-150 0 -244 -98t-99 -254h674q-2 166 -91 259q-90 93 -240 93zM98 526q0 250 126 400t338 151q212 0 325 -140t114 -400h-788q1 -225 107 -344t311 -119q160 0 323 88l-4 -107q-55 -33 -150 -57
t-186 -23q-248 0 -382 150q-134 151 -134 401z" />
    <glyph glyph-name="Gcircumflex" unicode="&#x11c;" horiz-adv-x="1478" 
d="M535 1563l258 282h98l250 -282l-72 -62l-227 262l-240 -262zM874 1458q207 0 418 -67v-277h-106v199q-119 47 -301 47q-303 0 -479 -176t-176 -473t167 -467q168 -170 457 -170q156 0 291 32l8 402h-182v90h456v-90h-167l-9 -477q-264 -55 -409 -56q-340 0 -534 197
t-194 541q0 345 208 545t552 200z" />
    <glyph glyph-name="gcircumflex" unicode="&#x11d;" horiz-adv-x="1099" 
d="M260 1307l258 282h98l250 -282l-71 -62l-228 262l-239 -262zM193 -246q-1 -82 107 -142t280 -60t279 60q108 62 108 169q0 82 -65 119q-65 38 -243 62t-188 26q-131 -25 -205 -88q-73 -64 -73 -146zM227 688q0 -129 85 -212q84 -83 226 -83t223 80t81 212t-87 213
t-223 81t-221 -81q-84 -81 -84 -210zM528 1077q94 0 179 -33h387v-90h-41q-86 0 -135 4l-91 7l-4 -4q125 -91 125 -265t-110 -284t-275 -109q-121 0 -189 -33t-67 -84q0 -70 170 -98l342 -61q143 -25 199 -80t55 -158q0 -147 -134 -237q-135 -90 -363 -91q-228 0 -359 76
t-131 209q0 96 82 172t199 92v4q-166 41 -166 158q0 63 49 104t139 54v4q-268 74 -268 348q0 170 113 283q114 112 294 112z" />
    <glyph glyph-name="Gbreve" unicode="&#x11e;" horiz-adv-x="1478" 
d="M838 1636q160 0 209 217l94 -32q-59 -274 -299 -274t-307 274l94 32q49 -217 209 -217zM874 1458q207 0 418 -67v-277h-106v199q-119 47 -301 47q-303 0 -479 -176t-176 -473t167 -467q168 -170 457 -170q156 0 291 32l8 402h-182v90h456v-90h-167l-9 -477
q-264 -55 -409 -56q-340 0 -534 197t-194 541q0 345 208 545t552 200z" />
    <glyph glyph-name="gbreve" unicode="&#x11f;" horiz-adv-x="1099" 
d="M563 1380q160 0 209 217l94 -32q-59 -274 -303 -275q-115 0 -191 62t-112 213l94 32q55 -217 209 -217zM193 -246q-1 -82 107 -142t280 -60t279 60q108 62 108 169q0 82 -65 119q-65 38 -243 62t-188 26q-131 -25 -205 -88q-73 -64 -73 -146zM227 688q0 -129 85 -212
q84 -83 226 -83t223 80t81 212t-87 213t-223 81t-221 -81q-84 -81 -84 -210zM528 1077q94 0 179 -33h387v-90h-41q-86 0 -135 4l-91 7l-4 -4q125 -91 125 -265t-110 -284t-275 -109q-121 0 -189 -33t-67 -84q0 -70 170 -98l342 -61q143 -25 199 -80t55 -158
q0 -147 -134 -237q-135 -90 -363 -91q-228 0 -359 76t-131 209q0 96 82 172t199 92v4q-166 41 -166 158q0 63 49 104t139 54v4q-268 74 -268 348q0 170 113 283q114 112 294 112z" />
    <glyph glyph-name="Gdotaccent" unicode="&#x120;" horiz-adv-x="1478" 
d="M838 1763q38 -1 64 -29t26 -69t-26 -70t-64 -29t-65 28q-25 28 -25 70t25 71q26 28 65 28zM874 1458q207 0 418 -67v-277h-106v199q-119 47 -301 47q-303 0 -479 -176t-176 -473t167 -467q168 -170 457 -170q156 0 291 32l8 402h-182v90h456v-90h-167l-9 -477
q-264 -55 -409 -56q-340 0 -534 197t-194 541q0 345 208 545t552 200z" />
    <glyph glyph-name="gdotaccent" unicode="&#x121;" horiz-adv-x="1099" 
d="M565 1507q39 -1 65 -29t26 -69t-26 -70t-65 -29t-65 28t-25 70q-1 42 25 70t65 29zM193 -246q-1 -82 107 -142t280 -60t279 60q108 62 108 169q0 82 -65 119q-65 38 -243 62t-188 26q-131 -25 -205 -88q-73 -64 -73 -146zM227 688q0 -129 85 -212q84 -83 226 -83t223 80
t81 212t-87 213t-223 81t-221 -81q-84 -81 -84 -210zM528 1077q94 0 179 -33h387v-90h-41q-86 0 -135 4l-91 7l-4 -4q125 -91 125 -265t-110 -284t-275 -109q-121 0 -189 -33t-67 -84q0 -70 170 -98l342 -61q143 -25 199 -80t55 -158q0 -147 -134 -237q-135 -90 -363 -91
q-228 0 -359 76t-131 209q0 96 82 172t199 92v4q-166 41 -166 158q0 63 49 104t139 54v4q-268 74 -268 348q0 170 113 283q114 112 294 112z" />
    <glyph glyph-name="Gcommaaccent" unicode="&#x122;" horiz-adv-x="1478" 
d="M743 -174q0 72 87 72q40 0 69 -40t29 -108t-42 -148t-106 -134l-45 45q90 88 90 142t-41 99t-41 72zM874 1458q207 0 418 -67v-277h-106v199q-119 47 -301 47q-303 0 -479 -176t-176 -473t167 -467q168 -170 457 -170q156 0 291 32l8 402h-182v90h456v-90h-167l-9 -477
q-264 -55 -409 -56q-340 0 -534 197t-194 541q0 345 208 545t552 200z" />
    <glyph glyph-name="gcommaaccent" unicode="&#x123;" horiz-adv-x="1099" 
d="M657 1314q1 -30 -23 -50t-64 -19q-40 0 -68 40t-29 107q0 66 43 148t105 135l45 -45q-90 -88 -90 -142t40 -99q41 -45 41 -75zM193 -246q-1 -82 107 -142t280 -60t279 60q108 62 108 169q0 82 -65 119q-65 38 -243 62t-188 26q-131 -25 -205 -88q-73 -64 -73 -146z
M227 688q0 -129 85 -212q84 -83 226 -83t223 80t81 212t-87 213t-223 81t-221 -81q-84 -81 -84 -210zM528 1077q94 0 179 -33h387v-90h-41q-86 0 -135 4l-91 7l-4 -4q125 -91 125 -265t-110 -284t-275 -109q-121 0 -189 -33t-67 -84q0 -70 170 -98l342 -61q143 -25 199 -80
t55 -158q0 -147 -134 -237q-135 -90 -363 -91q-228 0 -359 76t-131 209q0 96 82 172t199 92v4q-166 41 -166 158q0 63 49 104t139 54v4q-268 74 -268 348q0 170 113 283q114 112 294 112z" />
    <glyph glyph-name="Hcircumflex" unicode="&#x124;" horiz-adv-x="1593" 
d="M492 1563l258 282h98l250 -282l-72 -62l-227 262l-240 -262zM102 1434h459v-91h-172l-4 -585h823l4 585h-180v91h459v-91h-164l-8 -1253h172v-90h-459v90h172l4 578h-823l-4 -578h180v-90h-459v90h164l8 1253h-172v91z" />
    <glyph glyph-name="hcircumflex" unicode="&#x125;" horiz-adv-x="1327" 
d="M227 1665l258 283h99l250 -283l-72 -61l-227 262l-240 -262zM698 979q-145 0 -241 -114t-99 -290l-4 -485h166v-90h-430v90h158l8 1395h-233v90h339l-4 -569q-2 -119 -22 -205h4q86 277 402 277q163 0 250 -102q87 -101 87 -325l-8 -561h166v-90h-430v90h158l8 555
q0 178 -65 256t-210 78z" />
    <glyph glyph-name="Hbar" unicode="&#x126;" horiz-adv-x="1593" 
d="M387 1053l-2 -295h823l2 295h-823zM102 1434h459v-91h-172l-2 -200h823l2 200h-180v91h459v-91h-164l-8 -1253h172v-90h-459v90h172l4 578h-823l-4 -578h180v-90h-459v90h164l8 1253h-172v91z" />
    <glyph glyph-name="hbar" unicode="&#x127;" horiz-adv-x="1327" 
d="M23 1575h339l-2 -221h334v-90h-334l-2 -258q-2 -119 -22 -205h4q41 133 140 205t245 71q360 0 354 -426l-8 -561h166v-90h-430v90h158l8 555q2 176 -64 255t-211 79t-241 -111t-99 -286l-4 -492h166v-90h-430v90h158l6 1174h-158v90h160v131h-233v90z" />
    <glyph glyph-name="Itilde" unicode="&#x128;" horiz-adv-x="684" 
d="M207 1780q72 0 160 -54t118 -53q63 0 127 92l72 -53q-76 -137 -207 -137q-59 0 -146 53t-120 53q-63 0 -127 -98l-80 53q82 144 203 144zM117 1434h450v-91h-164l-8 -1253h172v-90h-450v90h164l8 1253h-172v91z" />
    <glyph glyph-name="itilde" unicode="&#x129;" horiz-adv-x="606" 
d="M135 1524q70 0 159 -54t120 -53q63 0 127 92l71 -53q-76 -137 -206 -137q-56 0 -144 53t-123 53q-63 0 -127 -98l-80 53q82 144 203 144zM49 1053h309l-6 -963h189v-90h-475v90h180l6 873h-203v90z" />
    <glyph glyph-name="Imacron" unicode="&#x12a;" horiz-adv-x="684" 
d="M68 1729h536v-91h-536v91zM117 1434h450v-91h-164l-8 -1253h172v-90h-450v90h164l8 1253h-172v91z" />
    <glyph glyph-name="imacron" unicode="&#x12b;" horiz-adv-x="606" 
d="M16 1473h537v-91h-537v91zM49 1053h309l-6 -963h189v-90h-475v90h180l6 873h-203v90z" />
    <glyph glyph-name="Iogonek" unicode="&#x12e;" horiz-adv-x="684" 
d="M117 1434h450v-91h-164l-8 -1253h172v-90h-118q-150 -115 -150 -252q0 -109 113 -108q33 0 88 10l20 -70q-82 -14 -131 -14q-96 0 -146 45t-50 115t51 148q51 79 123 126h-250v90h164l8 1253h-172v91z" />
    <glyph glyph-name="iogonek" unicode="&#x12f;" horiz-adv-x="606" 
d="M49 1053h309l-6 -963h189v-90h-142q-150 -119 -149 -252q0 -109 110 -108q49 0 91 10l20 -70q-82 -14 -129 -14q-96 0 -147 45t-51 113t49 146q49 77 124 130h-251v90h180l6 873h-203v90zM297 1561q43 0 71 -31t28 -76t-28 -76q-28 -30 -71 -30t-71 30t-27 76q0 45 27 76
q28 31 71 31z" />
    <glyph glyph-name="Idotaccent" unicode="&#x130;" horiz-adv-x="684" 
d="M338 1763q38 -1 64 -29t26 -69t-26 -70t-64 -29t-65 28q-25 28 -25 70t25 71q26 28 65 28zM117 1434h450v-91h-164l-8 -1253h172v-90h-450v90h164l8 1253h-172v91z" />
    <glyph glyph-name="dotlessi" unicode="&#x131;" horiz-adv-x="606" 
d="M49 1053h309l-6 -963h189v-90h-475v90h180l6 873h-203v90z" />
    <glyph glyph-name="Jcircumflex" unicode="&#x134;" horiz-adv-x="645" 
d="M20 1563l259 282h98l250 -282l-72 -62l-227 262l-240 -262zM96 1434h451v-91h-164l-10 -972q-4 -273 -115 -449t-348 -274l-33 90q199 98 290 249t93 363l8 993h-172v91z" />
    <glyph glyph-name="jcircumflex" unicode="&#x135;" horiz-adv-x="645" 
d="M-35 1307l258 282h99l249 -282l-71 -62l-228 262l-239 -262zM100 1053h310l-11 -949q-1 -293 -121 -440t-366 -203l-16 93q135 30 222 96t131 182t46 338l8 793h-203v90z" />
    <glyph glyph-name="Kcommaaccent" unicode="&#x136;" horiz-adv-x="1402" 
d="M625 -174q0 72 87 72q40 0 68 -40t29 -108q0 -68 -42 -148t-105 -134l-46 45q90 88 90 142t-40 99q-41 45 -41 72zM102 1434h451v-91h-164l-4 -581l678 581h-178v91h450v-91h-133l-694 -602l694 -651h141v-90h-466v90h178l-670 617l-4 -617h172v-90h-451v90h164l8 1253
h-172v91z" />
    <glyph glyph-name="kcommaaccent" unicode="&#x137;" horiz-adv-x="1175" 
d="M514 -174q0 72 87 72q40 0 69 -40q28 -40 28 -108t-42 -148t-105 -134l-45 45q90 88 90 142t-41 99t-41 72zM23 1575h339l-4 -993l451 376v5h-152v90h410v-90h-125l-465 -396l522 -477h113v-90h-405v90h147l-496 449l-4 -449h166v-90h-430v90h158l8 1395h-233v90z" />
    <glyph glyph-name="Lacute" unicode="&#x139;" 
d="M139 1552l357 314l69 -64l-354 -305zM102 1434h451v-91h-164l-8 -1253h567l17 213h98l-16 -303h-945v90h164l8 1253h-172v91z" />
    <glyph glyph-name="lacute" unicode="&#x13a;" horiz-adv-x="647" 
d="M119 1716l356 314l70 -64l-355 -305zM41 1575h340l-8 -1485h182v-90h-463v90h174l8 1395h-233v90z" />
    <glyph glyph-name="Lcommaaccent" unicode="&#x13b;" 
d="M512 -174q0 72 87 72q40 0 69 -40q28 -40 28 -108t-42 -148t-105 -134l-45 45q90 88 90 142t-41 99t-41 72zM102 1434h451v-91h-164l-8 -1253h567l17 213h98l-16 -303h-945v90h164l8 1253h-172v91z" />
    <glyph glyph-name="lcommaaccent" unicode="&#x13c;" horiz-adv-x="647" 
d="M227 -174q0 72 87 72q40 0 69 -40t29 -108t-42 -148t-106 -134l-45 45q90 88 90 142t-41 99t-41 72zM41 1575h340l-8 -1485h182v-90h-463v90h174l8 1395h-233v90z" />
    <glyph glyph-name="Lcaron" unicode="&#x13d;" 
d="M678 1382q0 72 84 72q43 0 72 -40q28 -40 28 -108t-42 -147q-42 -80 -105 -135l-45 45q90 89 90 143t-41 99t-41 71zM102 1434h451v-91h-164l-8 -1253h567l17 213h98l-16 -303h-945v90h164l8 1253h-172v91z" />
    <glyph glyph-name="lcaron" unicode="&#x13e;" horiz-adv-x="647" 
d="M621 1454q40 0 69 -41t29 -107t-42 -147q-42 -80 -106 -135l-45 45q90 89 90 143t-41 99t-41 75t24 48q23 20 63 20zM41 1575h340l-8 -1485h182v-90h-463v90h174l8 1395h-233v90z" />
    <glyph glyph-name="Ldot" unicode="&#x13f;" 
d="M758 797q38 0 64 -29t26 -70q0 -42 -26 -70t-64 -28t-65 28q-25 28 -25 70t25 70q26 29 65 29zM102 1434h451v-91h-164l-8 -1253h567l17 213h98l-16 -303h-945v90h164l8 1253h-172v91z" />
    <glyph glyph-name="ldot" unicode="&#x140;" horiz-adv-x="647" 
d="M616 797q39 0 65 -29t26 -70q0 -42 -26 -70t-65 -28q-38 0 -64 28t-26 70t26 70q26 29 64 29zM41 1575h340l-8 -1485h182v-90h-463v90h174l8 1395h-233v90z" />
    <glyph glyph-name="Lslash" unicode="&#x141;" 
d="M102 1434h451v-91h-164l-4 -501l340 258v-107l-340 -258l-4 -645h567l17 213h98l-16 -303h-945v90h164l4 557l-213 -164v107l213 166l4 587h-172v91z" />
    <glyph glyph-name="lslash" unicode="&#x142;" horiz-adv-x="647" 
d="M41 1575h340l-4 -653l223 172v-99l-223 -172l-4 -733h182v-90h-463v90h174l4 651l-207 -159v98l207 160l4 645h-233v90z" />
    <glyph glyph-name="Nacute" unicode="&#x143;" horiz-adv-x="1630" 
d="M621 1552l356 314l70 -64l-355 -305zM63 1434h312l866 -1186q23 -33 49 -86h4l6 1181h-200v91h467v-91h-158l-10 -1343h-115l-872 1196q-23 31 -43 76h-4l-9 -1182h189v-90h-461v90h166l8 1253h-195v91z" />
    <glyph glyph-name="nacute" unicode="&#x144;" horiz-adv-x="1327" 
d="M467 1296l356 314l70 -64l-354 -305zM725 1077q360 0 354 -413l-8 -574h166v-90h-430v90h158l8 555q2 174 -64 254t-211 80t-241 -114t-99 -290l-4 -485h166v-90h-430v90h158l4 873h-184v90h292q0 -113 -24 -252h4q41 133 140 205q100 71 245 71z" />
    <glyph glyph-name="Ncommaaccent" unicode="&#x145;" horiz-adv-x="1630" 
d="M727 -174q0 72 87 72q40 0 69 -40t29 -108t-43 -148q-42 -80 -105 -134l-45 45q90 88 90 142t-41 99t-41 72zM63 1434h312l866 -1186q23 -33 49 -86h4l6 1181h-200v91h467v-91h-158l-10 -1343h-115l-872 1196q-23 31 -43 76h-4l-9 -1182h189v-90h-461v90h166l8 1253h-195
v91z" />
    <glyph glyph-name="ncommaaccent" unicode="&#x146;" horiz-adv-x="1327" 
d="M588 -174q0 72 87 72q41 0 69 -40t28 -108t-42 -148t-105 -134l-45 45q90 88 90 142t-41 99t-41 72zM725 1077q360 0 354 -413l-8 -574h166v-90h-430v90h158l8 555q2 174 -64 254t-211 80t-241 -114t-99 -290l-4 -485h166v-90h-430v90h158l4 873h-184v90h292
q0 -113 -24 -252h4q41 133 140 205q100 71 245 71z" />
    <glyph glyph-name="Ncaron" unicode="&#x147;" horiz-adv-x="1630" 
d="M543 1794l71 61l228 -262l239 262l68 -61l-258 -283h-98zM63 1434h312l866 -1186q23 -33 49 -86h4l6 1181h-200v91h467v-91h-158l-10 -1343h-115l-872 1196q-23 31 -43 76h-4l-9 -1182h189v-90h-461v90h166l8 1253h-195v91z" />
    <glyph glyph-name="ncaron" unicode="&#x148;" horiz-adv-x="1327" 
d="M371 1528l71 61l228 -262l239 262l68 -61l-258 -283h-98zM725 1077q360 0 354 -413l-8 -574h166v-90h-430v90h158l8 555q2 174 -64 254t-211 80t-241 -114t-99 -290l-4 -485h166v-90h-430v90h158l4 873h-184v90h292q0 -113 -24 -252h4q41 133 140 205q100 71 245 71z" />
    <glyph glyph-name="napostrophe" unicode="&#x149;" horiz-adv-x="1327" 
d="M-96 1380q0 72 84 72q44 0 72 -40t28 -108t-42 -147q-42 -80 -105 -135l-45 45q90 89 90 143t-41 99t-41 71zM725 1077q360 0 354 -413l-8 -574h166v-90h-430v90h158l8 555q2 174 -64 254t-211 80t-241 -114t-99 -290l-4 -485h166v-90h-430v90h158l4 873h-184v90h292
q0 -113 -24 -252h4q41 133 140 205q100 71 245 71z" />
    <glyph glyph-name="Omacron" unicode="&#x14c;" horiz-adv-x="1552" 
d="M504 1729h536v-91h-536v91zM229 717q1 -305 145 -474t401 -169t403 170q145 170 145 474t-145 473q-146 169 -402 169t-402 -169t-145 -474zM115 710q0 348 174 548t490 200t488 -192q171 -193 171 -543t-174 -549t-490 -199t-488 193q-171 193 -171 542z" />
    <glyph glyph-name="omacron" unicode="&#x14d;" horiz-adv-x="1175" 
d="M319 1473h537v-91h-537v91zM587 979q-175 0 -275 -122t-99 -332q0 -211 99 -331q100 -120 276 -120t275 121t99 331t-100 332q-100 121 -275 121zM587 1077q222 1 356 -151t134 -401t-132 -399t-356 -151q-224 0 -358 153q-133 152 -133 398t133 399q134 152 356 152z
" />
    <glyph glyph-name="Obreve" unicode="&#x14e;" horiz-adv-x="1552" 
d="M774 1636q160 0 209 217l94 -32q-59 -274 -299 -274t-307 274l94 32q49 -217 209 -217zM229 717q1 -305 145 -474t401 -169t403 170q145 170 145 474t-145 473q-146 169 -402 169t-402 -169t-145 -474zM115 710q0 348 174 548t490 200t488 -192q171 -193 171 -543
t-174 -549t-490 -199t-488 193q-171 193 -171 542z" />
    <glyph glyph-name="obreve" unicode="&#x14f;" horiz-adv-x="1175" 
d="M592 1380q158 0 207 217l94 -32q-59 -274 -303 -275q-114 0 -190 62t-113 213l94 32q53 -217 211 -217zM587 979q-175 0 -275 -122t-99 -332q0 -211 99 -331q100 -120 276 -120t275 121t99 331t-100 332q-100 121 -275 121zM587 1077q222 1 356 -151t134 -401t-132 -399
t-356 -151q-224 0 -358 153q-133 152 -133 398t133 399q134 152 356 152z" />
    <glyph glyph-name="Ohungarumlaut" unicode="&#x150;" horiz-adv-x="1552" 
d="M856 1552l356 314l70 -64l-354 -305zM446 1552l357 314l69 -64l-354 -305zM229 717q1 -305 145 -474t401 -169t403 170q145 170 145 474t-145 473q-146 169 -402 169t-402 -169t-145 -474zM115 710q0 348 174 548t490 200t488 -192q171 -193 171 -543t-174 -549
t-490 -199t-488 193q-171 193 -171 542z" />
    <glyph glyph-name="ohungarumlaut" unicode="&#x151;" horiz-adv-x="1175" 
d="M649 1296l357 314l69 -64l-354 -305zM240 1296l356 314l70 -64l-355 -305zM587 979q-175 0 -275 -122t-99 -332q0 -211 99 -331q100 -120 276 -120t275 121t99 331t-100 332q-100 121 -275 121zM587 1077q222 1 356 -151t134 -401t-132 -399t-356 -151q-224 0 -358 153
q-133 152 -133 398t133 399q134 152 356 152z" />
    <glyph glyph-name="OE" unicode="&#x152;" horiz-adv-x="2086" 
d="M856 1360q-291 0 -459 -174t-168 -477t163 -469t466 -166q166 0 270 16l9 1251q-171 19 -281 19zM860 1458q104 0 318 -26h745v-285h-90v194h-582l-4 -571h533v-90h-533l-4 -590h602l17 213h98l-16 -303h-760q-227 -25 -361 -25q-340 1 -524 191t-184 542q1 352 199 550
q198 200 546 200z" />
    <glyph glyph-name="oe" unicode="&#x153;" horiz-adv-x="1857" 
d="M1334 979q-150 0 -236 -92t-88 -260h635q-2 170 -82 261t-229 91zM213 526q0 -208 97 -330t263 -122q330 0 330 426v24q0 203 -29 277q-70 178 -296 178q-168 0 -266 -122t-99 -331zM588 1077q258 0 375 -239h4q47 115 144 177t226 62q422 0 422 -540h-749v-131
q0 -148 99 -240t253 -92t338 76v-99q-180 -76 -341 -76t-272 75t-135 200h-4q-35 -123 -134 -199t-234 -76q-219 0 -351 153q-131 152 -131 398t133 399q134 152 357 152z" />
    <glyph glyph-name="Racute" unicode="&#x154;" horiz-adv-x="1327" 
d="M406 1552l356 314l69 -64l-354 -305zM590 750q147 0 247 81q99 82 99 228q0 145 -86 215t-266 69h-195l-4 -593h205zM102 1434h488q461 0 461 -367q-1 -162 -99 -264t-235 -117v-4q84 -14 170 -158l160 -266q67 -112 97 -140t78 -28t81 8v-98q-106 -8 -109 -8
q-68 0 -104 20t-78 90l-226 377q-68 115 -115 144q-48 29 -124 28h-162l-4 -561h186v-90h-465v90h164l8 1253h-172v91z" />
    <glyph glyph-name="racute" unicode="&#x155;" horiz-adv-x="872" 
d="M336 1296l356 314l70 -64l-354 -305zM727 1077q55 0 147 -22l-16 -103q-59 27 -129 27q-141 0 -245 -158t-105 -352l-4 -379h196v-90h-471v90h170l6 873h-198v90h309q0 -131 -16 -338h4q49 174 140 268t212 94z" />
    <glyph glyph-name="Rcommaaccent" unicode="&#x156;" horiz-adv-x="1327" 
d="M586 -174q0 72 87 72q41 0 69 -40t28 -108t-42 -148t-105 -134l-45 45q90 88 90 142t-41 99t-41 72zM590 750q147 0 247 81q99 82 99 228q0 145 -86 215t-266 69h-195l-4 -593h205zM102 1434h488q461 0 461 -367q-1 -162 -99 -264t-235 -117v-4q84 -14 170 -158l160 -266
q67 -112 97 -140t78 -28t81 8v-98q-106 -8 -109 -8q-68 0 -104 20t-78 90l-226 377q-68 115 -115 144q-48 29 -124 28h-162l-4 -561h186v-90h-465v90h164l8 1253h-172v91z" />
    <glyph glyph-name="rcommaaccent" unicode="&#x157;" horiz-adv-x="872" 
d="M244 -174q0 72 87 72q41 0 69 -40t28 -108t-42 -148t-105 -134l-45 45q90 88 90 142t-41 99t-41 72zM727 1077q55 0 147 -22l-16 -103q-59 27 -129 27q-141 0 -245 -158t-105 -352l-4 -379h196v-90h-471v90h170l6 873h-198v90h309q0 -131 -16 -338h4q49 174 140 268
t212 94z" />
    <glyph glyph-name="Rcaron" unicode="&#x158;" horiz-adv-x="1327" 
d="M307 1794l72 61l227 -262l240 262l67 -61l-258 -283h-98zM590 750q147 0 247 81q99 82 99 228q0 145 -86 215t-266 69h-195l-4 -593h205zM102 1434h488q461 0 461 -367q-1 -162 -99 -264t-235 -117v-4q84 -14 170 -158l160 -266q67 -112 97 -140t78 -28t81 8v-98
q-106 -8 -109 -8q-68 0 -104 20t-78 90l-226 377q-68 115 -115 144q-48 29 -124 28h-162l-4 -561h186v-90h-465v90h164l8 1253h-172v91z" />
    <glyph glyph-name="rcaron" unicode="&#x159;" horiz-adv-x="872" 
d="M170 1528l72 61l227 -262l240 262l67 -61l-258 -283h-98zM727 1077q55 0 147 -22l-16 -103q-59 27 -129 27q-141 0 -245 -158t-105 -352l-4 -379h196v-90h-471v90h170l6 873h-198v90h309q0 -131 -16 -338h4q49 174 140 268t212 94z" />
    <glyph glyph-name="Sacute" unicode="&#x15a;" horiz-adv-x="1175" 
d="M446 1552l357 314l69 -64l-354 -305zM160 1048q0 188 129 298q129 112 331 112t386 -65l4 -263h-99l-4 189q-123 41 -281 41t-254 -80q-98 -80 -98 -194t70 -181t264 -119t273 -96q184 -100 184 -319q0 -180 -132 -288t-352 -108t-427 68l-4 281h106l4 -197
q137 -53 313 -53t277 80q100 80 100 205t-72 193t-235 112q-236 63 -313 104q-170 92 -170 280z" />
    <glyph glyph-name="sacute" unicode="&#x15b;" horiz-adv-x="985" 
d="M324 1296l356 314l70 -64l-355 -305zM106 794q0 116 102 200q102 83 272 83q169 0 313 -65l4 -240h-99l-4 170q-80 45 -209 45t-197 -51t-67 -143q0 -154 178 -193l187 -41q147 -33 211 -97q63 -65 63 -171q0 -154 -103 -235t-305 -81t-333 70l-8 254h100l4 -178
q87 -55 235 -55t222 59t74 143t-43 126q-42 42 -148 69l-162 39q-155 36 -221 106t-66 186z" />
    <glyph glyph-name="Scircumflex" unicode="&#x15c;" horiz-adv-x="1175" 
d="M324 1563l258 282h98l250 -282l-72 -62l-227 262l-240 -262zM160 1048q0 188 129 298q129 112 331 112t386 -65l4 -263h-99l-4 189q-123 41 -281 41t-254 -80q-98 -80 -98 -194t70 -181t264 -119t273 -96q184 -100 184 -319q0 -180 -132 -288t-352 -108t-427 68l-4 281
h106l4 -197q137 -53 313 -53t277 80q100 80 100 205t-72 193t-235 112q-236 63 -313 104q-170 92 -170 280z" />
    <glyph glyph-name="scircumflex" unicode="&#x15d;" horiz-adv-x="985" 
d="M182 1307l258 282h99l249 -282l-71 -62l-228 262l-239 -262zM106 794q0 116 102 200q102 83 272 83q169 0 313 -65l4 -240h-99l-4 170q-80 45 -209 45t-197 -51t-67 -143q0 -154 178 -193l187 -41q147 -33 211 -97q63 -65 63 -171q0 -154 -103 -235t-305 -81t-333 70
l-8 254h100l4 -178q87 -55 235 -55t222 59t74 143t-43 126q-42 42 -148 69l-162 39q-155 36 -221 106t-66 186z" />
    <glyph glyph-name="Scedilla" unicode="&#x15e;" horiz-adv-x="1175" 
d="M573 74q176 0 277 80q100 80 100 205t-72 193t-235 112q-236 63 -313 104q-170 92 -170 280t129 299t331 111t386 -65l4 -263h-99l-4 189q-123 41 -281 41t-254 -80q-98 -80 -98 -194t70 -181t264 -119t273 -96q184 -100 184 -319q0 -174 -125 -282t-342 -112v-108h14
q74 0 118 -39q44 -40 44 -108t-50 -113t-154 -45t-197 37l14 73q82 -37 164 -36q117 0 117 81q0 39 -29 57t-100 19h-23v185q-194 10 -362 63l-4 281h106l4 -197q137 -53 313 -53z" />
    <glyph glyph-name="scedilla" unicode="&#x15f;" horiz-adv-x="985" 
d="M450 66q148 0 222 59t74 143t-43 126q-42 42 -148 69l-162 39q-155 36 -221 106t-66 186t102 200q102 83 272 83q169 0 313 -65l4 -240h-99l-4 170q-80 45 -209 45t-197 -51t-67 -143q0 -154 178 -193l187 -41q147 -33 211 -97q63 -65 63 -171q0 -299 -375 -314v-108h15
q74 0 118 -39q44 -40 44 -108t-50 -113t-156 -45q-104 0 -196 37l14 73q82 -37 162 -36q119 0 119 81q0 39 -29 57t-100 19h-23v185q-167 10 -284 65l-8 254h100l4 -178q87 -55 235 -55z" />
    <glyph glyph-name="Scaron" unicode="&#x160;" horiz-adv-x="1175" 
d="M326 1794l71 61l228 -262l239 262l68 -61l-258 -283h-99zM160 1048q0 188 129 298q129 112 331 112t386 -65l4 -263h-99l-4 189q-123 41 -281 41t-254 -80q-98 -80 -98 -194t70 -181t264 -119t273 -96q184 -100 184 -319q0 -180 -132 -288t-352 -108t-427 68l-4 281h106
l4 -197q137 -53 313 -53t277 80q100 80 100 205t-72 193t-235 112q-236 63 -313 104q-170 92 -170 280z" />
    <glyph glyph-name="scaron" unicode="&#x161;" horiz-adv-x="985" 
d="M188 1528l72 61l227 -262l240 262l68 -61l-258 -283h-99zM106 794q0 116 102 200q102 83 272 83q169 0 313 -65l4 -240h-99l-4 170q-80 45 -209 45t-197 -51t-67 -143q0 -154 178 -193l187 -41q147 -33 211 -97q63 -65 63 -171q0 -154 -103 -235t-305 -81t-333 70l-8 254
h100l4 -178q87 -55 235 -55t222 59t74 143t-43 126q-42 42 -148 69l-162 39q-155 36 -221 106t-66 186z" />
    <glyph glyph-name="Tcommaaccent" unicode="&#x162;" horiz-adv-x="1368" 
d="M606 -174q0 72 87 72q40 0 69 -40t29 -108t-42 -148t-106 -134l-45 45q90 88 90 142t-41 99t-41 72zM926 90v-90h-484v90h181l8 1253h-459l-8 -231h-98l8 322h1220l9 -322h-99l-8 231h-451l-8 -1253h189z" />
    <glyph glyph-name="tcommaaccent" unicode="&#x163;" horiz-adv-x="796" 
d="M383 -174q0 72 87 72q40 0 69 -40t29 -108t-43 -148q-42 -80 -105 -134l-45 45q90 88 90 142t-41 99t-41 72zM719 1053v-90h-350l-4 -621q-2 -166 41 -221q44 -55 148 -55t222 59l-10 -96q-111 -53 -242 -54q-266 0 -266 306q0 375 4 682h-184v90h184l4 274l107 8
l-4 -282h350z" />
    <glyph glyph-name="Tcaron" unicode="&#x164;" horiz-adv-x="1368" 
d="M389 1794l72 61l227 -262l240 262l67 -61l-258 -283h-98zM926 90v-90h-484v90h181l8 1253h-459l-8 -231h-98l8 322h1220l9 -322h-99l-8 231h-451l-8 -1253h189z" />
    <glyph glyph-name="tcaron" unicode="&#x165;" horiz-adv-x="796" 
d="M520 1524q0 71 87 71q40 0 69 -40q29 -39 29 -107t-42 -148t-106 -135l-45 45q90 88 90 142t-41 100q-41 45 -41 72zM719 1053v-90h-350l-4 -621q-2 -166 41 -221q44 -55 148 -55t222 59l-10 -96q-111 -53 -242 -54q-266 0 -266 306q0 375 4 682h-184v90h184l4 274l107 8
l-4 -282h350z" />
    <glyph glyph-name="Tbar" unicode="&#x166;" horiz-adv-x="1368" 
d="M1065 971v-99h-324l-4 -782h189v-90h-484v90h181l4 782h-324v99h326l2 372h-459l-8 -231h-98l8 322h1220l9 -322h-99l-8 231h-451l-2 -372h322z" />
    <glyph glyph-name="tbar" unicode="&#x167;" horiz-adv-x="796" 
d="M719 1053v-90h-350l-4 -250h294v-90h-294v-308q-1 -137 39 -193t152 -56t220 59l-10 -96q-96 -53 -242 -54q-266 0 -266 306v342h-135v90h135l4 250h-184v90h184l4 274l107 8l-4 -282h350z" />
    <glyph glyph-name="Utilde" unicode="&#x168;" horiz-adv-x="1556" 
d="M655 1780q74 0 162 -54t117 -53q63 0 127 92l72 -53q-76 -137 -207 -137q-58 0 -146 53t-121 53q-63 0 -127 -98l-79 53q81 144 202 144zM786 74q158 0 242 42t125 154t43 328l8 745h-180v91h457v-91h-162l-8 -794q-4 -395 -213 -508q-121 -66 -322 -66q-200 1 -316 61
t-163 172t-47 338t8 797h-182v91h465v-91h-168l-8 -778q1 -285 83 -388t338 -103z" />
    <glyph glyph-name="utilde" unicode="&#x169;" horiz-adv-x="1327" 
d="M526 1524q70 0 159 -54t120 -53q63 0 127 92l72 -53q-76 -137 -207 -137q-55 0 -143 53t-124 53q-63 0 -127 -98l-79 53q81 144 202 144zM78 1053h287l-9 -645q-2 -178 64 -256t218 -78t240 112q87 112 91 318l8 459h-189v90h295l-8 -963h164v-90h-268q0 113 24 252h-4
q-37 -125 -137 -201t-229 -76q-193 -1 -285 103t-90 323l8 562h-180v90z" />
    <glyph glyph-name="Umacron" unicode="&#x16a;" horiz-adv-x="1556" 
d="M516 1729h537v-91h-537v91zM786 74q158 0 242 42t125 154t43 328l8 745h-180v91h457v-91h-162l-8 -794q-4 -395 -213 -508q-121 -66 -322 -66q-200 1 -316 61t-163 172t-47 338t8 797h-182v91h465v-91h-168l-8 -778q1 -285 83 -388t338 -103z" />
    <glyph glyph-name="umacron" unicode="&#x16b;" horiz-adv-x="1327" 
d="M395 1473h537v-91h-537v91zM78 1053h287l-9 -645q-2 -178 64 -256t218 -78t240 112q87 112 91 318l8 459h-189v90h295l-8 -963h164v-90h-268q0 113 24 252h-4q-37 -125 -137 -201t-229 -76q-193 -1 -285 103t-90 323l8 562h-180v90z" />
    <glyph glyph-name="Ubreve" unicode="&#x16c;" horiz-adv-x="1556" 
d="M793 1636q160 0 208 217l95 -32q-59 -274 -300 -274t-307 274l95 32q49 -217 209 -217zM786 74q158 0 242 42t125 154t43 328l8 745h-180v91h457v-91h-162l-8 -794q-4 -395 -213 -508q-121 -66 -322 -66q-200 1 -316 61t-163 172t-47 338t8 797h-182v91h465v-91h-168
l-8 -778q1 -285 83 -388t338 -103z" />
    <glyph glyph-name="ubreve" unicode="&#x16d;" horiz-adv-x="1327" 
d="M659 1380q160 0 209 217l95 -32q-59 -274 -304 -275q-115 0 -191 62t-112 213l95 32q53 -217 208 -217zM78 1053h287l-9 -645q-2 -178 64 -256t218 -78t240 112q87 112 91 318l8 459h-189v90h295l-8 -963h164v-90h-268q0 113 24 252h-4q-37 -125 -137 -201t-229 -76
q-193 -1 -285 103t-90 323l8 562h-180v90z" />
    <glyph glyph-name="Uring" unicode="&#x16e;" horiz-adv-x="1556" 
d="M680 1681q0 -49 29 -81t75 -31q46 0 76 32q29 33 29 81t-29 80t-76 32q-48 0 -76 -32t-28 -81zM784 1868q78 0 132 -54t54 -132t-54 -133q-54 -54 -132 -54t-132 54t-54 132q0 79 54 133t132 54zM786 74q158 0 242 42t125 154t43 328l8 745h-180v91h457v-91h-162l-8 -794
q-4 -395 -213 -508q-121 -66 -322 -66q-200 1 -316 61t-163 172t-47 338t8 797h-182v91h465v-91h-168l-8 -778q1 -285 83 -388t338 -103z" />
    <glyph glyph-name="uring" unicode="&#x16f;" horiz-adv-x="1327" 
d="M559 1424q0 -48 30 -80t76 -31q47 0 75 32q28 31 28 79t-30 81t-74 33t-75 -33q-30 -33 -30 -81zM664 1612q76 0 131 -54t55 -132t-54 -133q-54 -54 -132 -54t-133 55q-54 55 -54 131q-1 75 55 131t132 56zM78 1053h287l-9 -645q-2 -178 64 -256t218 -78t240 112
q87 112 91 318l8 459h-189v90h295l-8 -963h164v-90h-268q0 113 24 252h-4q-37 -125 -137 -201t-229 -76q-193 -1 -285 103t-90 323l8 562h-180v90z" />
    <glyph glyph-name="Uhungarumlaut" unicode="&#x170;" horiz-adv-x="1556" 
d="M862 1552l357 314l69 -64l-354 -305zM453 1552l356 314l70 -64l-355 -305zM786 74q158 0 242 42t125 154t43 328l8 745h-180v91h457v-91h-162l-8 -794q-4 -395 -213 -508q-121 -66 -322 -66q-200 1 -316 61t-163 172t-47 338t8 797h-182v91h465v-91h-168l-8 -778
q1 -285 83 -388t338 -103z" />
    <glyph glyph-name="uhungarumlaut" unicode="&#x171;" horiz-adv-x="1327" 
d="M731 1296l356 314l70 -64l-354 -305zM322 1296l356 314l70 -64l-355 -305zM78 1053h287l-9 -645q-2 -178 64 -256t218 -78t240 112q87 112 91 318l8 459h-189v90h295l-8 -963h164v-90h-268q0 113 24 252h-4q-37 -125 -137 -201t-229 -76q-193 -1 -285 103t-90 323l8 562
h-180v90z" />
    <glyph glyph-name="Uogonek" unicode="&#x172;" horiz-adv-x="1556" 
d="M786 74q158 0 242 42t125 154t43 328l8 745h-180v91h457v-91h-162l-8 -786q-2 -227 -51 -337t-146 -169q-205 -129 -205 -282q0 -53 31 -81t80 -28t90 10l20 -69q-72 -15 -150 -15t-127 45q-50 45 -50 121q0 115 133 236q-76 -12 -154 -13q-387 0 -485 233
q-47 112 -47 338t8 797h-182v91h465v-91h-168l-8 -778q1 -285 83 -388t338 -103z" />
    <glyph glyph-name="uogonek" unicode="&#x173;" horiz-adv-x="1327" 
d="M1239 0h-113q-150 -111 -149 -252q0 -109 110 -108q47 0 91 10l20 -70q-82 -14 -131 -14q-96 0 -146 45q-51 45 -51 116t50 145t124 128h-73q0 113 24 252h-4q-37 -125 -137 -201t-229 -76q-193 -1 -285 103t-90 323l8 562h-180v90h287l-9 -645q-2 -178 64 -256t218 -78
t240 112q87 112 91 318l8 459h-189v90h295l-8 -963h164v-90z" />
    <glyph glyph-name="Wcircumflex" unicode="&#x174;" horiz-adv-x="2162" 
d="M801 1563l258 282h98l250 -282l-72 -62l-227 262l-240 -262zM16 1434h445v-91h-168l373 -1150q14 -53 20 -78h4q4 25 23 69l350 873l-88 286h-162v91h442v-91h-165l356 -1142q12 -35 20 -86h4q6 25 19 61l409 1167h-190v91h438v-91h-141l-481 -1343h-129l-285 915h-4
l-361 -915h-131l-444 1343h-154v91z" />
    <glyph glyph-name="wcircumflex" unicode="&#x175;" horiz-adv-x="1705" 
d="M555 1307l258 282h98l250 -282l-71 -62l-228 262l-239 -262zM39 1053h397v-90h-151l284 -848h4l23 82l213 587l-61 179h-121v90h397v-90h-162l244 -750l24 -98h5l28 104l262 744h-155v90h397v-90h-135l-348 -963h-115l-197 590l-16 82h-4q-16 -55 -125 -363
q-108 -307 -111 -309h-106l-340 963h-131v90z" />
    <glyph glyph-name="Ycircumflex" unicode="&#x176;" horiz-adv-x="1441" 
d="M432 1563l258 282h98l250 -282l-71 -62l-228 262l-239 -262zM12 1434h441v-91h-154q20 -23 51 -63l387 -539l396 547q14 27 45 55h-189v91h441v-91h-136l-497 -704l-9 -549h179v-90h-459v90h168l6 549l-516 704h-154v91z" />
    <glyph glyph-name="ycircumflex" unicode="&#x177;" 
d="M283 1307l258 282h98l250 -282l-72 -62l-227 262l-240 -262zM10 1053h412v-90h-150l287 -785q12 -35 21 -69h4q2 31 16 67l274 787h-157v90h391v-90h-127l-365 -1022q-98 -274 -207 -377q-110 -102 -276 -103q-45 0 -123 17v100q80 -18 123 -18q125 0 198 60t124 185
l69 168l-377 990h-137v90z" />
    <glyph glyph-name="Ydieresis" unicode="&#x178;" horiz-adv-x="1441" 
d="M864 1665q0 41 26 69t65 29q38 -1 64 -29q25 -28 25 -69t-26 -70t-63 -29q-39 0 -65 30q-26 28 -26 69zM520 1763q39 -1 65 -29q25 -28 25 -69t-26 -70t-64 -29t-64 28t-26 70t26 70t64 29zM12 1434h441v-91h-154q20 -23 51 -63l387 -539l396 547q14 27 45 55h-189v91
h441v-91h-136l-497 -704l-9 -549h179v-90h-459v90h168l6 549l-516 704h-154v91z" />
    <glyph glyph-name="Zacute" unicode="&#x179;" horiz-adv-x="1327" 
d="M532 1552l357 314l69 -64l-354 -305zM1202 1434v-91l-901 -1204q-18 -25 -43 -49h836l8 227h98l-8 -317h-1067v90l903 1196q14 20 49 57h-821l-8 -221h-98l8 312h1044z" />
    <glyph glyph-name="zacute" unicode="&#x17a;" horiz-adv-x="1062" 
d="M383 1296l356 314l70 -64l-354 -305zM958 1053v-90l-665 -816q-27 -35 -53 -57h608l12 195h101l-17 -285h-829v90l667 817q33 39 52 56h-584l-8 -185h-101l13 275h804z" />
    <glyph glyph-name="Zdotaccent" unicode="&#x17b;" horiz-adv-x="1327" 
d="M715 1763q39 -1 65 -29t25 -69q0 -41 -26 -70q-27 -29 -65 -29t-64 28t-26 70t26 71q26 28 65 28zM1202 1434v-91l-901 -1204q-18 -25 -43 -49h836l8 227h98l-8 -317h-1067v90l903 1196q14 20 49 57h-821l-8 -221h-98l8 312h1044z" />
    <glyph glyph-name="zdotaccent" unicode="&#x17c;" horiz-adv-x="1062" 
d="M580 1507q38 -1 64 -29t26 -69t-26 -70t-64 -29t-65 28q-26 28 -26 70t26 70t65 29zM958 1053v-90l-665 -816q-27 -35 -53 -57h608l12 195h101l-17 -285h-829v90l667 817q33 39 52 56h-584l-8 -185h-101l13 275h804z" />
    <glyph glyph-name="Zcaron" unicode="&#x17d;" horiz-adv-x="1327" 
d="M362 1794l72 61l228 -262l239 262l68 -61l-258 -283h-99zM1202 1434v-91l-901 -1204q-18 -25 -43 -49h836l8 227h98l-8 -317h-1067v90l903 1196q14 20 49 57h-821l-8 -221h-98l8 312h1044z" />
    <glyph glyph-name="zcaron" unicode="&#x17e;" horiz-adv-x="1062" 
d="M229 1528l72 61l227 -262l240 262l68 -61l-258 -283h-99zM958 1053v-90l-665 -816q-27 -35 -53 -57h608l12 195h101l-17 -285h-829v90l667 817q33 39 52 56h-584l-8 -185h-101l13 275h804z" />
    <glyph glyph-name="florin" unicode="&#x192;" 
d="M897 1454q72 0 170 -18l-4 -97q-119 25 -172 25q-145 0 -224 -91t-92 -255l-14 -176h322v-90h-328l-47 -609q-20 -281 -118 -411t-281 -131q-51 0 -148 30l12 97q51 -29 133 -29q262 0 293 371l56 682h-234v90h242l14 180q35 432 420 432z" />
    <glyph glyph-name="Scommaaccent" unicode="&#x218;" horiz-adv-x="1175" 
d="M510 -174q0 72 87 72q40 0 69 -40q28 -40 28 -108t-42 -148t-105 -134l-45 45q90 88 90 142t-41 99t-41 72zM160 1048q0 188 129 298q129 112 331 112t386 -65l4 -263h-99l-4 189q-123 41 -281 41t-254 -80q-98 -80 -98 -194t70 -181t264 -119t273 -96q184 -100 184 -319
q0 -180 -132 -288t-352 -108t-427 68l-4 281h106l4 -197q137 -53 313 -53t277 80q100 80 100 205t-72 193t-235 112q-236 63 -313 104q-170 92 -170 280z" />
    <glyph glyph-name="scommaaccent" unicode="&#x219;" horiz-adv-x="985" 
d="M395 -174q0 72 87 72q40 0 69 -40t29 -108t-42 -148t-106 -134l-45 45q90 88 90 142t-41 99t-41 72zM106 794q0 116 102 200q102 83 272 83q169 0 313 -65l4 -240h-99l-4 170q-80 45 -209 45t-197 -51t-67 -143q0 -154 178 -193l187 -41q147 -33 211 -97q63 -65 63 -171
q0 -154 -103 -235t-305 -81t-333 70l-8 254h100l4 -178q87 -55 235 -55t222 59t74 143t-43 126q-42 42 -148 69l-162 39q-155 36 -221 106t-66 186z" />
    <glyph glyph-name="uni021A" unicode="&#x21a;" horiz-adv-x="1368" 
d="M606 -174q0 72 87 72q40 0 69 -40t29 -108t-42 -148t-106 -134l-45 45q90 88 90 142t-41 99t-41 72zM926 90v-90h-484v90h181l8 1253h-459l-8 -231h-98l8 322h1220l9 -322h-99l-8 231h-451l-8 -1253h189z" />
    <glyph glyph-name="uni021B" unicode="&#x21b;" horiz-adv-x="796" 
d="M383 -174q0 72 87 72q40 0 69 -40t29 -108t-43 -148q-42 -80 -105 -134l-45 45q90 88 90 142t-41 99t-41 72zM719 1053v-90h-350l-4 -621q-2 -166 41 -221q44 -55 148 -55t222 59l-10 -96q-111 -53 -242 -54q-266 0 -266 306q0 375 4 682h-184v90h184l4 274l107 8
l-4 -282h350z" />
    <glyph glyph-name="dotlessj" unicode="&#x237;" horiz-adv-x="645" 
d="M100 1053h310l-11 -949q-1 -293 -121 -440t-366 -203l-16 93q135 30 222 96t131 182t46 338l8 793h-203v90z" />
    <glyph glyph-name="circumflex" unicode="&#x2c6;" horiz-adv-x="569" 
d="M-18 1307l258 282h98l250 -282l-72 -62l-227 262l-240 -262z" />
    <glyph glyph-name="caron" unicode="&#x2c7;" horiz-adv-x="569" 
d="M-18 1528l71 61l228 -262l239 262l68 -61l-258 -283h-99z" />
    <glyph glyph-name="uni02C9" unicode="&#x2c9;" horiz-adv-x="569" 
d="M16 1473h537v-91h-537v91z" />
    <glyph glyph-name="breve" unicode="&#x2d8;" horiz-adv-x="569" 
d="M285 1380q160 0 209 217l94 -32q-59 -274 -303 -275q-115 0 -191 62t-112 213l94 32q55 -217 209 -217z" />
    <glyph glyph-name="dotaccent" unicode="&#x2d9;" horiz-adv-x="569" 
d="M285 1507q39 -1 65 -29t25 -69q0 -41 -26 -70q-27 -29 -65 -29t-64 28t-26 70t26 71q26 28 65 28z" />
    <glyph glyph-name="ring" unicode="&#x2da;" horiz-adv-x="569" 
d="M180 1424q0 -48 30 -80t76 -31q46 0 74 32q28 31 29 79q0 48 -30 81q-31 33 -75 33t-74 -33t-30 -81zM285 1612q76 0 131 -54t55 -132t-54 -133q-54 -54 -132 -54t-132 55t-55 131q0 75 56 131t131 56z" />
    <glyph glyph-name="ogonek" unicode="&#x2db;" horiz-adv-x="569" 
d="M313 -254q0 -53 31 -81q49 -44 170 -17l21 -70q-72 -14 -150 -14t-128 45t-50 116t50 145t126 130h82q-152 -117 -152 -254z" />
    <glyph glyph-name="tilde" unicode="&#x2dc;" horiz-adv-x="569" 
d="M147 1524q70 0 159 -54t120 -53q63 0 127 92l72 -53q-76 -137 -207 -137q-56 0 -144 53t-122 53q-63 0 -127 -98l-80 53q81 144 202 144z" />
    <glyph glyph-name="hungarumlaut" unicode="&#x2dd;" horiz-adv-x="569" 
d="M324 1296l356 314l70 -64l-355 -305zM-86 1296l356 314l70 -64l-354 -305z" />
    <glyph glyph-name="uni0394" unicode="&#x394;" horiz-adv-x="1327" 
d="M178 98h959q-51 139 -188 499t-294 806q-170 -496 -477 -1305zM1255 0h-1185v92l524 1389h145l516 -1385v-96z" />
    <glyph glyph-name="uni03A9" unicode="&#x3a9;" horiz-adv-x="1474" 
d="M141 770q0 294 171 488t428 194t424 -198t167 -478q1 -217 -71 -398t-199 -288h231l11 82h57l-8 -172h-441v68q152 110 236 290t84 410t-135 412q-134 182 -354 182t-360 -175t-140 -444q0 -201 87 -387t230 -286v-70h-438l-12 172h57l12 -82h240q-125 117 -201 300
t-76 380z" />
    <glyph glyph-name="uni03BC" unicode="&#x3bc;" horiz-adv-x="1327" 
d="M78 963v90h287q-9 -459 -9 -642t65 -260t213 -77t240 105t95 296l8 488h-189v90h295l-8 -963h164v-90h-268q0 113 24 252h-4q-39 -125 -138 -201t-228 -76q-84 0 -158 38t-111 100h-4q4 -41 4 -54l-4 -573h-104l2 940l8 537h-180z" />
    <glyph glyph-name="pi" unicode="&#x3c0;" horiz-adv-x="1140" 
d="M293 1053h821l-14 -101h-168v-723q0 -123 78 -196l-68 -51q-123 94 -123 268v702h-422v-325q0 -262 -12 -363q-18 -162 -100 -262l-86 37q96 145 96 346v567q-172 0 -244 -18l-16 74q90 45 258 45z" />
    <glyph glyph-name="endash" unicode="&#x2013;" horiz-adv-x="1024" 
d="M0 582h1024v-99h-1024v99z" />
    <glyph glyph-name="emdash" unicode="&#x2014;" horiz-adv-x="2048" 
d="M0 582h2048v-99h-2048v99z" />
    <glyph glyph-name="quoteleft" unicode="&#x2018;" horiz-adv-x="569" 
d="M293 1350q0 -42 45 -96t45 -86q-1 -32 -27 -54t-70 -22t-76 45t-32 116q0 182 164 338l49 -49q-41 -41 -69 -95t-29 -97z" />
    <glyph glyph-name="quoteright" unicode="&#x2019;" horiz-adv-x="569" 
d="M186 1514q0 32 27 54t71 23q44 0 76 -45t31 -116q0 -182 -164 -338l-49 49q41 41 70 95t28 97q0 43 -45 97q-45 52 -45 84z" />
    <glyph glyph-name="quotesinglbase" unicode="&#x201a;" horiz-adv-x="569" 
d="M186 96q0 32 27 54t71 22t76 -45t31 -117q0 -182 -164 -338l-49 49q41 41 70 95t28 98q0 43 -45 97t-45 85z" />
    <glyph glyph-name="quotedblleft" unicode="&#x201c;" horiz-adv-x="796" 
d="M328 1168q0 -32 -26 -54t-71 -22q-44 0 -76 45t-32 116q0 182 164 338l49 -49q-41 -41 -70 -95q-28 -54 -28 -97q0 -42 45 -96t45 -86zM575 1350q-1 -42 45 -96t46 -86t-27 -54t-71 -22t-76 45t-31 116q0 182 164 338l49 -49q-41 -41 -70 -95t-29 -97z" />
    <glyph glyph-name="quotedblright" unicode="&#x201d;" horiz-adv-x="796" 
d="M559 1333q0 43 -45 97t-45 84q1 32 27 54t70 23q44 0 76 -45t32 -116q0 -182 -164 -338l-49 49q41 41 69 95q29 54 29 97zM131 1514q1 32 27 54t70 23q44 0 76 -45t32 -116q0 -182 -164 -338l-49 49q41 41 70 95t28 97q0 43 -45 97q-45 52 -45 84z" />
    <glyph glyph-name="quotedblbase" unicode="&#x201e;" horiz-adv-x="796" 
d="M469 96q1 32 27 54t70 22t76 -45t32 -117q0 -182 -164 -338l-49 49q41 41 69 95t29 98q0 43 -45 97t-45 85zM131 96q1 32 27 54t70 22t76 -45t32 -117q0 -182 -164 -338l-49 49q41 41 70 95t28 98q0 43 -45 97t-45 85z" />
    <glyph glyph-name="dagger" unicode="&#x2020;" 
d="M1032 961v-91h-409l-5 -1269h-106l4 1269h-410v91h410l4 473h107l-4 -473h409z" />
    <glyph glyph-name="daggerdbl" unicode="&#x2021;" 
d="M1032 961v-91h-409l-2 -673h411v-91h-411l-3 -505h-106l2 505h-408v91h408l2 673h-410v91h410l4 473h107l-4 -473h409z" />
    <glyph glyph-name="bullet" unicode="&#x2022;" horiz-adv-x="1024" 
d="M513 1075q145 0 251 -105q106 -104 106 -252t-104 -254t-254 -106t-254 106t-104 252q0 148 106 254q107 105 253 105z" />
    <glyph glyph-name="ellipsis" unicode="&#x2026;" horiz-adv-x="2048" 
d="M1706 172q39 0 67 -29q27 -29 27 -69t-28 -70q-28 -29 -66 -29q-39 0 -67 29t-27 70q0 42 28 70t66 28zM1024 172q39 0 67 -29q27 -29 27 -69t-28 -70q-28 -29 -66 -29q-39 0 -67 29t-27 70q0 42 28 70t66 28zM342 172q39 0 67 -29q27 -29 27 -69t-28 -70
q-28 -29 -66 -29q-39 0 -67 29t-27 70q0 42 28 70t66 28z" />
    <glyph glyph-name="perthousand" unicode="&#x2030;" horiz-adv-x="2390" 
d="M1796 305q0 -111 57 -177t155 -67q98 0 153 68t55 179t-56 176t-152 65q-96 -1 -154 -67t-58 -177zM1073 305q0 -111 57 -177q56 -66 154 -67q98 0 154 68q55 68 55 179t-56 176q-55 65 -151 65q-96 -1 -154 -67t-59 -177zM2011 631q135 0 219 -88t84 -236
q0 -147 -85 -237t-222 -90t-223 90t-86 233t89 235t224 93zM1288 631q135 0 219 -88t84 -236q0 -147 -85 -237t-222 -90t-223 90t-86 233t89 235t224 93zM174 1128q0 -112 57 -178t155 -66t153 68t55 181t-56 176t-152 63t-154 -66q-58 -67 -58 -178zM76 1125q0 145 89 237
t225 92t219 -88t83 -236t-85 -237q-85 -90 -222 -90t-223 89t-86 233zM309 -61l940 1605l74 -49l-940 -1606z" />
    <glyph glyph-name="guilsinglleft" unicode="&#x2039;" horiz-adv-x="606" 
d="M131 575l275 295l69 -63l-254 -275l244 -272l-70 -65l-264 294v86z" />
    <glyph glyph-name="guilsinglright" unicode="&#x203a;" horiz-adv-x="606" 
d="M141 805l70 65l264 -295v-86l-274 -294l-70 63l254 274z" />
    <glyph glyph-name="fraction" unicode="&#x2044;" horiz-adv-x="342" 
d="M-336 -61l940 1605l74 -49l-940 -1606z" />
    <glyph glyph-name="Euro" unicode="&#x20ac;" horiz-adv-x="1159" 
d="M829 1448q164 0 342 -64l-4 -227h-75v150q-145 43 -258 43q-389 0 -500 -439h696l-43 -92h-665q-8 -98 -5 -168h611l-43 -90h-559q57 -247 182 -363t328 -116q160 0 319 57l-4 -108q-137 -49 -326 -49q-259 0 -419 148t-201 431h-152l45 90h101q-6 63 0 168h-146l45 92
h117q55 253 218 395t396 142z" />
    <glyph glyph-name="afii61289" unicode="&#x2113;" horiz-adv-x="849" 
d="M348 1116v-512q362 403 362 646t-169 243q-84 0 -139 -104q-54 -105 -54 -273zM529 1589q129 0 203 -92q74 -91 75 -249q0 -158 -108 -340t-351 -421q16 -203 97 -291t200 -90q63 0 150 29v-98q-102 -29 -189 -29q-130 0 -238 106t-122 285q-117 -106 -140 -123l-38 84
q70 47 168 146v600q0 223 81 353q83 130 212 130z" />
    <glyph glyph-name="trademark" unicode="&#x2122;" horiz-adv-x="2027" 
d="M897 1434h168l274 -695l267 695h168v-844h-99v753h-4l-305 -753h-61l-306 753h-4v-753h-98v844zM86 1434h655v-91h-278v-753h-98v753h-279v91z" />
    <glyph glyph-name="Omega" unicode="&#x2126;" horiz-adv-x="1474" 
d="M141 770q0 294 171 488t428 194t424 -198t167 -478q1 -217 -71 -398t-199 -288h231l11 82h57l-8 -172h-441v68q152 110 236 290t84 410t-135 412q-134 182 -354 182t-360 -175t-140 -444q0 -201 87 -387t230 -286v-70h-438l-12 172h57l12 -82h240q-125 117 -201 300
t-76 380z" />
    <glyph glyph-name="estimated" unicode="&#x212e;" horiz-adv-x="1595" 
d="M399 819h797v395q-172 166 -402 166t-395 -166v-395zM796 1475q312 0 511 -209t198 -545h-1106v-496q162 -162 398 -162q176 0 299 78t227 250l96 -57q-127 -201 -268 -285t-352 -84q-313 0 -511 213t-198 542t197 542t509 213z" />
    <glyph glyph-name="partialdiff" unicode="&#x2202;" horiz-adv-x="1093" 
d="M535 879q-137 0 -239 -125t-101 -295q-1 -170 79 -278t205 -107q147 0 254 152q106 153 133 407q-39 102 -132 174t-199 72zM500 1593q202 0 344 -203q141 -204 141 -574t-137 -599t-377 -229q-172 0 -275 131q-104 131 -104 342t126 357t306 147q111 1 208 -59t149 -152
h2q2 14 2 67q0 344 -124 514t-279 170t-275 -98l-43 74q134 112 336 112z" />
    <glyph glyph-name="Delta" unicode="&#x2206;" horiz-adv-x="1327" 
d="M178 98h959q-51 139 -188 499t-294 806q-170 -496 -477 -1305zM1255 0h-1185v92l524 1389h145l516 -1385v-96z" />
    <glyph glyph-name="product" unicode="&#x220f;" horiz-adv-x="1429" 
d="M63 1427h1303v-102h-238v-1438h183v-90h-465v90h168v1438h-606v-1438h182v-90h-465v90h168v1438h-230v102z" />
    <glyph glyph-name="summation" unicode="&#x2211;" horiz-adv-x="1134" 
d="M86 1427h956l9 -321h-97l-14 229h-696v-35l499 -667l-538 -696v-33h770l14 227h94l-8 -334h-1014v80l572 731q-174 240 -547 735v84z" />
    <glyph glyph-name="minus" unicode="&#x2212;" horiz-adv-x="1228" 
d="M96 567h1037v-98h-1037v98z" />
    <glyph glyph-name="uni2215" unicode="&#x2215;" horiz-adv-x="342" 
d="M-336 -61l940 1605l74 -49l-940 -1606z" />
    <glyph glyph-name="uni2219" unicode="&#x2219;" horiz-adv-x="569" 
d="M285 713q47 0 81 -34t34 -80t-34 -81q-32 -35 -80 -35t-82 35t-34 81t34 80t81 34z" />
    <glyph glyph-name="radical" unicode="&#x221a;" horiz-adv-x="1148" 
d="M678 6l383 1675h82l-453 -1994h-100l-340 968l-154 -57l-24 70l245 94l285 -803q18 -49 35 -141h2q25 125 39 188z" />
    <glyph glyph-name="infinity" unicode="&#x221e;" horiz-adv-x="1589" 
d="M1092 338q114 0 182 69t68 179t-70 178q-68 68 -180 68t-180 -69q-66 -68 -66 -178q0 -111 66 -179t180 -68zM250 585q0 -111 66 -179t181 -68t181 68t66 180t-68 178q-66 68 -178 68t-180 -68q-68 -67 -68 -179zM509 901q157 0 286 -141q131 141 305 141q141 0 238 -91
q98 -91 98 -226q0 -136 -96 -226t-240 -90q-176 0 -305 142q-125 -142 -284 -142t-258 88t-99 226t99 229q99 90 256 90z" />
    <glyph glyph-name="integral" unicode="&#x222b;" horiz-adv-x="606" 
d="M549 1753v-90q-119 -2 -158 -58t-39 -200v-1452q0 -141 -47 -217t-168 -76h-88v92q111 0 150 51t39 199v1507q0 244 202 244h109z" />
    <glyph glyph-name="approxequal" unicode="&#x2248;" horiz-adv-x="1228" 
d="M410 807q86 0 217 -78t203 -78t115 36q42 36 93 120l64 -49q-104 -199 -266 -199q-80 0 -228 79t-204 79t-106 -37t-103 -123l-68 51q101 199 283 199zM410 479q86 0 217 -78q131 -77 203 -77t115 36q42 36 93 119l64 -49q-104 -199 -266 -199q-80 0 -228 79t-204 79
t-106 -37t-103 -123l-68 52q101 198 283 198z" />
    <glyph glyph-name="notequal" unicode="&#x2260;" horiz-adv-x="1228" 
d="M1133 768v-98h-410l-141 -303h551v-99h-596l-107 -231l-80 39l88 192h-342v99h387l142 303h-529v98h574l106 229l80 -39l-88 -190h365z" />
    <glyph glyph-name="lessequal" unicode="&#x2264;" horiz-adv-x="1228" 
d="M135 123h959v-96h-959v96zM147 737l943 465v-115l-822 -395l822 -393v-115l-943 463v90z" />
    <glyph glyph-name="greaterequal" unicode="&#x2265;" horiz-adv-x="1228" 
d="M1092 123v-96h-945l-12 96h957zM147 1087v115l940 -465v-90l-940 -463v115l818 395z" />
    <glyph glyph-name="lozenge" unicode="&#x25ca;" horiz-adv-x="1171" 
d="M586 1446l-357 -729l351 -725l368 717zM121 713l416 821h98l416 -821l-418 -819h-98z" />
    <glyph glyph-name="exclam.sc" unicode="&#xe000;" horiz-adv-x="647" 
d="M324 172q38 0 66 -29t28 -69t-28 -70q-28 -29 -66 -29t-67 29q-28 29 -28 70q0 42 28 70t67 28zM279 492l-17 1083h123l-16 -1083h-90z" />
    <glyph glyph-name="dollar.sc" unicode="&#xe001;" 
d="M938 366q0 118 -72 188t-256 105l-4 -581q154 8 243 89t89 199zM201 1084q1 -112 65 -182q64 -69 254 -111l4 565q-139 -4 -231 -82t-92 -190zM86 1059q0 185 132 289t306 106l4 260h90l-4 -260q74 0 184 -17t177 -40l-4 -262h-99l5 180q-27 10 -111 25t-152 16l-4 -584
q244 -47 343 -144t99 -257t-118 -270q-119 -110 -328 -121l-4 -275h-90l4 275q-109 0 -247 18t-181 35l4 286h98l-4 -200q143 -41 330 -41l4 598q-238 45 -336 141t-98 242z" />
    <glyph glyph-name="percent.sc" unicode="&#xe002;" horiz-adv-x="1744" 
d="M1112 305q0 -111 57 -177t155 -67q98 0 154 67q54 66 54 180t-55 177t-153 63t-156 -66q-56 -66 -56 -177zM1014 303q0 143 88 235t224 93q136 0 220 -88t84 -237q0 -150 -85 -238t-222 -88t-223 90t-86 233zM213 1128q0 -112 57 -178q58 -66 156 -66t153 68
q54 68 54 181t-55 176q-56 63 -154 63t-155 -66q-56 -67 -56 -178zM428 1454q137 0 220 -88t83 -236t-84 -237q-84 -90 -223 -90t-224 90t-85 233q0 144 88 236t225 92zM348 -61l940 1605l74 -49l-940 -1606z" />
    <glyph glyph-name="ampersand.sc" unicode="&#xe003;" horiz-adv-x="1290" 
d="M225 305q0 -104 82 -169t213 -64q164 0 285 121l-389 372q-57 -37 -93 -67t-67 -84q-31 -52 -31 -109zM311 901q0 -59 31 -106t96 -111q96 62 142 116t45 114q0 60 -42 94t-112 34t-115 -41t-45 -100zM213 883q-1 117 73 183t193 67t181 -55t62 -150t-50 -158
q-51 -64 -172 -145l364 -357q80 111 80 287v10h-149v90h376v-90h-129q0 -203 -110 -358q76 -80 121 -104t118 -9v-90q-53 -4 -93 -4t-78 19q-36 19 -130 108q-145 -145 -366 -145q-174 0 -280 89q-105 89 -105 220q0 98 55 175t180 159q-141 141 -141 258z" />
    <glyph glyph-name="question.sc" unicode="&#xe004;" horiz-adv-x="1024" 
d="M401 172q41 0 68 -28t27 -70t-27 -70q-27 -29 -69 -29t-68 28t-25 71q1 42 27 70t67 28zM461 1591q171 0 281 -96t110 -242q-4 -140 -69 -218q-37 -47 -67 -73t-101 -81t-119 -95t-69 -68t-21 -76t63 -112l-78 -69q-43 27 -72 78t-29 111t41 115q40 53 173 151t183 166
t50 166q1 98 -75 172t-194 73q-118 0 -216 -39l-14 100q102 37 223 37z" />
    <glyph glyph-name="a.sc" unicode="&#xe005;" horiz-adv-x="1214" 
d="M541 842l-113 -297h348l-131 377q-25 74 -33 118h-4q-10 -51 -67 -198zM1192 90v-90h-416v90h160l-127 365h-416l-137 -365h160v-90h-393v90h127l407 1024h123l371 -1024h141z" />
    <glyph glyph-name="b.sc" unicode="&#xe006;" horiz-adv-x="1024" 
d="M563 90q131 0 205 56t74 160t-79 164q-79 58 -216 58h-172l-2 -438h190zM496 618q124 0 196 60t72 160q0 186 -199 186h-186l-4 -406h121zM102 1114h451q145 0 231 -71t86 -181q0 -218 -204 -272v-4q134 -8 208 -80t74 -210t-100 -216q-100 -80 -285 -80h-461v90h164
l6 934h-170v90z" />
    <glyph glyph-name="c.sc" unicode="&#xe007;" 
d="M702 1133q190 0 318 -62v-250h-90v187q-113 35 -228 34q-236 0 -364 -129t-127 -337q0 -208 100 -347q53 -75 161 -117t230 -42t222 22l6 213h90l-6 -285h-2q-133 -39 -310 -38q-268 0 -437 158t-169 417q0 260 169 418t437 158z" />
    <glyph glyph-name="d.sc" unicode="&#xe008;" horiz-adv-x="1290" 
d="M610 90q219 0 348 127t129 345t-116 340q-117 122 -322 122h-270l-6 -934h237zM102 1114h531q265 0 413 -142t148 -404t-158 -416q-158 -152 -430 -152h-504v90h164l6 934h-170v90z" />
    <glyph glyph-name="e.sc" unicode="&#xe009;" horiz-adv-x="1062" 
d="M102 1114h789v-260h-90v170h-422l-4 -418h397v-90h-397l-2 -426h442l16 180h91l-17 -270h-803v90h164l6 934h-170v90z" />
    <glyph glyph-name="f.sc" unicode="&#xe00a;" horiz-adv-x="985" 
d="M102 1114h781v-268h-99v178h-405l-6 -438h430v-90h-430v-406h170v-90h-441v90h164l6 934h-170v90z" />
    <glyph glyph-name="g.sc" unicode="&#xe00b;" horiz-adv-x="1251" 
d="M702 1133q215 0 340 -60v-252h-90v187q-82 35 -250 34q-236 0 -364 -129t-127 -355q0 -226 126 -356t384 -130q119 0 197 20v287h-175v90h420v-90h-147v-359q-133 -39 -314 -38q-268 0 -437 158t-169 416q0 259 168 418t438 159z" />
    <glyph glyph-name="h.sc" unicode="&#xe00c;" horiz-adv-x="1366" 
d="M96 1114h441v-90h-164l-4 -418h626l4 418h-170v90h441v-90h-164l-6 -934h170v-90h-441v90h164l2 426h-626l-2 -426h170v-90h-441v90h164l6 934h-170v90z" />
    <glyph glyph-name="i.sc" unicode="&#xe00d;" horiz-adv-x="645" 
d="M102 1114h441v-90h-164l-6 -934h170v-90h-441v90h164l6 934h-170v90z" />
    <glyph glyph-name="j.sc" unicode="&#xe00e;" horiz-adv-x="606" 
d="M102 1114h441v-90h-164l-6 -547q-2 -281 -41 -401t-125 -203q-86 -82 -250 -149l-31 75q131 58 178 106q48 48 76 82t54 127t28 187t4 176l6 547h-170v90z" />
    <glyph glyph-name="k.sc" unicode="&#xe00f;" horiz-adv-x="1214" 
d="M102 1114h441v-90h-164l-4 -434l508 434h-164v90h403v-90h-108l-527 -459l543 -475h123v-90h-426v90h154l-506 451l-2 -451h170v-90h-441v90h164l6 934h-170v90z" />
    <glyph glyph-name="l.sc" unicode="&#xe010;" horiz-adv-x="985" 
d="M102 1114h441v-90h-164l-6 -934h442l6 178h90l-6 -268h-803v90h164l6 934h-170v90z" />
    <glyph glyph-name="m.sc" unicode="&#xe011;" horiz-adv-x="1593" 
d="M102 1114h308l356 -887q25 -55 35 -112h4q6 33 35 112l344 887h307v-90h-170l6 -934h164v-90h-432v90h170l-6 860h-4q-4 -14 -25 -71l-346 -879h-98l-353 887l-22 63h-4l-6 -860h170v-90h-433v90h164l6 934h-170v90z" />
    <glyph glyph-name="n.sc" unicode="&#xe012;" horiz-adv-x="1402" 
d="M96 1114h269l620 -838q49 -61 70 -112h4l6 860h-170v90h412v-90h-144l-6 -1024h-98l-606 825q-61 84 -78 125h-4l-4 -860h170v-90h-441v90h164l6 934h-170v90z" />
    <glyph glyph-name="o.sc" unicode="&#xe013;" horiz-adv-x="1251" 
d="M211 556q0 -214 113 -345t301 -131t302 131t113 346q0 215 -112 346q-113 131 -300 131t-302 -132t-115 -346zM626 1133q243 0 386 -160t143 -417t-143 -416q-143 -158 -387 -158t-386 158t-143 417q0 258 144 417t386 159z" />
    <glyph glyph-name="p.sc" unicode="&#xe014;" horiz-adv-x="985" 
d="M522 545q268 0 269 254q1 111 -59 168t-169 57h-184l-4 -479h147zM102 1114h447q356 0 356 -313q0 -158 -105 -252t-263 -94h-162l-2 -365h170v-90h-441v90h164l6 934h-170v90z" />
    <glyph glyph-name="q.sc" unicode="&#xe015;" horiz-adv-x="1251" 
d="M211 557q0 -215 113 -346t301 -131t302 131q113 131 113 344t-112 346q-113 133 -301 133t-302 -131t-114 -346zM638 1133q232 0 375 -161q142 -161 142 -415q0 -201 -103 -359t-280 -200v-4q78 -10 218 -91t294 -81q25 0 82 4v-90q-29 -12 -94 -12q-166 -2 -396 125
t-335 135q-188 12 -317 167q-128 155 -128 405t155 413q155 164 387 164z" />
    <glyph glyph-name="r.sc" unicode="&#xe016;" horiz-adv-x="1099" 
d="M514 586q123 0 195 63q71 63 71 167t-53 156t-147 52h-201l-4 -438h139zM102 1114h478q141 0 224 -76t83 -200t-70 -204t-186 -95v-4q38 -17 60 -41q21 -23 31 -34t46 -68q35 -57 89 -156q55 -98 79 -122t70 -24q47 0 63 6v-90q-29 -6 -84 -6q-106 0 -162 92
q-178 299 -205 334q-70 66 -131 70h-112l-2 -406h170v-90h-441v90h164l6 934h-170v90z" />
    <glyph glyph-name="s.sc" unicode="&#xe017;" horiz-adv-x="1024" 
d="M141 823q-1 137 97 223t275 87q177 0 310 -62v-231h-88l-4 164q-74 39 -211 38q-272 0 -272 -196q0 -160 210 -212q246 -62 285 -85q92 -55 108 -90q30 -69 32 -158q1 -145 -105 -232t-297 -87t-334 69v244h93l-4 -170q98 -53 248 -53t221 60t71 166t-93 160
q-48 28 -122 46l-141 35q-194 50 -243 143q-36 67 -36 141z" />
    <glyph glyph-name="t.sc" unicode="&#xe018;" 
d="M786 90v-90h-440v90h164l6 934h-338l-10 -180h-90l10 270h963l10 -270h-90l-10 180h-338l-7 -934h170z" />
    <glyph glyph-name="u.sc" unicode="&#xe019;" horiz-adv-x="1327" 
d="M86 1114h422v-90h-146l-6 -610q-2 -186 72 -264t242 -78t244 82t77 262l6 608h-170v90h414v-90h-145l-6 -569q-2 -256 -98 -365q-96 -108 -315 -108q-220 0 -325 89q-104 89 -102 302l6 651h-170v90z" />
    <glyph glyph-name="v.sc" unicode="&#xe01a;" horiz-adv-x="1214" 
d="M18 1114h416v-90h-153l299 -807q14 -39 36 -119h5q20 84 32 113l303 813h-176v90h416v-90h-125l-403 -1024h-115l-395 1024h-140v90z" />
    <glyph glyph-name="w.sc" unicode="&#xe01b;" horiz-adv-x="1781" 
d="M39 1114h416v-90h-162l254 -764q41 -131 47 -162h4q4 35 49 148l217 565l-69 213h-129v90h415v-90h-172l248 -780q31 -98 39 -146h4q4 25 31 113l278 813h-182v90h416v-90h-127l-361 -1024h-122l-222 680h-4l-258 -680h-114l-357 1024h-139v90z" />
    <glyph glyph-name="x.sc" unicode="&#xe01c;" horiz-adv-x="1214" 
d="M76 1114h416v-90h-164q23 -25 96 -117l186 -258l207 275q23 33 84 100h-182v90h416v-90h-127l-336 -459l338 -475h145v-90h-416v90h156q-51 53 -86 98l-207 293l-207 -288q-2 -2 -34 -40t-58 -63h172v-90h-416v90h138l352 475l-328 459h-145v90z" />
    <glyph glyph-name="y.sc" unicode="&#xe01d;" horiz-adv-x="1251" 
d="M51 1114h416v-90h-162q10 -14 43 -52t47 -59l230 -323l252 338q35 51 81 96h-161v90h403v-90h-139l-383 -522l-2 -412h170v-90h-440v90h163l2 404l-381 530h-139v90z" />
    <glyph glyph-name="z.sc" unicode="&#xe01e;" horiz-adv-x="1062" 
d="M948 1114v-90l-649 -848q-10 -14 -82 -86h637l16 178h91l-17 -268h-842v90l650 840q53 68 82 94h-603l-12 -170h-92l16 260h805z" />
    <glyph glyph-name="agrave.sc" unicode="&#xe01f;" horiz-adv-x="1214" 
d="M348 1489l70 63l356 -313l-72 -55zM541 842l-113 -297h348l-131 377q-25 74 -33 118h-4q-10 -51 -67 -198zM1192 90v-90h-416v90h160l-127 365h-416l-137 -365h160v-90h-393v90h127l407 1024h123l371 -1024h141z" />
    <glyph glyph-name="aacute.sc" unicode="&#xe020;" horiz-adv-x="1214" 
d="M442 1239l357 313l69 -63l-354 -305zM541 842l-113 -297h348l-131 377q-25 74 -33 118h-4q-10 -51 -67 -198zM1192 90v-90h-416v90h160l-127 365h-416l-137 -365h160v-90h-393v90h127l407 1024h123l371 -1024h141z" />
    <glyph glyph-name="acircumflex.sc" unicode="&#xe021;" horiz-adv-x="1214" 
d="M305 1249l258 283h99l249 -283l-71 -61l-228 262l-239 -262zM541 842l-113 -297h348l-131 377q-25 74 -33 118h-4q-10 -51 -67 -198zM1192 90v-90h-416v90h160l-127 365h-416l-137 -365h160v-90h-393v90h127l407 1024h123l371 -1024h141z" />
    <glyph glyph-name="atilde.sc" unicode="&#xe022;" horiz-adv-x="1214" 
d="M471 1466q70 0 159 -53t120 -53q63 0 127 92l71 -53q-76 -137 -207 -137q-55 0 -143 53t-123 53q-63 0 -127 -98l-80 53q82 143 203 143zM541 842l-113 -297h348l-131 377q-25 74 -33 118h-4q-10 -51 -67 -198zM1192 90v-90h-416v90h160l-127 365h-416l-137 -365h160v-90
h-393v90h127l407 1024h123l371 -1024h141z" />
    <glyph glyph-name="adieresis.sc" unicode="&#xe023;" horiz-adv-x="1214" 
d="M735 1352q1 42 27 70t64 28t64 -29t26 -69t-26 -70q-26 -29 -64 -29t-64 29t-27 70zM391 1450q39 0 65 -29t26 -69t-26 -70q-26 -29 -65 -29t-65 28t-25 70q-1 43 25 71t65 28zM541 842l-113 -297h348l-131 377q-25 74 -33 118h-4q-10 -51 -67 -198zM1192 90v-90h-416v90
h160l-127 365h-416l-137 -365h160v-90h-393v90h127l407 1024h123l371 -1024h141z" />
    <glyph glyph-name="aring.sc" unicode="&#xe024;" horiz-adv-x="1214" 
d="M504 1355q0 -48 30 -80t76 -32t74 32q29 32 29 80t-30 81q-30 32 -75 32q-44 0 -74 -32t-30 -81zM608 1542q76 0 131 -54t55 -132t-54 -132t-132 -54t-132 54q-54 56 -54 132t55 131t131 55zM541 842l-113 -297h348l-131 377q-25 74 -33 118h-4q-10 -51 -67 -198z
M1192 90v-90h-416v90h160l-127 365h-416l-137 -365h160v-90h-393v90h127l407 1024h123l371 -1024h141z" />
    <glyph glyph-name="amacron.sc" unicode="&#xe025;" horiz-adv-x="1214" 
d="M336 1473h536v-91h-536v91zM541 842l-113 -297h348l-131 377q-25 74 -33 118h-4q-10 -51 -67 -198zM1192 90v-90h-416v90h160l-127 365h-416l-137 -365h160v-90h-393v90h127l407 1024h123l371 -1024h141z" />
    <glyph glyph-name="abreve.sc" unicode="&#xe026;" horiz-adv-x="1214" 
d="M608 1380q160 0 209 217l94 -32q-59 -274 -303 -275q-114 0 -190 62t-113 213l94 32q55 -217 209 -217zM541 842l-113 -297h348l-131 377q-25 74 -33 118h-4q-10 -51 -67 -198zM1192 90v-90h-416v90h160l-127 365h-416l-137 -365h160v-90h-393v90h127l407 1024h123
l371 -1024h141z" />
    <glyph glyph-name="aogonek.sc" unicode="&#xe027;" horiz-adv-x="1214" 
d="M541 842l-113 -297h348l-131 377q-25 74 -33 118h-4q-10 -51 -67 -198zM1192 90v-90h-96q-152 -119 -152 -254q0 -109 113 -108q33 0 88 10l20 -70q-82 -14 -131 -14q-96 0 -146 45t-50 116t51 149t125 126h-238v90h160l-127 365h-416l-137 -365h160v-90h-393v90h127
l407 1024h123l371 -1024h141z" />
    <glyph glyph-name="ae.sc" unicode="&#xe028;" horiz-adv-x="1669" 
d="M879 1024h-117l-238 -438h348zM1380 586v-90h-401v-406h442l17 180h90l-17 -270h-802v90h163v406h-399l-221 -406h160v-90h-404v90h137l568 1024h755l7 -258h-91l-6 168h-393l-6 -438h401z" />
    <glyph glyph-name="cacute.sc" unicode="&#xe029;" 
d="M522 1296l357 314l69 -64l-354 -305zM702 1133q190 0 318 -62v-250h-90v187q-113 35 -228 34q-236 0 -364 -129t-127 -337q0 -208 100 -347q53 -75 161 -117t230 -42t222 22l6 213h90l-6 -285h-2q-133 -39 -310 -38q-268 0 -437 158t-169 417q0 260 169 418t437 158z" />
    <glyph glyph-name="ccircumflex.sc" unicode="&#xe02a;" 
d="M352 1307l258 282h99l249 -282l-71 -62l-228 262l-239 -262zM702 1133q190 0 318 -62v-250h-90v187q-113 35 -228 34q-236 0 -364 -129t-127 -337q0 -208 100 -347q53 -75 161 -117t230 -42t222 22l6 213h90l-6 -285h-2q-133 -39 -310 -38q-268 0 -437 158t-169 417
q0 260 169 418t437 158z" />
    <glyph glyph-name="ccaron.sc" unicode="&#xe02b;" 
d="M369 1528l71 61l228 -262l239 262l68 -61l-258 -283h-99zM702 1133q190 0 318 -62v-250h-90v187q-113 35 -228 34q-236 0 -364 -129t-127 -337q0 -208 100 -347q53 -75 161 -117t230 -42t222 22l6 213h90l-6 -285h-2q-133 -39 -310 -38q-268 0 -437 158t-169 417
q0 260 169 418t437 158z" />
    <glyph glyph-name="cdotaccent.sc" unicode="&#xe02c;" 
d="M678 1507q38 -1 64 -29t26 -69t-26 -70t-64 -29t-65 28q-25 28 -25 70t25 71q26 28 65 28zM702 1133q190 0 318 -62v-250h-90v187q-113 35 -228 34q-236 0 -364 -129t-127 -337q0 -208 100 -347q53 -75 161 -117t230 -42t222 22l6 213h90l-6 -285h-2q-133 -39 -310 -38
q-268 0 -437 158t-169 417q0 260 169 418t437 158z" />
    <glyph glyph-name="ccedilla.sc" unicode="&#xe02d;" 
d="M719 -131h14q74 0 118 -39q44 -40 44 -108t-51 -113t-155 -45t-195 37l14 73q82 -37 164 -36q117 0 116 81q0 76 -129 76h-22v187q-252 24 -396 180q-145 156 -145 406t169 407q169 158 437 158q190 0 318 -62v-250h-90v187q-113 35 -228 34q-236 0 -364 -129t-127 -337
q0 -208 100 -347q53 -75 161 -117t230 -42t222 22l6 213h90l-6 -285q-117 -35 -295 -38v-113z" />
    <glyph glyph-name="dcaron.sc" unicode="&#xe02e;" horiz-adv-x="1290" 
d="M289 1528l71 61l228 -262l239 262l68 -61l-258 -283h-98zM610 90q219 0 348 127t129 345t-116 340q-117 122 -322 122h-270l-6 -934h237zM102 1114h531q265 0 413 -142t148 -404t-158 -416q-158 -152 -430 -152h-504v90h164l6 934h-170v90z" />
    <glyph glyph-name="dcroat.sc" unicode="&#xe02f;" horiz-adv-x="1290" 
d="M705 618v-90h-330l-2 -438h237q215 0 346 126t131 346t-117 341q-118 121 -319 121h-272l-4 -406h330zM102 1114h535q261 0 409 -142t148 -404t-158 -414q-158 -154 -430 -154h-504v90h164l2 438h-166v90h166l4 406h-170v90z" />
    <glyph glyph-name="eth.sc" unicode="&#xe030;" horiz-adv-x="1290" 
d="M705 618v-90h-330l-2 -438h237q215 0 346 126t131 346t-117 341q-118 121 -319 121h-272l-4 -406h330zM102 1114h535q261 0 409 -142t148 -404t-158 -414q-158 -154 -430 -154h-504v90h164l2 438h-166v90h166l4 406h-170v90z" />
    <glyph glyph-name="egrave.sc" unicode="&#xe031;" horiz-adv-x="1062" 
d="M297 1489l70 63l356 -313l-72 -55zM102 1114h789v-260h-90v170h-422l-4 -418h397v-90h-397l-2 -426h442l16 180h91l-17 -270h-803v90h164l6 934h-170v90z" />
    <glyph glyph-name="eacute.sc" unicode="&#xe032;" horiz-adv-x="1062" 
d="M408 1239l356 313l70 -63l-355 -305zM102 1114h789v-260h-90v170h-422l-4 -418h397v-90h-397l-2 -426h442l16 180h91l-17 -270h-803v90h164l6 934h-170v90z" />
    <glyph glyph-name="ecircumflex.sc" unicode="&#xe033;" horiz-adv-x="1062" 
d="M229 1249l258 283h99l250 -283l-72 -61l-227 262l-240 -262zM102 1114h789v-260h-90v170h-422l-4 -418h397v-90h-397l-2 -426h442l16 180h91l-17 -270h-803v90h164l6 934h-170v90z" />
    <glyph glyph-name="ecaron.sc" unicode="&#xe034;" horiz-adv-x="1062" 
d="M209 1528l72 61l227 -262l240 262l67 -61l-258 -283h-98zM102 1114h789v-260h-90v170h-422l-4 -418h397v-90h-397l-2 -426h442l16 180h91l-17 -270h-803v90h164l6 934h-170v90z" />
    <glyph glyph-name="edieresis.sc" unicode="&#xe035;" horiz-adv-x="1062" 
d="M659 1352q0 42 27 70t65 28q37 0 63 -29t26 -69t-26 -70q-26 -29 -64 -29t-64 29q-27 29 -27 70zM315 1450q39 0 65 -29t26 -69t-26 -70q-26 -29 -65 -29t-65 28t-25 70q-1 43 25 71t65 28zM102 1114h789v-260h-90v170h-422l-4 -418h397v-90h-397l-2 -426h442l16 180h91
l-17 -270h-803v90h164l6 934h-170v90z" />
    <glyph glyph-name="edotaccent.sc" unicode="&#xe036;" horiz-adv-x="1062" 
d="M510 1507q38 -1 64 -29t26 -69t-26 -70t-64 -29t-65 28q-25 28 -25 70t25 71q26 28 65 28zM102 1114h789v-260h-90v170h-422l-4 -418h397v-90h-397l-2 -426h442l16 180h91l-17 -270h-803v90h164l6 934h-170v90z" />
    <glyph glyph-name="emacron.sc" unicode="&#xe037;" horiz-adv-x="1062" 
d="M242 1473h536v-91h-536v91zM102 1114h789v-260h-90v170h-422l-4 -418h397v-90h-397l-2 -426h442l16 180h91l-17 -270h-803v90h164l6 934h-170v90z" />
    <glyph glyph-name="ebreve.sc" unicode="&#xe038;" horiz-adv-x="1062" 
d="M510 1380q160 0 209 217l94 -32q-59 -274 -303 -275q-114 0 -190 62t-113 213l94 32q55 -217 209 -217zM102 1114h789v-260h-90v170h-422l-4 -418h397v-90h-397l-2 -426h442l16 180h91l-17 -270h-803v90h164l6 934h-170v90z" />
    <glyph glyph-name="eogonek.sc" unicode="&#xe039;" horiz-adv-x="1062" 
d="M102 1114h789v-260h-90v170h-422l-4 -418h397v-90h-397l-2 -426h442l16 180h91l-17 -270h-74q-152 -117 -151 -254q0 -109 113 -108q33 0 88 10l20 -70q-82 -14 -131 -14q-96 0 -146 45t-50 116t52 147t124 128h-648v90h164l6 934h-170v90z" />
    <glyph glyph-name="gcircumflex.sc" unicode="&#xe03a;" horiz-adv-x="1251" 
d="M369 1307l258 282h98l250 -282l-72 -62l-227 262l-240 -262zM702 1133q215 0 340 -60v-252h-90v187q-82 35 -250 34q-236 0 -364 -129t-127 -355q0 -226 126 -356t384 -130q119 0 197 20v287h-175v90h420v-90h-147v-359q-133 -39 -314 -38q-268 0 -437 158t-169 416
q0 259 168 418t438 159z" />
    <glyph glyph-name="gdotaccent.sc" unicode="&#xe03b;" horiz-adv-x="1251" 
d="M682 1507q38 -1 64 -29t26 -69t-26 -70t-64 -29t-65 28q-25 28 -25 70t25 71q26 28 65 28zM702 1133q215 0 340 -60v-252h-90v187q-82 35 -250 34q-236 0 -364 -129t-127 -355q0 -226 126 -356t384 -130q119 0 197 20v287h-175v90h420v-90h-147v-359q-133 -39 -314 -38
q-268 0 -437 158t-169 416q0 259 168 418t438 159z" />
    <glyph glyph-name="gbreve.sc" unicode="&#xe03c;" horiz-adv-x="1251" 
d="M682 1380q160 0 209 217l94 -32q-59 -274 -303 -275q-114 0 -190 62t-113 213l94 32q55 -217 209 -217zM702 1133q215 0 340 -60v-252h-90v187q-82 35 -250 34q-236 0 -364 -129t-127 -355q0 -226 126 -356t384 -130q119 0 197 20v287h-175v90h420v-90h-147v-359
q-133 -39 -314 -38q-268 0 -437 158t-169 416q0 259 168 418t438 159z" />
    <glyph glyph-name="gcommaaccent.sc" unicode="&#xe03d;" horiz-adv-x="1251" 
d="M623 -174q0 72 87 72q40 0 68 -40t29 -108q0 -68 -42 -148t-106 -134l-45 45q90 88 90 142t-40 99q-41 45 -41 72zM702 1133q215 0 340 -60v-252h-90v187q-82 35 -250 34q-236 0 -364 -129t-127 -355q0 -226 126 -356t384 -130q119 0 197 20v287h-175v90h420v-90h-147
v-359q-133 -39 -314 -38q-268 0 -437 158t-169 416q0 259 168 418t438 159z" />
    <glyph glyph-name="hcircumflex.sc" unicode="&#xe03e;" horiz-adv-x="1366" 
d="M379 1307l258 282h98l250 -282l-72 -62l-227 262l-240 -262zM96 1114h441v-90h-164l-4 -418h626l4 418h-170v90h441v-90h-164l-6 -934h170v-90h-441v90h164l2 426h-626l-2 -426h170v-90h-441v90h164l6 934h-170v90z" />
    <glyph glyph-name="hbar.sc" unicode="&#xe03f;" horiz-adv-x="1366" 
d="M371 784l-2 -178h626l2 178h-626zM96 1114h441v-90h-164l-2 -150h626l2 150h-170v90h441v-90h-164l-6 -934h170v-90h-441v90h164l2 426h-626l-2 -426h170v-90h-441v90h164l6 934h-170v90z" />
    <glyph glyph-name="igrave.sc" unicode="&#xe040;" horiz-adv-x="645" 
d="M63 1489l70 63l356 -313l-71 -55zM102 1114h441v-90h-164l-6 -934h170v-90h-441v90h164l6 934h-170v90z" />
    <glyph glyph-name="iacute.sc" unicode="&#xe041;" horiz-adv-x="645" 
d="M158 1239l356 313l70 -63l-355 -305zM102 1114h441v-90h-164l-6 -934h170v-90h-441v90h164l6 934h-170v90z" />
    <glyph glyph-name="icircumflex.sc" unicode="&#xe042;" horiz-adv-x="645" 
d="M20 1249l259 283h98l250 -283l-72 -61l-227 262l-240 -262zM102 1114h441v-90h-164l-6 -934h170v-90h-441v90h164l6 934h-170v90z" />
    <glyph glyph-name="itilde.sc" unicode="&#xe043;" horiz-adv-x="645" 
d="M186 1524q70 0 159 -54t120 -53q63 0 127 92l72 -53q-76 -137 -207 -137q-55 0 -143 53t-124 53q-63 0 -127 -98l-79 53q81 144 202 144zM102 1114h441v-90h-164l-6 -934h170v-90h-441v90h164l6 934h-170v90z" />
    <glyph glyph-name="idieresis.sc" unicode="&#xe044;" horiz-adv-x="645" 
d="M440 1352q0 42 26 70t65 28q38 0 64 -29t26 -69t-26 -70q-26 -29 -64 -29q-39 0 -65 29t-26 70zM96 1450q39 0 65 -29q25 -29 25 -69t-26 -70q-26 -29 -64 -29t-64 28t-26 70q0 43 26 71t64 28zM102 1114h441v-90h-164l-6 -934h170v-90h-441v90h164l6 934h-170v90z" />
    <glyph glyph-name="imacron.sc" unicode="&#xe045;" horiz-adv-x="645" 
d="M55 1473h537v-91h-537v91zM102 1114h441v-90h-164l-6 -934h170v-90h-441v90h164l6 934h-170v90z" />
    <glyph glyph-name="idotaccent.sc" unicode="&#xe046;" horiz-adv-x="645" 
d="M326 1507q38 -1 64 -29t26 -69t-26 -70t-64 -29t-65 28q-25 28 -25 70t25 71q26 28 65 28zM102 1114h441v-90h-164l-6 -934h170v-90h-441v90h164l6 934h-170v90z" />
    <glyph glyph-name="iogonek.sc" unicode="&#xe047;" horiz-adv-x="645" 
d="M102 1114h441v-90h-164l-6 -934h170v-90h-103q-72 -53 -112 -122t-39 -132q0 -109 110 -108q35 0 90 10l21 -70q-82 -14 -129 -14q-96 0 -148 45q-51 45 -51 116t54 149t122 126h-256v90h164l6 934h-170v90z" />
    <glyph glyph-name="jcircumflex.sc" unicode="&#xe048;" horiz-adv-x="606" 
d="M6 1307l258 282h98l250 -282l-71 -62l-228 262l-239 -262zM102 1114h441v-90h-164l-6 -547q-2 -281 -41 -401t-125 -203q-86 -82 -250 -149l-31 75q131 58 178 106q48 48 76 82t54 127t28 187t4 176l6 547h-170v90z" />
    <glyph glyph-name="kcommaaccent.sc" unicode="&#xe049;" horiz-adv-x="1214" 
d="M469 -174q0 72 87 72q40 0 69 -40t29 -108t-43 -148q-42 -80 -105 -134l-45 45q90 88 90 142t-41 99t-41 72zM102 1114h441v-90h-164l-4 -434l508 434h-164v90h403v-90h-108l-527 -459l543 -475h123v-90h-426v90h154l-506 451l-2 -451h170v-90h-441v90h164l6 934h-170v90
z" />
    <glyph glyph-name="lacute.sc" unicode="&#xe04a;" horiz-adv-x="985" 
d="M135 1296l357 314l69 -64l-354 -305zM102 1114h441v-90h-164l-6 -934h442l6 178h90l-6 -268h-803v90h164l6 934h-170v90z" />
    <glyph glyph-name="lcaron.sc" unicode="&#xe04b;" horiz-adv-x="985" 
d="M664 924q0 73 87 73q41 0 69 -41q28 -42 28 -108t-42 -146t-106 -135l-45 45q90 90 90 144t-40 98q-41 45 -41 70zM102 1114h441v-90h-164l-6 -934h442l6 178h90l-6 -268h-803v90h164l6 934h-170v90z" />
    <glyph glyph-name="lcommaaccent.sc" unicode="&#xe04c;" horiz-adv-x="985" 
d="M389 -174q0 72 87 72q40 0 69 -40t29 -108t-43 -148q-42 -80 -105 -134l-45 45q90 88 90 142t-41 99t-41 72zM102 1114h441v-90h-164l-6 -934h442l6 178h90l-6 -268h-803v90h164l6 934h-170v90z" />
    <glyph glyph-name="ldot.sc" unicode="&#xe04d;" horiz-adv-x="985" 
d="M803 723q39 0 65 -29q26 -30 25 -70q0 -40 -26 -69q-27 -29 -65 -29t-64 28t-26 70t26 70t65 29zM102 1114h441v-90h-164l-6 -934h442l6 178h90l-6 -268h-803v90h164l6 934h-170v90z" />
    <glyph glyph-name="lslash.sc" unicode="&#xe04e;" horiz-adv-x="985" 
d="M102 1114h441v-90h-164l-2 -395l260 186v-106l-260 -187l-4 -432h442l6 178h90l-6 -268h-803v90h164l4 356l-168 -120v106l168 121l2 471h-170v90z" />
    <glyph glyph-name="nacute.sc" unicode="&#xe04f;" horiz-adv-x="1402" 
d="M483 1296l357 314l69 -64l-354 -305zM96 1114h269l620 -838q49 -61 70 -112h4l6 860h-170v90h412v-90h-144l-6 -1024h-98l-606 825q-61 84 -78 125h-4l-4 -860h170v-90h-441v90h164l6 934h-170v90z" />
    <glyph glyph-name="ncaron.sc" unicode="&#xe050;" horiz-adv-x="1402" 
d="M401 1528l72 61l227 -262l240 262l68 -61l-258 -283h-99zM96 1114h269l620 -838q49 -61 70 -112h4l6 860h-170v90h412v-90h-144l-6 -1024h-98l-606 825q-61 84 -78 125h-4l-4 -860h170v-90h-441v90h164l6 934h-170v90z" />
    <glyph glyph-name="ntilde.sc" unicode="&#xe051;" horiz-adv-x="1402" 
d="M567 1466q70 0 159 -53t120 -53q63 0 127 92l71 -53q-76 -137 -206 -137q-56 0 -144 53t-123 53q-63 0 -127 -98l-79 53q81 143 202 143zM96 1114h269l620 -838q49 -61 70 -112h4l6 860h-170v90h412v-90h-144l-6 -1024h-98l-606 825q-61 84 -78 125h-4l-4 -860h170v-90
h-441v90h164l6 934h-170v90z" />
    <glyph glyph-name="ncommaaccent.sc" unicode="&#xe052;" horiz-adv-x="1402" 
d="M582 -174q0 72 87 72q41 0 69 -40t28 -108t-42 -148t-106 -134l-45 45q91 88 91 142t-41 99t-41 72zM96 1114h269l620 -838q49 -61 70 -112h4l6 860h-170v90h412v-90h-144l-6 -1024h-98l-606 825q-61 84 -78 125h-4l-4 -860h170v-90h-441v90h164l6 934h-170v90z" />
    <glyph glyph-name="ograve.sc" unicode="&#xe054;" horiz-adv-x="1251" 
d="M367 1489l69 63l357 -313l-72 -55zM211 556q0 -214 113 -345t301 -131t302 131t113 346q0 215 -112 346q-113 131 -300 131t-302 -132t-115 -346zM626 1133q243 0 386 -160t143 -417t-143 -416q-143 -158 -387 -158t-386 158t-143 417q0 258 144 417t386 159z" />
    <glyph glyph-name="oacute.sc" unicode="&#xe055;" horiz-adv-x="1251" 
d="M461 1239l356 313l70 -63l-355 -305zM211 556q0 -214 113 -345t301 -131t302 131t113 346q0 215 -112 346q-113 131 -300 131t-302 -132t-115 -346zM626 1133q243 0 386 -160t143 -417t-143 -416q-143 -158 -387 -158t-386 158t-143 417q0 258 144 417t386 159z" />
    <glyph glyph-name="ocircumflex.sc" unicode="&#xe056;" horiz-adv-x="1251" 
d="M324 1249l258 283h98l250 -283l-72 -61l-227 262l-240 -262zM211 556q0 -214 113 -345t301 -131t302 131t113 346q0 215 -112 346q-113 131 -300 131t-302 -132t-115 -346zM626 1133q243 0 386 -160t143 -417t-143 -416q-143 -158 -387 -158t-386 158t-143 417
q0 258 144 417t386 159z" />
    <glyph glyph-name="otilde.sc" unicode="&#xe057;" horiz-adv-x="1251" 
d="M492 1466q70 0 158 -53t120 -53q63 0 127 92l72 -53q-76 -137 -207 -137q-56 0 -144 53t-122 53q-63 0 -127 -98l-80 53q82 143 203 143zM211 556q0 -214 113 -345t301 -131t302 131t113 346q0 215 -112 346q-113 131 -300 131t-302 -132t-115 -346zM626 1133
q243 0 386 -160t143 -417t-143 -416q-143 -158 -387 -158t-386 158t-143 417q0 258 144 417t386 159z" />
    <glyph glyph-name="odieresis.sc" unicode="&#xe058;" horiz-adv-x="1251" 
d="M845 1450q37 0 63 -29t26 -69t-26 -70q-26 -29 -64 -29t-64 29q-27 29 -26 70q0 42 26 70t65 28zM410 1450q38 0 64 -29t26 -69t-26 -70q-26 -29 -64 -29t-65 28q-26 28 -26 70q0 43 26 71t65 28zM211 556q0 -214 113 -345t301 -131t302 131t113 346q0 215 -112 346
q-113 131 -300 131t-302 -132t-115 -346zM626 1133q243 0 386 -160t143 -417t-143 -416q-143 -158 -387 -158t-386 158t-143 417q0 258 144 417t386 159z" />
    <glyph glyph-name="omacron.sc" unicode="&#xe059;" horiz-adv-x="1251" 
d="M358 1473h537v-91h-537v91zM211 556q0 -214 113 -345t301 -131t302 131t113 346q0 215 -112 346q-113 131 -300 131t-302 -132t-115 -346zM626 1133q243 0 386 -160t143 -417t-143 -416q-143 -158 -387 -158t-386 158t-143 417q0 258 144 417t386 159z" />
    <glyph glyph-name="obreve.sc" unicode="&#xe05a;" horiz-adv-x="1251" 
d="M629 1380q158 0 207 217l94 -32q-59 -274 -303 -275q-115 0 -191 62t-112 213l94 32q53 -217 211 -217zM211 556q0 -214 113 -345t301 -131t302 131t113 346q0 215 -112 346q-113 131 -300 131t-302 -132t-115 -346zM626 1133q243 0 386 -160t143 -417t-143 -416
q-143 -158 -387 -158t-386 158t-143 417q0 258 144 417t386 159z" />
    <glyph glyph-name="ohungarumlaut.sc" unicode="&#xe05b;" horiz-adv-x="1251" 
d="M692 1296l357 314l69 -64l-354 -305zM283 1296l356 314l70 -64l-355 -305zM211 556q0 -214 113 -345t301 -131t302 131t113 346q0 215 -112 346q-113 131 -300 131t-302 -132t-115 -346zM626 1133q243 0 386 -160t143 -417t-143 -416q-143 -158 -387 -158t-386 158
t-143 417q0 258 144 417t386 159z" />
    <glyph glyph-name="oslash.sc" unicode="&#xe05c;" horiz-adv-x="1251" 
d="M625 80q188 0 302 131q113 131 113 359t-137 360l-479 -799q84 -51 201 -51zM211 544q0 -230 137 -360l479 801q-92 49 -202 49q-184 0 -299 -130t-115 -360zM1155 557q0 -246 -153 -411t-377 -164q-147 0 -254 59l-127 -213l-80 49l129 213q-197 164 -197 467
q0 250 155 413t376 163q145 -1 254 -58l127 211l79 -49l-129 -213q197 -160 197 -467z" />
    <glyph glyph-name="oe.sc" unicode="&#xe05d;" horiz-adv-x="1705" 
d="M211 549q0 -223 125 -346t358 -123q70 0 88 2l113 8l6 930q-111 14 -190 14q-242 0 -371 -131t-129 -354zM96 551q0 260 165 421t429 161q64 1 144 -9t81 -10h605v-260h-90v170h-422l-4 -418h397v-90h-397l-3 -426h443l16 180h90l-16 -270h-602l-246 -18q-276 0 -433 154
t-157 415z" />
    <glyph glyph-name="racute.sc" unicode="&#xe05e;" horiz-adv-x="1099" 
d="M352 1296l357 314l69 -64l-354 -305zM514 586q123 0 195 63q71 63 71 167t-53 156t-147 52h-201l-4 -438h139zM102 1114h478q141 0 224 -76t83 -200t-70 -204t-186 -95v-4q38 -17 60 -41q21 -23 31 -34t46 -68q35 -57 89 -156q55 -98 79 -122t70 -24q47 0 63 6v-90
q-29 -6 -84 -6q-106 0 -162 92q-178 299 -205 334q-70 66 -131 70h-112l-2 -406h170v-90h-441v90h164l6 934h-170v90z" />
    <glyph glyph-name="rcommaaccent.sc" unicode="&#xe05f;" horiz-adv-x="1099" 
d="M428 -174q0 72 87 72q40 0 69 -40q28 -40 28 -108t-42 -148t-105 -134l-45 45q90 88 90 142t-41 99t-41 72zM514 586q123 0 195 63q71 63 71 167t-53 156t-147 52h-201l-4 -438h139zM102 1114h478q141 0 224 -76t83 -200t-70 -204t-186 -95v-4q38 -17 60 -41
q21 -23 31 -34t46 -68q35 -57 89 -156q55 -98 79 -122t70 -24q47 0 63 6v-90q-29 -6 -84 -6q-106 0 -162 92q-178 299 -205 334q-70 66 -131 70h-112l-2 -406h170v-90h-441v90h164l6 934h-170v90z" />
    <glyph glyph-name="rcaron.sc" unicode="&#xe060;" horiz-adv-x="1099" 
d="M178 1528l72 61l227 -262l240 262l67 -61l-258 -283h-98zM514 586q123 0 195 63q71 63 71 167t-53 156t-147 52h-201l-4 -438h139zM102 1114h478q141 0 224 -76t83 -200t-70 -204t-186 -95v-4q38 -17 60 -41q21 -23 31 -34t46 -68q35 -57 89 -156q55 -98 79 -122t70 -24
q47 0 63 6v-90q-29 -6 -84 -6q-106 0 -162 92q-178 299 -205 334q-70 66 -131 70h-112l-2 -406h170v-90h-441v90h164l6 934h-170v90z" />
    <glyph glyph-name="sacute.sc" unicode="&#xe061;" horiz-adv-x="1024" 
d="M344 1296l356 314l70 -64l-354 -305zM141 823q-1 137 97 223t275 87q177 0 310 -62v-231h-88l-4 164q-74 39 -211 38q-272 0 -272 -196q0 -160 210 -212q246 -62 285 -85q92 -55 108 -90q30 -69 32 -158q1 -145 -105 -232t-297 -87t-334 69v244h93l-4 -170
q98 -53 248 -53t221 60t71 166t-93 160q-48 28 -122 46l-141 35q-194 50 -243 143q-36 67 -36 141z" />
    <glyph glyph-name="scircumflex.sc" unicode="&#xe062;" horiz-adv-x="1024" 
d="M205 1307l258 282h98l250 -282l-72 -62l-227 262l-240 -262zM141 823q-1 137 97 223t275 87q177 0 310 -62v-231h-88l-4 164q-74 39 -211 38q-272 0 -272 -196q0 -160 210 -212q246 -62 285 -85q92 -55 108 -90q30 -69 32 -158q1 -145 -105 -232t-297 -87t-334 69v244h93
l-4 -170q98 -53 248 -53t221 60t71 166t-93 160q-48 28 -122 46l-141 35q-194 50 -243 143q-36 67 -36 141z" />
    <glyph glyph-name="scaron.sc" unicode="&#xe063;" horiz-adv-x="1024" 
d="M209 1470l72 62l227 -262l240 262l67 -62l-258 -282h-98zM141 823q-1 137 97 223t275 87q177 0 310 -62v-231h-88l-4 164q-74 39 -211 38q-272 0 -272 -196q0 -160 210 -212q246 -62 285 -85q92 -55 108 -90q30 -69 32 -158q1 -145 -105 -232t-297 -87t-334 69v244h93
l-4 -170q98 -53 248 -53t221 60t71 166t-93 160q-48 28 -122 46l-141 35q-194 50 -243 143q-36 67 -36 141z" />
    <glyph glyph-name="scedilla.sc" unicode="&#xe064;" horiz-adv-x="1024" 
d="M883 301q0 -135 -92 -220t-259 -97v-115h15q74 0 118 -39q44 -40 44 -108q-1 -68 -51 -113t-154 -45t-197 37l15 73q82 -37 161 -36q119 0 119 81q0 39 -28 57t-99 19h-24v187q-184 12 -304 69v244h93l-4 -170q98 -53 248 -53t221 60t71 166t-93 160q-48 28 -122 46
l-141 35q-194 50 -243 143q-36 68 -36 141q-1 137 97 223t275 87q177 0 310 -62v-231h-88l-4 164q-74 39 -211 38q-272 0 -272 -196q0 -160 210 -212q246 -62 285 -85q92 -55 108 -90q32 -74 32 -158z" />
    <glyph glyph-name="scommaaccent.sc" unicode="&#xe065;" horiz-adv-x="1024" 
d="M403 -174q0 72 87 72q40 0 69 -40t29 -108t-42 -148t-106 -134l-45 45q90 88 90 142t-41 99t-41 72zM141 823q-1 137 97 223t275 87q177 0 310 -62v-231h-88l-4 164q-74 39 -211 38q-272 0 -272 -196q0 -160 210 -212q246 -62 285 -85q92 -55 108 -90q30 -69 32 -158
q1 -145 -105 -232t-297 -87t-334 69v244h93l-4 -170q98 -53 248 -53t221 60t71 166t-93 160q-48 28 -122 46l-141 35q-194 50 -243 143q-36 67 -36 141z" />
    <glyph glyph-name="germandbls.sc" unicode="&#xe066;" horiz-adv-x="2048" 
d="M1165 823q-1 137 97 223t275 87q177 0 310 -62v-231h-88l-4 164q-74 39 -211 38q-272 0 -272 -196q0 -160 210 -212q246 -62 285 -85q92 -55 108 -90q30 -69 32 -158q1 -145 -105 -232t-297 -87t-334 69v244h93l-4 -170q98 -53 248 -53t221 60t71 166t-93 160
q-48 28 -122 46l-141 35q-194 50 -243 143q-36 67 -36 141zM141 823q-1 137 97 223t275 87q177 0 310 -62v-231h-88l-4 164q-74 39 -211 38q-272 0 -272 -196q0 -160 210 -212q246 -62 285 -85q92 -55 108 -90q30 -69 32 -158q1 -145 -105 -232t-297 -87t-334 69v244h93
l-4 -170q98 -53 248 -53t221 60t71 166t-93 160q-48 28 -122 46l-141 35q-194 50 -243 143q-36 67 -36 141z" />
    <glyph glyph-name="tcaron.sc" unicode="&#xe067;" 
d="M268 1528l72 61l227 -262l240 262l67 -61l-258 -283h-98zM786 90v-90h-440v90h164l6 934h-338l-10 -180h-90l10 270h963l10 -270h-90l-10 180h-338l-7 -934h170z" />
    <glyph glyph-name="tcommaaccent.sc" unicode="&#xe068;" 
d="M479 -174q0 72 87 72q40 0 69 -40t29 -108t-42 -148t-106 -134l-45 45q90 88 90 142t-41 99t-41 72zM786 90v-90h-440v90h164l6 934h-338l-10 -180h-90l10 270h963l10 -270h-90l-10 180h-338l-7 -934h170z" />
    <glyph glyph-name="tbar.sc" unicode="&#xe069;" 
d="M838 688v-90h-220l-2 -508h170v-90h-440v90h164l2 508h-211v90h213l2 336h-338l-10 -180h-90l10 270h963l10 -270h-90l-10 180h-338l-2 -336h217z" />
    <glyph glyph-name="thorn.sc" unicode="&#xe06a;" horiz-adv-x="985" 
d="M518 356q272 0 273 254q0 225 -228 226h-186l-2 -480h143zM102 1114h441v-90h-164l-2 -98h176q352 0 352 -316q0 -154 -104 -249t-264 -95h-162l-2 -176h170v-90h-441v90h164l6 934h-170v90z" />
    <glyph glyph-name="ugrave.sc" unicode="&#xe06b;" horiz-adv-x="1327" 
d="M403 1489l70 63l356 -313l-71 -55zM86 1114h422v-90h-146l-6 -610q-2 -186 72 -264t242 -78t244 82t77 262l6 608h-170v90h414v-90h-145l-6 -569q-2 -256 -98 -365q-96 -108 -315 -108q-220 0 -325 89q-104 89 -102 302l6 651h-170v90z" />
    <glyph glyph-name="uacute.sc" unicode="&#xe06c;" horiz-adv-x="1327" 
d="M498 1239l356 313l70 -63l-355 -305zM86 1114h422v-90h-146l-6 -610q-2 -186 72 -264t242 -78t244 82t77 262l6 608h-170v90h414v-90h-145l-6 -569q-2 -256 -98 -365q-96 -108 -315 -108q-220 0 -325 89q-104 89 -102 302l6 651h-170v90z" />
    <glyph glyph-name="ucircumflex.sc" unicode="&#xe06d;" horiz-adv-x="1327" 
d="M360 1249l258 283h99l250 -283l-72 -61l-227 262l-240 -262zM86 1114h422v-90h-146l-6 -610q-2 -186 72 -264t242 -78t244 82t77 262l6 608h-170v90h414v-90h-145l-6 -569q-2 -256 -98 -365q-96 -108 -315 -108q-220 0 -325 89q-104 89 -102 302l6 651h-170v90z" />
    <glyph glyph-name="utilde.sc" unicode="&#xe06e;" horiz-adv-x="1327" 
d="M530 1524q70 0 159 -54t120 -53q63 0 127 92l72 -53q-76 -137 -207 -137q-55 0 -143 53t-123 53q-63 0 -127 -98l-80 53q81 144 202 144zM86 1114h422v-90h-146l-6 -610q-2 -186 72 -264t242 -78t244 82t77 262l6 608h-170v90h414v-90h-145l-6 -569q-2 -256 -98 -365
q-96 -108 -315 -108q-220 0 -325 89q-104 89 -102 302l6 651h-170v90z" />
    <glyph glyph-name="udieresis.sc" unicode="&#xe06f;" horiz-adv-x="1327" 
d="M882 1450q38 0 64 -29t25 -69q0 -40 -26 -70q-25 -29 -63 -29t-65 29t-26 70q1 42 27 70t64 28zM446 1450q39 0 65 -29t26 -69t-26 -70q-26 -29 -65 -29q-38 0 -64 28t-26 70q0 43 26 71t64 28zM86 1114h422v-90h-146l-6 -610q-2 -186 72 -264t242 -78t244 82t77 262
l6 608h-170v90h414v-90h-145l-6 -569q-2 -256 -98 -365q-96 -108 -315 -108q-220 0 -325 89q-104 89 -102 302l6 651h-170v90z" />
    <glyph glyph-name="umacron.sc" unicode="&#xe070;" horiz-adv-x="1327" 
d="M399 1473h537v-91h-537v91zM86 1114h422v-90h-146l-6 -610q-2 -186 72 -264t242 -78t244 82t77 262l6 608h-170v90h414v-90h-145l-6 -569q-2 -256 -98 -365q-96 -108 -315 -108q-220 0 -325 89q-104 89 -102 302l6 651h-170v90z" />
    <glyph glyph-name="ubreve.sc" unicode="&#xe071;" horiz-adv-x="1327" 
d="M666 1380q158 0 206 217l95 -32q-59 -274 -303 -275q-115 0 -191 62t-113 213l95 32q53 -217 211 -217zM86 1114h422v-90h-146l-6 -610q-2 -186 72 -264t242 -78t244 82t77 262l6 608h-170v90h414v-90h-145l-6 -569q-2 -256 -98 -365q-96 -108 -315 -108q-220 0 -325 89
q-104 89 -102 302l6 651h-170v90z" />
    <glyph glyph-name="uring.sc" unicode="&#xe072;" horiz-adv-x="1327" 
d="M563 1424q0 -48 30 -80t76 -31q47 0 75 32q28 31 28 79t-30 81t-74 33t-75 -33q-30 -33 -30 -81zM668 1612q76 0 131 -54t55 -132t-54 -133q-54 -54 -132 -54t-132 55t-55 131q-1 75 55 131t132 56zM86 1114h422v-90h-146l-6 -610q-2 -186 72 -264t242 -78t244 82t77 262
l6 608h-170v90h414v-90h-145l-6 -569q-2 -256 -98 -365q-96 -108 -315 -108q-220 0 -325 89q-104 89 -102 302l6 651h-170v90z" />
    <glyph glyph-name="uhungarumlaut.sc" unicode="&#xe073;" horiz-adv-x="1327" 
d="M766 1296l356 314l70 -64l-354 -305zM356 1296l357 314l69 -64l-354 -305zM86 1114h422v-90h-146l-6 -610q-2 -186 72 -264t242 -78t244 82t77 262l6 608h-170v90h414v-90h-145l-6 -569q-2 -256 -98 -365q-96 -108 -315 -108q-220 0 -325 89q-104 89 -102 302l6 651h-170
v90z" />
    <glyph glyph-name="uogonek.sc" unicode="&#xe074;" horiz-adv-x="1327" 
d="M725 -436q-76 0 -126 45t-50 113t42 137q42 70 109 123h-24q-223 0 -326 89q-102 89 -100 304l6 649h-170v90h422v-90h-146l-6 -610q-2 -188 71 -266t242 -76q169 0 245 82t77 262l6 608h-170v90h414v-90h-145l-6 -569q-4 -221 -73 -331t-222 -134q-139 -115 -140 -244
q0 -49 29 -79q29 -29 73 -29t99 10l21 -70q-76 -14 -152 -14z" />
    <glyph glyph-name="wcircumflex.sc" unicode="&#xe075;" horiz-adv-x="1781" 
d="M578 1307l258 282h98l250 -282l-72 -62l-227 262l-240 -262zM39 1114h416v-90h-162l254 -764q41 -131 47 -162h4q4 35 49 148l217 565l-69 213h-129v90h415v-90h-172l248 -780q31 -98 39 -146h4q4 25 31 113l278 813h-182v90h416v-90h-127l-361 -1024h-122l-222 680h-4
l-258 -680h-114l-357 1024h-139v90z" />
    <glyph glyph-name="yacute.sc" unicode="&#xe076;" horiz-adv-x="1251" 
d="M461 1239l356 313l70 -63l-355 -305zM51 1114h416v-90h-162q10 -14 43 -52t47 -59l230 -323l252 338q35 51 81 96h-161v90h403v-90h-139l-383 -522l-2 -412h170v-90h-440v90h163l2 404l-381 530h-139v90z" />
    <glyph glyph-name="ycircumflex.sc" unicode="&#xe077;" horiz-adv-x="1251" 
d="M338 1307l258 282h98l250 -282l-72 -62l-227 262l-239 -262zM51 1114h416v-90h-162q10 -14 43 -52t47 -59l230 -323l252 338q35 51 81 96h-161v90h403v-90h-139l-383 -522l-2 -412h170v-90h-440v90h163l2 404l-381 530h-139v90z" />
    <glyph glyph-name="ydieresis.sc" unicode="&#xe078;" horiz-adv-x="1251" 
d="M845 1450q37 0 63 -29t26 -69t-26 -70q-26 -29 -64 -29t-64 29q-27 29 -26 70q0 42 26 70t65 28zM410 1450q38 0 64 -29t26 -69t-26 -70q-26 -29 -64 -29t-65 28q-26 28 -26 70q0 43 26 71t65 28zM51 1114h416v-90h-162q10 -14 43 -52t47 -59l230 -323l252 338
q35 51 81 96h-161v90h403v-90h-139l-383 -522l-2 -412h170v-90h-440v90h163l2 404l-381 530h-139v90z" />
    <glyph glyph-name="zacute.sc" unicode="&#xe079;" horiz-adv-x="1062" 
d="M379 1296l356 314l70 -64l-354 -305zM948 1114v-90l-649 -848q-10 -14 -82 -86h637l16 178h91l-17 -268h-842v90l650 840q53 68 82 94h-603l-12 -170h-92l16 260h805z" />
    <glyph glyph-name="zcaron.sc" unicode="&#xe07a;" horiz-adv-x="1062" 
d="M231 1470l72 62l227 -262l240 262l68 -62l-258 -282h-99zM948 1114v-90l-649 -848q-10 -14 -82 -86h637l16 178h91l-17 -268h-842v90l650 840q53 68 82 94h-603l-12 -170h-92l16 260h805z" />
    <glyph glyph-name="zdotaccent.sc" unicode="&#xe07b;" horiz-adv-x="1062" 
d="M551 1507q39 -1 65 -29t25 -69q0 -41 -26 -70q-27 -29 -65 -29t-64 28t-26 70t26 71q26 28 65 28zM948 1114v-90l-649 -848q-10 -14 -82 -86h637l16 178h91l-17 -268h-842v90l650 840q53 68 82 94h-603l-12 -170h-92l16 260h805z" />
    <glyph glyph-name="fi.sc" unicode="&#xe07c;" horiz-adv-x="1630" 
d="M1087 1114h441v-90h-164l-6 -934h170v-90h-441v90h164l6 934h-170v90zM102 1114h781v-268h-99v178h-405l-6 -438h430v-90h-430v-406h170v-90h-441v90h164l6 934h-170v90z" />
    <glyph glyph-name="fl.sc" unicode="&#xe07d;" horiz-adv-x="1970" 
d="M1087 1114h441v-90h-164l-6 -934h442l6 178h90l-6 -268h-803v90h164l6 934h-170v90zM102 1114h781v-268h-99v178h-405l-6 -438h430v-90h-430v-406h170v-90h-441v90h164l6 934h-170v90z" />
    <glyph glyph-name="ij.sc" unicode="&#xe07e;" horiz-adv-x="1222" 
d="M719 1114h440v-90h-164l-6 -547q-2 -281 -41 -401t-125 -203q-86 -82 -250 -149l-30 75q129 57 177 106q48 48 73 78q35 42 57 129q22 86 27 185q4 98 6 180l6 547h-170v90zM102 1114h441v-90h-164l-6 -934h170v-90h-441v90h164l6 934h-170v90z" />
    <glyph glyph-name="exclamdown.sc" unicode="&#xe07f;" horiz-adv-x="647" 
d="M262 -498l17 1084h90l16 -1084h-123zM324 1102q38 0 66 -29t28 -69t-28 -70q-28 -29 -66 -29t-67 29q-28 29 -28 70q0 42 28 70t67 28z" />
    <glyph glyph-name="questiondown.sc" unicode="&#xe080;" horiz-adv-x="1024" 
d="M623 905q-41 0 -68 28t-27 70q0 43 27 71t69 28t68 -28t25 -70t-27 -71q-26 -28 -67 -28zM563 -514q-171 0 -281 96t-110 242q4 142 69 218q38 46 67 73q30 27 141 113t141 123q71 88 -35 196l78 69q43 -28 72 -78t29 -111t-41 -115q-40 -54 -173 -151t-183 -166
t-50 -167q-1 -98 75 -170q76 -74 194 -74t216 39l14 -100q-102 -37 -223 -37z" />
    <glyph glyph-name="Euro.sc" unicode="&#xe081;" 
d="M786 1448q154 0 318 -68v-233h-94v166q-104 39 -213 39q-389 0 -475 -457h657l-41 -94h-627q-4 -70 -4 -129h586l-41 -94h-537q66 -496 471 -496q127 0 299 61l-2 -106q-133 -51 -307 -51q-252 0 -402 156t-175 436h-117l41 94h70v71q0 41 2 58h-117l41 94h88
q49 261 199 407t380 146z" />
    <glyph glyph-name="cent.sc" unicode="&#xe082;" 
d="M266 527q0 -197 84 -311t244 -136l4 893q-158 -18 -245 -134t-87 -312zM987 766h-98v180q-88 31 -201 31l-4 -901q176 0 299 59v-104q-113 -53 -299 -54l-2 -251h-90l2 256q-207 18 -325 165q-117 147 -117 379t119 379q120 148 327 166l2 227h90l-2 -223q170 -4 299 -53
v-256z" />
    <glyph glyph-name="sterling.sc" unicode="&#xe083;" 
d="M735 1454q137 0 322 -53l-4 -262h-99l4 180q-100 37 -225 37q-170 0 -265 -88t-95 -232t10 -239h324v-90h-320l12 -162q2 -33 2 -123q1 -90 -23 -191q-24 -102 -56 -141h620l16 199h99l-17 -289h-991v90h158q80 125 80 332q0 123 -8 285h-191v90h184q-14 96 -14 213
q0 208 126 326t351 118z" />
    <glyph glyph-name="florin.sc" unicode="&#xe084;" 
d="M897 1454q84 0 170 -18l-4 -97q-119 25 -172 25q-145 0 -224 -91t-92 -251l-14 -180h322v-90h-328l-47 -613q-23 -276 -119 -407t-280 -131q-51 0 -148 30l12 97q51 -29 145 -29t158 62q66 63 92 145t33 184l54 662h-234v90h242l14 184q16 208 123 318t297 110z" />
    <glyph glyph-name="yen.sc" unicode="&#xe085;" 
d="M31 1434h348v-91h-121l324 -618l317 618h-139v91h348v-91h-107l-323 -620h252v-78h-295l-2 -209h297v-78h-297l-4 -268h133v-90h-363v90h131l5 268h-302v78h302l2 209h-304v78h259l-340 620h-121v91z" />
    <glyph glyph-name="perthousand.sc" unicode="&#xe087;" horiz-adv-x="2390" 
d="M1796 305q0 -111 57 -177t155 -67q98 0 154 67q54 66 54 180t-56 177t-154 63t-154 -66t-56 -177zM1073 305q0 -111 57 -177q58 -66 156 -67q98 0 153 67q54 66 54 180t-56 177q-55 63 -153 63t-154 -66t-57 -177zM1698 303q0 143 88 235t224 93q136 0 220 -88t84 -236
q0 -147 -85 -237t-222 -90t-223 90t-86 233zM1288 631q135 0 219 -88t84 -236q0 -147 -85 -237t-222 -90t-223 90t-86 233t89 235t224 93zM174 1128q0 -112 57 -178t155 -66t154 68q54 68 54 182t-56 176t-154 62t-154 -66q-56 -67 -56 -178zM76 1125q0 145 89 237t225 92
t219 -88t83 -236t-85 -237q-85 -90 -222 -90t-223 89t-86 233zM309 -61l940 1605l74 -49l-940 -1606z" />
    <glyph glyph-name="zero.onum" unicode="&#xe100;" 
d="M182 524q0 -211 102 -335q102 -123 285 -123q182 0 285 123q102 124 102 334t-101 335t-285 125t-286 -124t-102 -335zM575 1073q225 0 357 -144q132 -143 131 -393q0 -250 -138 -406q-139 -156 -363 -155t-355 145t-131 392t137 404t362 157z" />
    <glyph glyph-name="one.onum" unicode="&#xe101;" 
d="M301 1049h535v-91h-211l-7 -868h218v-90h-535v90h211l6 868h-217v91z" />
    <glyph glyph-name="two.onum" unicode="&#xe102;" 
d="M557 1073q168 0 262 -87q94 -86 94 -238t-141 -306t-471 -348v-4h688v-90h-839v82q389 272 519 403t130 273q0 98 -67 157q-66 59 -182 59t-188 -65q-72 -66 -88 -186h-106q14 166 118 258t271 92z" />
    <glyph glyph-name="three.onum" unicode="&#xe103;" 
d="M584 1073q174 0 271 -91q97 -92 97 -240t-97 -258t-249 -126l-2 -4q182 -20 282 -118t99 -259q0 -161 -130 -274t-335 -113q-84 0 -194 20t-172 48l8 109q148 -78 332 -78t280 78t96 219q0 307 -512 307h-20v98h47q217 0 335 96t118 244q0 113 -70 179t-193 65
q-256 0 -296 -246h-107q56 344 412 344z" />
    <glyph glyph-name="four.onum" unicode="&#xe104;" 
d="M268 211h410l16 690l-4 4q-18 -47 -80 -131l-350 -461q-29 -37 -98 -106q70 4 106 4zM1114 211v-90h-330v-500h-106v500h-629v72l653 856h99l-17 -838h330z" />
    <glyph glyph-name="five.onum" unicode="&#xe105;" 
d="M956 1049v-99h-600l-16 -444q649 -31 649 -447q0 -201 -141 -335t-381 -134q-150 0 -283 41l6 99q117 -41 259 -41q207 0 321 98t113 271q0 172 -158 262t-496 96l25 633h702z" />
    <glyph glyph-name="six.onum" unicode="&#xe106;" 
d="M901 428q0 154 -83 240t-230 86q-223 0 -342 -240q8 -213 96 -327q88 -113 238 -113t235 100q86 100 86 254zM854 1446q47 0 154 -8l-11 -103q-78 12 -157 13q-260 0 -421 -186t-181 -519l4 -4q61 97 162 155t214 58q174 0 282 -121t108 -309t-117 -317
q-117 -130 -319 -130t-322 160q-119 160 -119 457q1 382 199 618t524 236z" />
    <glyph glyph-name="seven.onum" unicode="&#xe107;" 
d="M135 1049h844v-76l-86 -172q-11 -20 -165 -377t-284 -546t-262 -300l-57 66q137 130 259 328t274 545t214 433h-737v99z" />
    <glyph glyph-name="eight.onum" unicode="&#xe108;" 
d="M229 335q-1 -118 93 -190q94 -71 248 -71t246 72q93 72 93 185q0 115 -82 195t-258 164q-160 -76 -250 -156t-90 -199zM568 1356q-136 0 -214 -68t-78 -172q0 -106 71 -177t222 -142q150 71 222 141q71 70 71 178t-79 174t-215 66zM170 1090q0 156 108 256t294 100
q188 0 292 -84t104 -218t-72 -224q-73 -90 -230 -172q198 -94 274 -178t76 -234t-120 -255t-328 -105t-326 98t-119 254q0 117 82 213t262 194q-297 139 -297 355z" />
    <glyph glyph-name="nine.onum" unicode="&#xe109;" 
d="M551 975q-139 -1 -226 -101t-87 -252t82 -240q82 -87 229 -87q225 0 344 240q-25 440 -342 440zM568 1073q202 0 321 -159t119 -457q0 -383 -199 -617t-537 -233q-41 0 -110 4h-2l6 104q49 -10 113 -10q268 0 430 181t192 520l-4 4q-61 -98 -163 -156t-214 -57
q-174 1 -282 119t-107 308q0 190 117 320q118 129 320 129z" />
    <glyph glyph-name="zero.sc" unicode="&#xe10a;" 
d="M182 524q0 -211 102 -335q102 -123 285 -123q182 0 285 123q102 124 102 334t-102 335t-284 125t-286 -124q-102 -124 -102 -335zM575 1073q225 0 357 -145q132 -144 131 -392q0 -248 -137 -404q-136 -156 -362 -157q-226 1 -357 145t-131 392t137 404t362 157z" />
    <glyph glyph-name="one.sc" unicode="&#xe10b;" 
d="M301 1049h535v-91h-211l-7 -868h218v-90h-535v90h211l6 868h-217v91z" />
    <glyph glyph-name="two.sc" unicode="&#xe10c;" 
d="M556 1073q167 0 262 -87q95 -86 95 -238t-141 -306t-471 -348v-4h688v-90h-839v84q385 264 517 398t132 276q0 98 -67 157q-66 59 -182 59t-188 -65q-72 -66 -88 -186h-106q14 166 118 258t270 92z" />
    <glyph glyph-name="three.sc" unicode="&#xe10d;" 
d="M584 1073q174 0 271 -91q97 -92 97 -240t-97 -258t-249 -126l-2 -4q182 -20 282 -117t99 -259q0 -162 -130 -275t-335 -113q-84 0 -194 20t-172 48l8 109q148 -78 332 -78t280 78t96 219q0 307 -512 307h-20v98h45q215 0 335 94t120 246q0 113 -70 179t-193 65
q-256 0 -296 -246h-107q56 344 412 344z" />
    <glyph glyph-name="four.sc" unicode="&#xe10e;" 
d="M268 211h410l16 690l-4 4q-18 -47 -80 -131l-350 -461q-29 -37 -98 -106q70 4 106 4zM1114 211v-90h-330v-500h-106v500h-629v72l653 856h99l-17 -838h330z" />
    <glyph glyph-name="five.sc" unicode="&#xe10f;" 
d="M956 1049v-99h-600l-16 -444q649 -31 649 -447q0 -201 -141 -335t-381 -134q-150 0 -283 41l6 99q117 -41 259 -41q207 0 321 98t113 271q0 172 -158 262t-496 96l25 633h702z" />
    <glyph glyph-name="six.sc" unicode="&#xe110;" 
d="M901 428q0 154 -83 240t-230 86q-223 0 -342 -240q8 -213 96 -327q88 -113 238 -113t235 100q86 100 86 254zM854 1446q49 0 154 -8l-11 -103q-78 12 -157 13q-260 0 -421 -186t-181 -519l4 -4q61 97 162 155t214 58q174 0 282 -121t108 -307t-116 -318
q-116 -131 -320 -131t-322 160q-119 160 -119 457q1 382 199 618t524 236z" />
    <glyph glyph-name="seven.sc" unicode="&#xe111;" 
d="M135 1049h844v-76l-86 -172q-9 -20 -161 -372t-282 -543t-268 -308l-57 66q137 130 259 328t274 545t214 433h-737v99z" />
    <glyph glyph-name="eight.sc" unicode="&#xe112;" 
d="M229 330q-1 -113 93 -185q94 -71 248 -71t246 72q93 72 93 185q0 115 -82 195t-258 164q-151 -75 -218 -130q-68 -54 -95 -108t-27 -122zM568 1356q-136 0 -214 -68t-78 -172q0 -106 71 -177t222 -142q150 73 222 143q71 70 71 178t-79 172q-79 66 -215 66zM170 1090
q0 156 108 256t294 100q188 0 292 -84t104 -218t-72 -224q-73 -90 -230 -172q190 -90 270 -176t80 -236t-120 -255t-328 -105t-326 98t-119 254q0 117 82 213t262 194q-297 139 -297 355z" />
    <glyph glyph-name="nine.sc" unicode="&#xe113;" 
d="M551 975q-139 -1 -226 -101t-87 -252t82 -240q82 -87 229 -87q225 0 344 240q-25 440 -342 440zM162 -389h-2l6 104q49 -10 113 -10q268 0 430 181t192 520l-4 4q-61 -98 -163 -156t-214 -57q-174 1 -282 119t-107 308q0 190 117 320q118 129 320 129t321 -159t119 -457
q0 -385 -199 -617t-537 -233h-61q-12 4 -49 4z" />
    <glyph glyph-name="grave.cap" unicode="&#xe300;" horiz-adv-x="569" 
d="M25 1802l69 64l357 -314l-72 -55z" />
    <glyph glyph-name="acute.cap" unicode="&#xe301;" horiz-adv-x="569" 
d="M119 1552l356 314l70 -64l-355 -305z" />
    <glyph glyph-name="circumflex.cap" unicode="&#xe302;" horiz-adv-x="569" 
d="M-18 1563l258 282h98l250 -282l-72 -62l-227 262l-240 -262z" />
    <glyph glyph-name="caron.cap" unicode="&#xe303;" horiz-adv-x="569" 
d="M-18 1794l71 61l228 -262l239 262l68 -61l-258 -283h-99z" />
    <glyph glyph-name="tilde.cap" unicode="&#xe304;" horiz-adv-x="569" 
d="M147 1780q74 0 162 -54t117 -53q63 0 127 92l72 -53q-76 -137 -207 -137q-58 0 -146 53t-120 53q-63 0 -127 -98l-80 53q81 144 202 144z" />
    <glyph glyph-name="dieresis.cap" unicode="&#xe305;" horiz-adv-x="569" 
d="M503 1763q37 -1 63 -29t26 -69t-26 -70t-64 -29t-64 30q-27 28 -26 69q0 41 26 70q27 28 65 28zM68 1763q38 -1 64 -29t26 -69t-26 -70t-64 -29t-65 28q-26 28 -26 70t26 70t65 29z" />
    <glyph glyph-name="macron.cap" unicode="&#xe306;" horiz-adv-x="569" 
d="M16 1729h537v-91h-537v91z" />
    <glyph glyph-name="breve.cap" unicode="&#xe307;" horiz-adv-x="569" 
d="M285 1636q160 0 209 217l94 -32q-60 -274 -300 -274t-306 274l94 32q49 -217 209 -217z" />
    <glyph glyph-name="ring.cap" unicode="&#xe308;" horiz-adv-x="569" 
d="M180 1681q0 -49 29 -81t76 -31q47 0 75 32q28 33 29 81q0 48 -29 80q-30 32 -76 32t-75 -32t-29 -81zM285 1868q78 0 132 -54t54 -132t-54 -133q-54 -54 -132 -54t-132 54t-55 132q0 79 54 133t133 54z" />
    <glyph glyph-name="hungarumlaut.cap" unicode="&#xe309;" horiz-adv-x="569" 
d="M324 1552l356 314l70 -64l-355 -305zM-86 1552l356 314l70 -64l-354 -305z" />
    <glyph glyph-name="dotaccent.cap" unicode="&#xe30a;" horiz-adv-x="569" 
d="M285 1763q39 -1 65 -29t25 -69q0 -41 -26 -70q-27 -29 -65 -29t-64 28t-26 70t26 71q26 28 65 28z" />
    <glyph glyph-name="caron.alt" unicode="&#xe30b;" horiz-adv-x="569" 
d="M207 1380q0 74 87 74q40 0 68 -41t29 -107q0 -66 -42 -147q-42 -80 -105 -135l-45 45q90 89 90 143t-41 99t-41 69z" />
    <glyph glyph-name="commaaccent" unicode="&#xe30c;" horiz-adv-x="569" 
d="M207 -174q0 72 87 72q40 0 68 -40t29 -108q0 -68 -42 -148t-105 -134l-45 45q90 88 90 142t-41 99t-41 72z" />
    <glyph glyph-name="commaaccent.alt" unicode="&#xe30d;" horiz-adv-x="569" 
d="M391 1314q1 -30 -23 -50t-64 -19q-40 0 -68 40t-29 107q0 66 43 148t104 135l45 -45q-90 -88 -90 -142t41 -99t41 -75z" />
    <glyph glyph-name="grave.sc" unicode="&#xe320;" horiz-adv-x="569" 
d="M25 1546l69 64l357 -314l-72 -55z" />
    <glyph glyph-name="acute.sc" unicode="&#xe321;" horiz-adv-x="569" 
d="M119 1296l356 314l70 -64l-355 -305z" />
    <glyph glyph-name="circumflex.sc" unicode="&#xe322;" horiz-adv-x="569" 
d="M-18 1307l258 282h98l250 -282l-72 -62l-227 262l-240 -262z" />
    <glyph glyph-name="caron.sc" unicode="&#xe323;" horiz-adv-x="569" 
d="M-18 1528l71 59l228 -260l239 262l68 -61l-258 -283h-101z" />
    <glyph glyph-name="tilde.sc" unicode="&#xe324;" horiz-adv-x="569" 
d="M147 1524q72 0 160 -54t119 -53q66 0 127 92l72 -53q-80 -137 -215 -137q-50 0 -138 53t-122 53q-61 0 -125 -98l-80 53q81 144 202 144z" />
    <glyph glyph-name="dieresis.sc" unicode="&#xe325;" horiz-adv-x="569" 
d="M503 1507q37 -1 63 -29t26 -69t-26 -70t-64 -29t-64 30q-27 28 -26 69q0 41 26 70q27 28 65 28zM68 1507q38 -1 64 -29t26 -69t-26 -70t-64 -29t-65 28q-26 28 -26 70t26 70t65 29z" />
    <glyph glyph-name="macron.sc" unicode="&#xe326;" horiz-adv-x="569" 
d="M16 1473h537v-91h-537v91z" />
    <glyph glyph-name="breve.sc" unicode="&#xe327;" horiz-adv-x="569" 
d="M287 1380q160 0 207 217l94 -32q-59 -274 -303 -275q-117 0 -193 64q-75 64 -110 211l94 32q51 -217 211 -217z" />
    <glyph glyph-name="ring.sc" unicode="&#xe328;" horiz-adv-x="569" 
d="M180 1425q0 -49 29 -81t77 -31q48 0 76 32q28 33 27 81q0 48 -29 80q-30 32 -76 32t-75 -32t-29 -81zM285 1612q78 0 132 -54t54 -132t-54 -133q-54 -54 -132 -54t-132 54t-55 132q0 79 54 133t133 54z" />
    <glyph glyph-name="hungarumlaut.sc" unicode="&#xe329;" horiz-adv-x="569" 
d="M324 1296l356 314l70 -64l-355 -305zM-86 1296l356 314l70 -64l-354 -305z" />
    <glyph glyph-name="dotaccent.sc" unicode="&#xe32a;" horiz-adv-x="569" 
d="M285 1507q39 -1 65 -29t25 -69q0 -41 -26 -70q-27 -29 -65 -29t-64 28t-26 70t26 71q26 28 65 28z" />
    <glyph glyph-name="uniF8FF" unicode="&#xf8ff;" horiz-adv-x="1048" 
d="M455 240v137h114v-137h-114zM525 1247q116 1 188 -73t71 -195q0 -68 -24 -121q-24 -52 -94 -114t-90 -99t-21 -119v-47h-94q-4 20 -4 43q1 102 27 156t90 118t84 98q22 34 22 92t-46 108q-46 51 -110 51q-143 0 -168 -195l-102 17q12 137 84 209t187 71zM102 102h844
v1264h-844v-1264zM0 1470h1049v-1470h-1049v1470z" />
    </font>
</defs>
</svg>
