<?xml version="1.0" standalone="no"?>
<!DOCTYPE svg PUBLIC "-//W3C//DTD SVG 1.1//EN" "http://www.w3.org/Graphics/SVG/1.1/DTD/svg11.dtd" >
<svg xmlns="http://www.w3.org/2000/svg">
<metadata>
Created by FontPrep 20130207 at Tue May  2 09:53:03 2017
 By Jon Best
(c) 1989, 1990, 2002 Adobe Systems Incorporated. All rights reserved. (c) 1981, 2002 Heidelberger Druckmaschinen AG. All rights reserved.
</metadata>
<defs>
<font id="2cb845808a4d2fafaee1755dd46bea53" horiz-adv-x='1024' >
  <font-face 
    font-family="TradeGothicLTStd-LightObl"
    font-weight="300"
    font-style="italic"
    font-stretch="normal"
    units-per-em="2048"
    panose-1="2 11 5 3 2 5 2 9 2 4"
    ascent="1479"
    descent="-569"
    x-height="1065"
    cap-height="1479"
    bbox="-346 -575 2255 1944"
    underline-thickness="102"
    underline-position="-102"
    slope="-12.5"
    unicode-range="U+0020-FB02"
  />
<missing-glyph horiz-adv-x="1341" 
d="M420 1239v-1044l348 522zM481 102h697l-349 523zM891 717l348 -522v1044zM829 809l349 522h-697zM317 0v1434h1024v-1434h-1024z" />
    <glyph glyph-name="f_i" unicode="fi" horiz-adv-x="1024" 
d="M1147 1298h-123l39 181h123zM1094 1065l-236 -1065h-123l236 1065h123zM784 1499q41 0 131 -16l-24 -103q-57 20 -115 21q-145 0 -184 -170l-37 -166h217l-20 -98h-217l-216 -967h-122l215 967h-176l20 98h176l35 152q31 141 107 211t210 71z" />
    <glyph glyph-name="f_l" unicode="fl" horiz-adv-x="1024" 
d="M735 0l328 1479h123l-328 -1479h-123zM784 1499q41 0 131 -16l-24 -103q-57 20 -115 21q-145 0 -184 -170l-37 -166h217l-20 -98h-217l-216 -967h-122l215 967h-176l20 98h176l35 152q31 141 107 211t210 71z" />
    <glyph glyph-name=".notdef" horiz-adv-x="1341" 
d="M420 1239v-1044l348 522zM481 102h697l-349 523zM891 717l348 -522v1044zM829 809l349 522h-697zM317 0v1434h1024v-1434h-1024z" />
    <glyph glyph-name=".null" horiz-adv-x="0" 
 />
    <glyph glyph-name="nonmarkingreturn" horiz-adv-x="681" 
 />
    <glyph glyph-name="space" unicode=" " horiz-adv-x="569" 
 />
    <glyph glyph-name="exclam" unicode="!" horiz-adv-x="454" 
d="M315 0h-176l41 184h176zM467 1479h176l-264 -1024h-103z" />
    <glyph glyph-name="quotedbl" unicode="&#x22;" horiz-adv-x="681" 
d="M629 1016l102 463h103l-103 -463h-102zM401 1016l103 463h102l-102 -463h-103z" />
    <glyph glyph-name="numbersign" unicode="#" 
d="M956 901h-303l-116 -321h301zM1157 580l-22 -99h-232l-174 -481h-100l174 481h-303l-174 -481h-101l174 481h-241l22 99h254l119 321h-242l21 98h254l174 480h102l-174 -480h301l174 480h103l-174 -480h217l-21 -98h-231l-117 -321h217z" />
    <glyph glyph-name="dollar" unicode="$" 
d="M772 680l-129 -582q131 2 260 93t143 250q1 24 -8 44q-8 21 -13 37t-25 34t-27 28q-8 10 -37 24t-38 20t-43 20t-40 16t-43 16zM707 829l120 551q-123 0 -227 -74t-131 -195q-27 -123 41 -185t197 -97zM1282 1237l-104 -70q-59 186 -252 211l-127 -577q189 -55 272 -137
t85 -160q1 -49 -7 -117q-39 -181 -192 -283t-336 -104l-54 -244h-98l53 244q-150 6 -258 85t-139 214l113 68q26 -117 106 -193t201 -76l133 609q-149 44 -254 134q-104 90 -66 264q38 175 174 273t318 101l33 143h98l-33 -143q131 -6 222 -79t112 -163z" />
    <glyph glyph-name="percent" unicode="%" horiz-adv-x="1820" 
d="M1733 1499l-1207 -1519h-106l1204 1519h109zM1444 573q-98 1 -184 -69t-108 -168t34 -168t153 -70q98 0 184 70q85 70 105 168q26 98 -30 168t-154 69zM1465 672q138 0 215 -98t46 -238q-31 -139 -151 -238q-121 -98 -259 -98t-215 99t-46 237t151 236q120 100 259 100z
M809 1380q-98 0 -183 -70t-107 -167q-21 -98 33 -168t152 -70t185 70q86 70 106 168q23 98 -32 168q-56 69 -154 69zM832 1479q138 1 216 -99t46 -237q-31 -137 -152 -237t-259 -99q-138 0 -215 98q-77 97 -46 237q32 140 152 238t258 99z" />
    <glyph glyph-name="ampersand" unicode="&#x26;" horiz-adv-x="1366" 
d="M940 1499q135 0 202 -76t37 -211t-141 -232q-111 -96 -256 -187q18 -39 92 -205t148 -266q151 173 235 374l123 -24q-104 -238 -284 -436q96 -125 225 -134l-27 -122q-186 8 -309 161q-213 -162 -457 -161q-186 0 -294 99t-70 268t135 268q96 99 317 231q-80 170 -44 330
t134 241q98 82 234 82zM707 1176q-31 -147 30 -271q117 57 203 145t104 168q18 82 -14 126q-33 44 -115 45q-159 0 -208 -213zM559 90q195 0 361 143q-54 63 -138 225t-127 279q-155 -76 -239 -160t-113 -216q-29 -131 50 -201t206 -70z" />
    <glyph glyph-name="quotesingle" unicode="'" horiz-adv-x="454" 
d="M401 1016l103 463h102l-102 -463h-103z" />
    <glyph glyph-name="parenleft" unicode="(" horiz-adv-x="681" 
d="M754 1499h147q-193 -180 -319 -400t-172 -433q-50 -193 -20 -423t142 -411h-147q-96 184 -121 410t23 424q45 207 167 428t300 405z" />
    <glyph glyph-name="parenright" unicode=")" horiz-adv-x="681" 
d="M223 -168h-147q193 180 318 400q126 220 173 434q49 193 20 423q-30 230 -143 410h148q96 -184 121 -410t-23 -423q-45 -206 -167 -428t-300 -406z" />
    <glyph glyph-name="asterisk" unicode="*" horiz-adv-x="1024" 
d="M897 1479l-86 -289l291 108l8 -102l-301 -70l139 -211l-106 -71l-82 254l-201 -254l-78 61l240 221l-279 62l60 106l248 -104l36 289h111z" />
    <glyph glyph-name="plus" unicode="+" horiz-adv-x="1228" 
d="M690 588l105 477h110l-104 -477h477l-25 -111h-477l-106 -477h-111l107 477h-478l25 111h477z" />
    <glyph glyph-name="comma" unicode="," horiz-adv-x="569" 
d="M238 184h176l-41 -184l-197 -307h-80l187 307h-86z" />
    <glyph glyph-name="hyphen" unicode="-" horiz-adv-x="681" 
d="M702 477h-509l24 111h510z" />
    <glyph glyph-name="period" unicode="." horiz-adv-x="569" 
d="M373 0h-176l41 184h176z" />
    <glyph glyph-name="slash" unicode="/" horiz-adv-x="569" 
d="M926 1499l-834 -1519h-121l842 1519h113z" />
    <glyph glyph-name="zero" unicode="0" 
d="M877 1389q-193 1 -323 -173t-198 -477q-72 -289 -16 -469t250 -180q192 0 322 173t198 476q72 289 15 469q-55 181 -248 181zM901 1499q131 0 218 -59q161 -109 161 -405q0 -134 -35 -296q-74 -336 -249 -548t-431 -211q-131 0 -218 59t-124 165t-37 239q0 134 35 296
q74 336 249 548t431 212z" />
    <glyph glyph-name="one" unicode="1" 
d="M909 0h-635l25 111h254l274 1241l-290 -41l18 80l354 108h86l-307 -1388h246z" />
    <glyph glyph-name="two" unicode="2" 
d="M881 1389q-275 0 -422 -334l-113 22q80 199 232 311t348 112t286 -112q92 -112 50 -303q-32 -143 -132 -253t-344 -259q-506 -309 -548 -462h811l-25 -111h-934l19 86q45 201 634 578q127 82 198 133q135 97 169 185q81 209 -4 323q-63 84 -225 84z" />
    <glyph glyph-name="three" unicode="3" 
d="M553 90q362 0 436 324q70 315 -356 315h-135l24 111h111q406 0 469 286q31 133 -40 198t-224 65q-188 0 -383 -193l-80 70q246 233 497 233q164 0 278 -76q135 -87 86 -299q-26 -114 -98 -195t-212 -138q258 -106 198 -373q-49 -223 -209 -331t-393 -107
q-375 -1 -432 294l121 62q37 -138 115 -192t227 -54z" />
    <glyph glyph-name="four" unicode="4" 
d="M111 373l24 104l871 1002h180l-221 -998h223l-25 -108h-223l-82 -373h-135l82 373h-694zM1008 1352l-738 -869h559l193 869h-14z" />
    <glyph glyph-name="five" unicode="5" 
d="M830 985q200 0 291 -143q91 -142 42 -362t-214 -360t-412 -140q-143 0 -248 71q-104 72 -137 205l124 72q63 -238 302 -238q186 0 307 114t157 284t-30 278q-68 109 -232 108q-100 0 -209 -56t-170 -148l-102 18l242 791h735l-25 -111h-635l-155 -514q169 131 369 131z
" />
    <glyph glyph-name="six" unicode="6" 
d="M778 815q-156 0 -294 -114q-140 -114 -154 -175q-46 -200 30 -318t246 -118t287 98t154 264q37 165 -38 264t-231 99zM969 1389q-121 -1 -227 -63t-178 -164q-143 -198 -193 -433q219 197 439 197t317 -138t51 -346q-46 -209 -218 -336q-174 -127 -382 -126
q-119 0 -202 42t-123 108t-54 162q-24 163 18 351q75 339 266 588q95 121 229 195t283 73q189 0 324 -123l-84 -100q-72 113 -266 113z" />
    <glyph glyph-name="seven" unicode="7" 
d="M416 1368l24 111h914l-19 -80l-938 -1399h-145l934 1368h-770z" />
    <glyph glyph-name="eight" unicode="8" 
d="M876 1389q-150 0 -252 -66q-103 -66 -132 -193q-47 -211 262 -299q348 88 393 299q29 127 -46 193t-225 66zM590 90q172 0 295 74t153 217q27 111 -49 185t-260 155q-219 -83 -327 -155t-134 -185q-30 -143 60 -217t262 -74zM901 1499q215 0 319 -96t62 -279
q-55 -246 -360 -346q307 -154 252 -397q-90 -401 -609 -401q-247 0 -363 95t-69 306q53 244 428 397q-260 100 -205 346q42 182 186 278t359 97z" />
    <glyph glyph-name="nine" unicode="9" 
d="M840 1389q-170 -1 -287 -99t-155 -267t36 -272t230 -103t295 115q140 116 155 177q45 207 -30 328q-74 121 -244 121zM471 90q123 0 227 55q188 100 298 356q48 110 77 236q-219 -201 -439 -201t-319 140q-98 139 -51 348t221 342t383 133q119 0 202 -42q83 -43 123 -109
q109 -182 28 -555q-73 -311 -240 -545q-88 -123 -217 -196t-281 -72q-221 -1 -356 122l84 105q100 -117 260 -117z" />
    <glyph glyph-name="colon" unicode=":" horiz-adv-x="569" 
d="M510 623h-176l41 184h176zM373 0h-176l41 184h176z" />
    <glyph glyph-name="semicolon" unicode=";" horiz-adv-x="569" 
d="M510 623h-176l41 184h176zM238 184h176l-41 -184l-197 -307h-80l187 307h-86z" />
    <glyph glyph-name="less" unicode="&#x3c;" horiz-adv-x="1228" 
d="M1171 106l-26 -118l-959 487l27 115l1173 487l-26 -119l-1020 -426z" />
    <glyph glyph-name="equal" unicode="=" horiz-adv-x="1228" 
d="M1231 383l-25 -111h-1065l25 111h1065zM1323 793l-25 -111h-1065l25 111h1065z" />
    <glyph glyph-name="greater" unicode="&#x3e;" horiz-adv-x="1228" 
d="M80 -12l26 118l1020 426l-831 426l27 119l956 -487l-27 -115z" />
    <glyph glyph-name="question" unicode="?" horiz-adv-x="796" 
d="M414 0h-176l41 184h176zM729 1499q141 0 220 -89t44 -245q-20 -90 -93 -175q-72 -85 -150 -140t-151 -136t-91 -165l-21 -98h-110l33 147q16 70 84 146t140 134t142 143t89 174t-26 141q-46 52 -137 53q-153 0 -276 -193l-90 51q145 252 393 252z" />
    <glyph glyph-name="at" unicode="@" horiz-adv-x="1638" 
d="M1180 375q123 0 265 161t181 336q53 238 -85 388t-374 149q-275 0 -507 -201t-292 -475t88 -469t418 -194q156 0 320 76t285 206h106q-131 -172 -332 -272t-399 -100q-322 0 -492 224t-99 538t341 536t570 221q300 0 458 -180q160 -180 101 -453q-51 -229 -241 -407
t-355 -178q-57 1 -88 37t-19 106l-6 -4q-164 -139 -294 -139t-187 88t-29 217q52 230 236 418t397 188q161 0 184 -174l84 135h111l-336 -604q-45 -88 -51 -115q-12 -59 41 -59zM778 387q135 0 280 172q144 172 179 328q16 74 -23 136t-100 62q-150 -1 -292 -163t-177 -326
q-19 -92 19 -150t114 -59z" />
    <glyph glyph-name="A" unicode="A" horiz-adv-x="1251" 
d="M51 0l801 1479h207l139 -1479h-143l-43 483h-559l-258 -483h-144zM512 594h494l-74 774h-4z" />
    <glyph glyph-name="B" unicode="B" horiz-adv-x="1366" 
d="M946 1479q272 0 378 -89t65 -282q-27 -119 -93 -194t-188 -126q242 -119 184 -382q-49 -218 -205 -312t-411 -94h-471l327 1479h414zM844 823q346 0 407 275q35 156 -48 213t-294 57h-266l-121 -545h322zM715 111q195 1 303 73t138 218q32 146 -53 229q-85 82 -298 82
h-307l-133 -602h350z" />
    <glyph glyph-name="C" unicode="C" horiz-adv-x="1251" 
d="M690 90q164 0 268 95t185 266l121 -23q-190 -449 -600 -448q-266 0 -372 206q-105 207 -30 553q76 346 274 553t463 207q187 -1 279 -117t100 -311l-131 -27q-23 344 -284 345q-209 -1 -355 -181t-210 -470t4 -469t288 -179z" />
    <glyph glyph-name="D" unicode="D" horiz-adv-x="1366" 
d="M950 1479q166 -1 281 -61t164 -162t61 -235q12 -134 -26 -282q-72 -323 -278 -531t-529 -208h-418l327 1479h418zM651 111q244 -1 411 163t232 465q66 301 -27 465t-337 164h-287l-278 -1257h286z" />
    <glyph glyph-name="E" unicode="E" 
d="M1087 0h-882l327 1479h844l-24 -111h-709l-121 -545h510l-24 -110h-510l-133 -602h747z" />
    <glyph glyph-name="F" unicode="F" 
d="M340 0h-135l327 1479h869l-25 -111h-733l-121 -545h535l-25 -110h-534z" />
    <glyph glyph-name="G" unicode="G" horiz-adv-x="1366" 
d="M1004 1499q201 -1 305 -117t100 -311l-131 -22q-4 155 -78 247t-229 93q-197 1 -353 -175t-217 -453t-8 -463q63 -208 343 -208q146 0 264 102t151 254l31 136h-373l25 110h507l-153 -692h-117l33 145h-4q-88 -88 -188 -127t-250 -38q-254 0 -367 200t-34 557
q79 356 287 559t456 203z" />
    <glyph glyph-name="H" unicode="H" horiz-adv-x="1478" 
d="M205 0l327 1479h136l-146 -656h799l145 656h136l-328 -1479h-135l157 713h-798l-158 -713h-135z" />
    <glyph glyph-name="I" unicode="I" horiz-adv-x="569" 
d="M217 0l328 1479h135l-328 -1479h-135z" />
    <glyph glyph-name="J" unicode="J" horiz-adv-x="909" 
d="M362 90q197 0 256 262l250 1127h136l-259 -1168q-37 -163 -147 -247t-253 -84q-144 0 -207 46q-62 46 -99 150l123 64q32 -84 70 -117t130 -33z" />
    <glyph glyph-name="K" unicode="K" horiz-adv-x="1251" 
d="M205 0l327 1479h136l-179 -803l854 803h166l-602 -566l332 -913h-152l-288 815l-350 -321l-109 -494h-135z" />
    <glyph glyph-name="L" unicode="L" horiz-adv-x="1024" 
d="M205 0l327 1479h136l-303 -1368h659l-25 -111h-794z" />
    <glyph glyph-name="M" unicode="M" horiz-adv-x="1705" 
d="M340 0h-135l327 1479h238l129 -1254h4l688 1254h238l-328 -1479h-135l303 1368h-4l-747 -1368h-130l-141 1368h-4z" />
    <glyph glyph-name="N" unicode="N" horiz-adv-x="1478" 
d="M205 0l327 1479h228l430 -1233h4l272 1233h136l-328 -1479h-139l-488 1368h-4l-303 -1368h-135z" />
    <glyph glyph-name="O" unicode="O" horiz-adv-x="1366" 
d="M702 90q207 0 366 171t226 478q68 307 -15 479t-290 171q-207 0 -365 -171q-158 -170 -227 -478q-68 -308 15 -479t290 -171zM1014 1499q272 0 381 -212t35 -548t-277 -548q-203 -211 -475 -211t-381 212t-35 547q74 336 277 548t475 212z" />
    <glyph glyph-name="P" unicode="P" horiz-adv-x="1251" 
d="M821 766q362 0 432 301q66 301 -299 301h-311l-133 -602h311zM979 1479q254 0 352 -109q99 -110 57 -304t-188 -302t-403 -109h-312l-145 -655h-135l327 1479h447z" />
    <glyph glyph-name="Q" unicode="Q" horiz-adv-x="1366" 
d="M989 1389q-207 0 -365 -171q-158 -170 -227 -478t15 -479t290 -171q133 0 250 74q-31 82 -65 115q-35 33 -94 43l28 133q170 -31 244 -197q161 168 229 478t-15 482t-290 171zM1014 1499q272 0 381 -212t35 -548q-86 -391 -334 -598q29 -81 77 -111t146 -30l-27 -123
q-242 0 -305 186q-143 -84 -309 -83q-272 0 -381 212t-35 547q74 336 277 548t475 212z" />
    <glyph glyph-name="R" unicode="R" horiz-adv-x="1366" 
d="M1032 1479q215 0 311 -109t56 -293q-65 -299 -391 -377l206 -700h-147l-195 676h-383l-149 -676h-135l327 1479h500zM879 786q147 0 250 78t133 215t-32 213q-64 76 -222 76h-365l-129 -582h365z" />
    <glyph glyph-name="S" unicode="S" 
d="M852 1499q188 0 292 -92t116 -262l-125 -35q-12 129 -86 204t-207 75q-132 0 -228 -72t-125 -201q-18 -86 24 -144t216 -130q279 -115 355 -211t39 -269q-38 -173 -192 -278q-155 -104 -355 -104t-305 96t-121 299l133 39q9 -324 331 -324q156 0 252 80t124 202t-40 192
t-176 111q-108 40 -216 85t-171 133q-63 89 -29 241t170 258t324 107z" />
    <glyph glyph-name="T" unicode="T" 
d="M367 1368l24 111h1012l-25 -111h-438l-303 -1368h-135l303 1368h-438z" />
    <glyph glyph-name="U" unicode="U" horiz-adv-x="1478" 
d="M760 90q204 0 320 87t163 294l223 1008h136l-222 -996q-111 -504 -645 -503q-535 0 -424 503l221 996h136l-224 -1008q-47 -205 33 -293t283 -88z" />
    <glyph glyph-name="V" unicode="V" 
d="M496 0l-152 1479h143l117 -1286h4l699 1286h143l-819 -1479h-135z" />
    <glyph glyph-name="W" unicode="W" horiz-adv-x="1705" 
d="M424 0l-64 1479h138l43 -1233h4l567 1233h135l17 -1233h4l594 1233h137l-723 -1479h-135l-19 1217h-4l-559 -1217h-135z" />
    <glyph glyph-name="X" unicode="X" 
d="M657 774l-278 705h160l223 -590l477 590h160l-582 -705l297 -774h-160l-245 647l-525 -647h-159z" />
    <glyph glyph-name="Y" unicode="Y" 
d="M494 0l139 627l-264 852h151l203 -731l551 731h151l-657 -852l-139 -627h-135z" />
    <glyph glyph-name="Z" unicode="Z" 
d="M461 1368l24 111h877l-25 -115l-1050 -1253h782l-25 -111h-950l25 111l1050 1257h-708z" />
    <glyph glyph-name="bracketleft" unicode="[" horiz-adv-x="681" 
d="M508 1479h381l-17 -74h-258l-327 -1479h258l-17 -73h-381z" />
    <glyph glyph-name="backslash" unicode="\" horiz-adv-x="569" 
d="M469 -20l-162 1519h113l170 -1519h-121z" />
    <glyph glyph-name="bracketright" unicode="]" horiz-adv-x="681" 
d="M469 -147h-381l16 73h258l328 1479h-258l17 74h380z" />
    <glyph glyph-name="asciicircum" unicode="^" horiz-adv-x="1228" 
d="M887 1479h108l254 -873h-135l-209 725l-520 -725h-135z" />
    <glyph glyph-name="underscore" unicode="_" horiz-adv-x="1024" 
d="M967 -256h-1024l22 102h1024z" />
    <glyph glyph-name="grave" unicode="`" horiz-adv-x="454" 
d="M297 1466h158l163 -282h-104z" />
    <glyph glyph-name="a" unicode="a" horiz-adv-x="1024" 
d="M384 78q84 0 194 48t206 128l78 348q-460 -95 -566 -215q-46 -51 -64 -132t25 -129q42 -48 127 -48zM711 987q-188 0 -353 -192l-71 49q184 242 448 241q184 1 253 -79t30 -254l-123 -557q-21 -91 -27 -195h-118l12 129q-119 -80 -211 -115q-92 -34 -214 -34t-189 74
t-35 214q32 139 128 213q56 43 105 70q104 57 545 149l16 74q25 111 -19 162t-177 51z" />
    <glyph glyph-name="b" unicode="b" 
d="M647 78q154 0 260 122q105 122 151 326t-9 333q-55 128 -218 128q-83 1 -189 -63t-155 -127l-116 -525q49 -96 110 -145t166 -49zM622 -20q-218 0 -296 159l-52 -139h-86l328 1479h123l-123 -553q100 86 182 123t187 36q184 -1 268 -155t28 -408q-57 -254 -199 -398
t-360 -144z" />
    <glyph glyph-name="c" unicode="c" horiz-adv-x="1024" 
d="M752 987q-338 0 -437 -455q-47 -206 15 -330t219 -124q106 0 190 54t179 167l88 -47q-221 -272 -478 -272q-219 0 -305 152q-87 152 -29 410t213 400t365 143q285 1 326 -288l-119 -31q-51 221 -227 221z" />
    <glyph glyph-name="d" unicode="d" 
d="M887 272l117 525q-20 61 -98 126t-161 64q-163 0 -275 -128t-157 -333q-45 -204 6 -326t205 -122q183 -1 363 194zM1278 1479l-328 -1479h-86l10 139q-147 -159 -365 -159t-297 143q-78 143 -22 399t208 410t335 153q104 -1 171 -37t128 -122l123 553h123z" />
    <glyph glyph-name="e" unicode="e" horiz-adv-x="1024" 
d="M954 627q38 356 -227 360q-147 1 -253 -115t-138 -245h618zM548 78q109 0 185 45t182 170l89 -53q-118 -144 -224 -202t-256 -58q-215 0 -304 139q-90 139 -32 401t210 414q153 152 359 152q207 0 281 -152q74 -150 17 -406h-742q-23 -125 -15 -224q8 -98 75 -162
q66 -64 175 -64z" />
    <glyph glyph-name="f" unicode="f" horiz-adv-x="569" 
d="M784 1499q41 0 131 -16l-24 -103q-57 20 -115 21q-145 0 -184 -170l-37 -166h217l-20 -98h-217l-216 -967h-122l215 967h-176l20 98h176l35 152q31 141 107 211t210 71z" />
    <glyph glyph-name="g" unicode="g" horiz-adv-x="1024" 
d="M926 715q30 137 -26 205t-187 68t-221 -74t-119 -202t35 -196t184 -67q274 0 334 266zM496 78q-313 0 -355 -180q-18 -82 54 -129t231 -48q381 0 422 183q16 72 -53 123t-299 51zM557 350q-78 0 -166 33q-102 -35 -121 -102q-6 -35 10 -53q36 -39 285 -39q248 -1 342 -71
q93 -70 65 -203q-28 -132 -160 -212t-387 -80t-345 71t-68 181q16 76 70 131t168 94v4q-133 29 -111 140q15 66 75 116t126 64q-131 104 -92 279t176 279t330 103q137 0 233 -73q113 94 244 94l-25 -111q-121 0 -182 -49q55 -92 27 -223q-41 -185 -177 -279t-317 -94z" />
    <glyph glyph-name="h" unicode="h" 
d="M895 1085q317 0 238 -358l-162 -727h-123l158 715q30 139 -4 206t-152 66q-62 0 -96 -15q-35 -15 -60 -26t-76 -47q-51 -35 -62 -45t-45 -35t-46 -35l-174 -784h-123l328 1479h122l-129 -582q117 98 207 143t199 45z" />
    <glyph glyph-name="i" unicode="i" horiz-adv-x="454" 
d="M578 1298h-123l39 181h122zM524 1065l-235 -1065h-123l235 1065h123z" />
    <glyph glyph-name="j" unicode="j" horiz-adv-x="454" 
d="M578 1298h-123l39 181h122zM7 -377q-87 0 -128 12l21 101q51 -14 84 -15q119 0 145 111l272 1233h123l-272 -1235q-26 -111 -92 -159t-153 -48z" />
    <glyph glyph-name="k" unicode="k" horiz-adv-x="1024" 
d="M291 0h-123l328 1479h122l-217 -979l619 565h141l-434 -397l252 -668h-137l-211 582l-264 -238z" />
    <glyph glyph-name="l" unicode="l" horiz-adv-x="454" 
d="M166 0l328 1479h122l-327 -1479h-123z" />
    <glyph glyph-name="m" unicode="m" horiz-adv-x="1705" 
d="M872 1085q102 0 164 -53q61 -53 64 -141q104 96 196 145t199 49q281 0 217 -288l-176 -797h-123l180 809q37 178 -145 178q-70 0 -182 -62t-179 -141l-174 -784h-122l180 809q37 178 -146 178q-71 0 -183 -62t-177 -141l-174 -784h-123l235 1065h123l-34 -162
q114 98 196 140t184 42z" />
    <glyph glyph-name="n" unicode="n" 
d="M895 1085q317 0 238 -358l-162 -727h-123l158 715q30 139 -4 206t-152 66q-62 0 -96 -15q-35 -15 -60 -26t-76 -47q-51 -35 -62 -45t-45 -35t-46 -35l-174 -784h-123l235 1065h123l-37 -168q117 98 207 143t199 45z" />
    <glyph glyph-name="o" unicode="o" horiz-adv-x="1024" 
d="M752 1085q120 0 198 -46t108 -123q67 -173 11 -384q-55 -244 -192 -398t-369 -154q-121 0 -199 46q-77 46 -107 122q-66 170 -9 384q50 231 185 392q134 161 374 161zM731 987q-315 0 -417 -455t214 -454q314 0 416 454t-213 455z" />
    <glyph glyph-name="p" unicode="p" 
d="M850 987q-63 0 -129 -30t-109 -62t-125 -102l-116 -525q20 -61 97 -126t161 -64q165 0 275 123t155 325t-7 332q-52 129 -202 129zM879 1085q197 1 275 -163t24 -415q-56 -251 -200 -389t-337 -138q-104 0 -171 36t-128 123l-115 -516h-123l320 1442h123l-35 -164h4
q166 184 363 184z" />
    <glyph glyph-name="q" unicode="q" 
d="M725 979q-154 0 -259 -121q-104 -122 -150 -324t10 -329t217 -127q83 0 189 64t155 124l114 520q-47 94 -109 144t-167 49zM736 1077q202 0 313 -157l49 137h86l-318 -1434h-123l115 514q-100 -84 -182 -121t-187 -36q-184 0 -268 154t-28 406q57 252 199 394t344 143z
" />
    <glyph glyph-name="r" unicode="r" horiz-adv-x="681" 
d="M834 1085h55l-25 -118h-55q-109 0 -235 -110t-158 -255l-133 -602h-123l235 1065h123l-45 -203h4q68 100 163 162t194 61z" />
    <glyph glyph-name="s" unicode="s" horiz-adv-x="909" 
d="M484 78q105 0 187 58q81 58 98 138q31 145 -120 193q-172 52 -280 95q-63 26 -98 85q-34 59 -13 148q33 143 144 217q112 74 257 73q248 0 326 -192l-108 -66q-41 80 -97 120t-147 40q-92 0 -161 -47t-87 -129t37 -123q55 -40 142 -64t172 -55t133 -103q47 -72 21 -196
q-26 -126 -153 -208t-278 -82q-269 0 -365 215l105 63q49 -104 115 -142t170 -38z" />
    <glyph glyph-name="t" unicode="t" horiz-adv-x="569" 
d="M408 -20q-127 0 -170 44t-21 142l178 801h-159l20 98h160l78 348h122l-77 -348h233l-20 -98h-234l-174 -781q-25 -109 84 -108q55 0 131 22l-22 -102q-14 -2 -57 -10t-72 -8z" />
    <glyph glyph-name="u" unicode="u" 
d="M479 -20q-315 0 -235 358l159 727h123l-157 -715q-31 -139 3 -206t152 -66q62 0 96 15t55 23q20 8 70 42q51 34 68 49q16 14 50 39t46 35l174 784h123l-235 -1065h-123l37 168q-117 -98 -207 -143t-199 -45z" />
    <glyph glyph-name="v" unicode="v" horiz-adv-x="909" 
d="M393 0l-129 1065h131l97 -877h4l489 877h131l-602 -1065h-121z" />
    <glyph glyph-name="w" unicode="w" horiz-adv-x="1366" 
d="M311 0l-61 1065h125l45 -856h4l432 856h121l49 -856h4l428 856h127l-545 -1065h-120l-50 856h-4l-428 -856h-127z" />
    <glyph glyph-name="x" unicode="x" horiz-adv-x="909" 
d="M555 449l-387 -449h-148l486 565l-209 500h147l162 -385l330 385h147l-430 -500l236 -565h-148z" />
    <glyph glyph-name="y" unicode="y" horiz-adv-x="909" 
d="M63 -377q-72 0 -110 12l20 101l121 -15q160 0 305 295l-139 1049h135l103 -866h4l487 866h131l-649 -1141q-94 -164 -181 -232t-227 -69z" />
    <glyph glyph-name="z" unicode="z" horiz-adv-x="909" 
d="M315 967l21 98h729l-16 -78l-811 -889h630l-22 -98h-795l17 78l813 889h-566z" />
    <glyph glyph-name="braceleft" unicode="{" horiz-adv-x="681" 
d="M725 1499h127l-16 -74h-103q-43 -1 -69 -27t-41 -108l-91 -403q-41 -184 -196 -219v-4q139 -35 98 -220l-90 -403q-14 -86 -2 -111t55 -24h103l-17 -74h-127q-86 0 -120 60t-9 171l88 400q42 166 -86 166l17 73q68 0 104 41t56 125l88 400q25 111 85 171t146 60z" />
    <glyph glyph-name="bar" unicode="|" horiz-adv-x="851" 
d="M539 1731h106v-2306h-106v2306z" />
    <glyph glyph-name="braceright" unicode="}" horiz-adv-x="681" 
d="M252 -168h-127l16 74h103q42 0 68 26t42 109l90 403q41 184 197 220v4q-139 35 -98 219l90 403q14 86 2 111t-55 24h-103l17 74h127q85 0 119 -60t10 -171l-88 -400q-42 -166 86 -166l-17 -73q-67 0 -103 -41t-57 -125l-88 -400q-25 -111 -85 -171t-146 -60z" />
    <glyph glyph-name="asciitilde" unicode="~" horiz-adv-x="1228" 
d="M938 408q-86 0 -236 68t-197 67q-82 0 -164 -73q-28 -26 -71 -71l-57 86q133 172 313 172q86 1 239 -67t208 -68t105 37t116 107l59 -86q-135 -172 -315 -172z" />
    <glyph glyph-name="uni00A0" unicode="&#xa0;" horiz-adv-x="569" 
 />
    <glyph glyph-name="exclamdown" unicode="&#xa1;" horiz-adv-x="454" 
d="M375 1065h176l-41 -184h-176zM223 -414h-176l264 1024h103z" />
    <glyph glyph-name="cent" unicode="&#xa2;" 
d="M606 78q106 0 190 54t179 167l88 -47q-221 -272 -477 -272q-68 0 -117 14l-131 -240h-111l152 277q-102 63 -135 196t6 305q59 268 214 410t365 143q63 0 119 -16l119 219h111l-144 -262q102 -76 121 -229l-119 -31q-20 90 -63 147l-451 -823q37 -12 84 -12zM809 987
q-338 0 -436 -455q-64 -280 65 -395l457 834q-39 16 -86 16z" />
    <glyph glyph-name="sterling" unicode="&#xa3;" 
d="M956 1499q182 0 274 -101q93 -101 87 -274l-125 -28q2 143 -56 218t-200 75t-234 -83q-90 -84 -118 -210t-37 -312h299l-23 -98h-286q-5 -18 -9 -54q-24 -195 -159 -399q190 -143 320 -143t214 60t160 217l108 -25q-152 -362 -483 -362q-92 0 -170 26t-114 50t-111 83
q-127 -134 -264 -159l28 126q307 125 353 580h-228l23 98h215q4 32 14 138t23 163q43 188 180 301t319 113z" />
    <glyph glyph-name="currency" unicode="&#xa4;" 
d="M643 330q164 0 307 122t180 288t-53 287q-90 122 -254 122t-307 -122t-180 -288q-37 -165 53 -287t254 -122zM622 231q-181 0 -292 113l-140 -113l-61 78l135 111q-80 127 -39 318t183 321l-86 110l94 78l90 -112q158 113 339 113t292 -113l139 112l61 -78l-135 -110
q80 -127 39 -319t-182 -320l86 -111l-94 -78l-90 113q-158 -113 -339 -113z" />
    <glyph glyph-name="yen" unicode="&#xa5;" 
d="M1190 901l-23 -98h-266l-133 -176l-6 -25h360l-20 -98h-361l-112 -504h-135l112 504h-360l20 98h361l6 25l-51 176h-271l23 98h221l-170 578h135l203 -731l551 731h135l-434 -578h215z" />
    <glyph glyph-name="brokenbar" unicode="&#xa6;" horiz-adv-x="851" 
d="M539 403h106v-804h-106v804zM539 1556h106v-804h-106v804z" />
    <glyph glyph-name="section" unicode="&#xa7;" horiz-adv-x="1024" 
d="M578 954q-52 0 -102 -34t-62 -88t45 -162t136 -194q79 -87 122 -87q63 0 110 40t59 95q12 54 -40 156q-53 102 -134 188q-82 86 -134 86zM812 1409q-157 0 -191 -164q-17 -81 132 -245q61 -68 123 -140t99 -154t20 -153q-47 -215 -274 -229q84 -134 57 -254t-124 -176
q-98 -56 -204 -58q-106 0 -179 52t-89 139l99 55q10 -68 59 -112t121 -44q182 0 215 152q18 92 -127 270q-61 76 -123 154q-145 186 -119 309q19 97 101 153t184 56l6 4q-109 92 -76 238q23 104 113 171t209 66q209 0 262 -201l-94 -51q-43 162 -200 162z" />
    <glyph glyph-name="dieresis" unicode="&#xa8;" horiz-adv-x="454" 
d="M629 1397h135l-43 -193h-135zM309 1397h135l-43 -193h-135z" />
    <glyph glyph-name="copyright" unicode="&#xa9;" horiz-adv-x="1638" 
d="M899 258q-207 0 -303 137t-50 347t198 344q153 134 362 135q154 0 244 -84t75 -234h-110q-1 91 -61 153t-169 62q-157 0 -269 -106t-146 -266t34 -272q68 -114 218 -114q106 0 193 64t128 160h111q-68 -146 -191 -236t-264 -90zM838 82q272 0 496 190t286 466t-79 468
q-141 190 -413 190t-496 -190t-286 -466t79 -468q141 -190 413 -190zM1151 1499q315 0 488 -223q173 -222 103 -536t-340 -537t-586 -223t-489 223t-104 536q70 313 341 537q272 223 587 223z" />
    <glyph glyph-name="ordfeminine" unicode="&#xaa;" horiz-adv-x="614" 
d="M668 1016l39 172q-19 -6 -71 -18q-192 -42 -249 -99q-29 -29 -37 -65t15 -60q49 -54 193 2q67 27 110 68zM653 1499q117 0 160 -46t21 -150l-72 -320q-12 -68 -17 -131h-90l9 78q-127 -90 -261 -90q-84 0 -128 45q-45 45 -29 113t54 114q76 90 328 142q73 15 97 22l12 51
q17 92 -112 90q-117 0 -211 -100l-58 41q119 141 297 141z" />
    <glyph glyph-name="guillemotleft" unicode="&#xab;" horiz-adv-x="1024" 
d="M739 848l-323 -311l182 -320h-135l-176 320l317 311h135zM1044 848l-325 -311l184 -320h-135l-178 320l319 311h135z" />
    <glyph glyph-name="logicalnot" unicode="&#xac;" horiz-adv-x="1228" 
d="M1096 272l92 410h-955l25 111h1065l-117 -521h-110z" />
    <glyph glyph-name="uni00AD" unicode="&#xad;" horiz-adv-x="681" 
d="M702 477h-509l24 111h510z" />
    <glyph glyph-name="registered" unicode="&#xae;" horiz-adv-x="1638" 
d="M838 82q272 0 496 190t286 466t-79 468q-141 190 -413 190t-496 -190t-286 -466t79 -468q141 -190 413 -190zM1151 1499q315 0 488 -223q173 -222 103 -536t-340 -537t-586 -223t-489 223t-104 536q70 313 341 537q272 223 587 223zM980 791q108 0 174 18q83 23 105 121
q21 98 -26 128t-135 29h-197l-65 -296h144zM1147 1190q291 0 237 -250q-47 -207 -266 -252l164 -401h-139l-158 401h-174l-88 -401h-123l201 903h346z" />
    <glyph glyph-name="macron" unicode="&#xaf;" horiz-adv-x="454" 
d="M205 1264l20 90h606l-20 -90h-606z" />
    <glyph glyph-name="degree" unicode="&#xb0;" horiz-adv-x="819" 
d="M741 1499q125 0 194 -87t40 -212t-134 -212t-231 -87t-194 87t-39 212t134 212t230 87zM723 1413q-90 0 -161 -60q-71 -61 -91 -153t24 -152t134 -60t161 60t91 152t-24 152t-134 61z" />
    <glyph glyph-name="plusminus" unicode="&#xb1;" horiz-adv-x="1228" 
d="M82 0l24 111h1065l-24 -111h-1065zM711 686l84 379h110l-84 -379h477l-24 -111h-477l-84 -378h-111l84 378h-477l24 111h478z" />
    <glyph glyph-name="twosuperior" unicode="&#xb2;" horiz-adv-x="681" 
d="M684 1409q-186 0 -270 -178l-90 14q49 119 148 187t226 68q128 0 188 -72q60 -71 32 -195q-19 -95 -97 -159q-77 -65 -157 -112q-80 -48 -198 -124t-144 -104t-31 -46h504l-19 -90h-610l14 68q14 61 76 122t242 170q176 100 238 158t78 130q16 71 -19 117t-111 46z" />
    <glyph glyph-name="threesuperior" unicode="&#xb3;" horiz-adv-x="681" 
d="M487 676q100 0 167 45t86 131t-38 129t-182 43h-88l21 90h71q242 0 279 160q14 61 -28 98t-120 37t-128 -19t-113 -83l-62 47q135 145 318 145q116 0 190 -56q74 -55 54 -149t-59 -141q-38 -47 -126 -80q154 -57 117 -225q-29 -133 -133 -198t-256 -64q-240 0 -285 176
l96 49q25 -79 72 -107t147 -28z" />
    <glyph glyph-name="acute" unicode="&#xb4;" horiz-adv-x="454" 
d="M651 1466h158l-344 -282h-105z" />
    <glyph glyph-name="mu" unicode="&#xb5;" 
d="M473 -20q-115 0 -176 49l-90 -406h-123l319 1442h123l-157 -715q-31 -139 3 -206t152 -66q62 0 96 15t55 23q20 8 70 42q51 34 68 49q16 14 50 39t46 35l174 784h123l-235 -1065h-123l37 168q-117 -98 -207 -143t-205 -45z" />
    <glyph glyph-name="paragraph" unicode="&#xb6;" horiz-adv-x="1024" 
d="M420 -164l188 852q-178 0 -274 115t-62 274q44 193 186 297t359 105h539l-21 -90h-151l-344 -1553h-103l344 1553h-215l-344 -1553h-102z" />
    <glyph glyph-name="periodcentered" unicode="&#xb7;" horiz-adv-x="569" 
d="M426 635q40 0 64 -30t15 -73q-9 -42 -46 -72t-78 -30t-66 30t-15 72t47 73q38 30 79 30z" />
    <glyph glyph-name="cedilla" unicode="&#xb8;" horiz-adv-x="454" 
d="M74 -344q133 0 153 84q7 40 -15 62t-64 22t-89 -19l-24 27l160 168h77l-110 -102l2 -4q29 12 67 12q74 0 107 -46q34 -46 16 -124t-96 -120t-175 -42t-169 41l45 74q82 -33 115 -33z" />
    <glyph glyph-name="onesuperior" unicode="&#xb9;" horiz-adv-x="681" 
d="M696 598h-413l18 90h150l157 709l-176 -41l17 76l204 67h84l-180 -811h158z" />
    <glyph glyph-name="ordmasculine" unicode="&#xba;" horiz-adv-x="614" 
d="M638 1499q151 0 198 -92q47 -91 15 -237t-120 -238q-89 -92 -239 -92t-197 92t-14 237q31 145 118 238q88 92 239 92zM514 934q94 0 145 57t79 174q57 238 -120 240q-94 -1 -145 -59t-79 -176t-1 -177t121 -59z" />
    <glyph glyph-name="guillemotright" unicode="&#xbb;" horiz-adv-x="1024" 
d="M520 217l324 311l-182 320h135l176 -320l-318 -311h-135zM215 217l326 311l-185 320h136l178 -320l-320 -311h-135z" />
    <glyph glyph-name="onequarter" unicode="&#xbc;" horiz-adv-x="1708" 
d="M367 -20l1245 1519h117l-1242 -1519h-120zM745 598h-413l18 90h150l157 709l-176 -41l17 76l204 67h84l-180 -811h158zM993 213l23 98l528 578h137l-129 -586h146l-21 -90h-145l-47 -213h-107l47 213h-432zM1540 766l-412 -463h318l102 463h-8z" />
    <glyph glyph-name="onehalf" unicode="&#xbd;" horiz-adv-x="1708" 
d="M342 -20l1245 1519h117l-1241 -1519h-121zM1526 811q-189 0 -269 -178l-92 14q49 119 149 187t228 68q126 0 186 -72q60 -71 34 -194t-176 -221q-32 -22 -94 -60q-284 -174 -335 -228q-16 -20 -22 -37h503l-20 -90h-610l14 68q14 61 76 122t241 170q175 102 239 160
t80 128q16 71 -21 117q-36 46 -111 46zM745 598h-413l18 90h150l157 709l-176 -41l17 76l204 67h84l-180 -811h158z" />
    <glyph glyph-name="threequarters" unicode="&#xbe;" horiz-adv-x="1708" 
d="M399 -20l1246 1519h116l-1241 -1519h-121zM544 676q100 0 168 45q67 45 86 131t-38 129t-182 43h-89l21 90h72q242 0 278 160q14 61 -27 98q-42 37 -120 37t-128 -19t-114 -83l-61 47q135 145 317 145q117 0 191 -56q74 -55 54 -149t-60 -141q-38 -47 -126 -80
q154 -57 117 -225q-29 -133 -133 -198t-256 -64q-240 0 -285 176l97 49q26 -79 72 -107t146 -28zM993 213l23 98l528 578h137l-129 -586h146l-21 -90h-145l-47 -213h-107l47 213h-432zM1540 766l-412 -463h318l102 463h-8z" />
    <glyph glyph-name="questiondown" unicode="&#xbf;" horiz-adv-x="796" 
d="M618 1065h177l-41 -184h-176zM303 -434q-141 0 -220 89t-47 236t184 272q62 52 125 103q150 123 179 250l23 98h110l-32 -147q-21 -100 -166 -228q-59 -53 -119 -107q-143 -131 -172 -259q-18 -92 28 -144t134 -53q159 0 276 193l90 -51q-145 -252 -393 -252z" />
    <glyph glyph-name="Agrave" unicode="&#xc0;" horiz-adv-x="1251" 
d="M770 1825h158l164 -283h-105zM51 0l801 1479h207l139 -1479h-143l-43 483h-559l-258 -483h-144zM512 594h494l-74 774h-4z" />
    <glyph glyph-name="Aacute" unicode="&#xc1;" horiz-adv-x="1251" 
d="M1124 1825h158l-344 -283h-104zM51 0l801 1479h207l139 -1479h-143l-43 483h-559l-258 -483h-144zM512 594h494l-74 774h-4z" />
    <glyph glyph-name="Acircumflex" unicode="&#xc2;" horiz-adv-x="1251" 
d="M1096 1825l170 -283h-136l-122 207l-213 -207h-136l297 283h140zM51 0l801 1479h207l139 -1479h-143l-43 483h-559l-258 -483h-144zM512 594h494l-74 774h-4z" />
    <glyph glyph-name="Atilde" unicode="&#xc3;" horiz-adv-x="1251" 
d="M858 1763q62 0 156 -45q92 -45 130 -45t68 30t45 71h78q-78 -199 -227 -199q-41 0 -135 46t-131 46q-78 0 -119 -102h-78q25 78 88 138t125 60zM51 0l801 1479h207l139 -1479h-143l-43 483h-559l-258 -483h-144zM512 594h494l-74 774h-4z" />
    <glyph glyph-name="Adieresis" unicode="&#xc4;" horiz-adv-x="1251" 
d="M1102 1755h135l-43 -192h-135zM782 1755h136l-44 -192h-135zM51 0l801 1479h207l139 -1479h-143l-43 483h-559l-258 -483h-144zM512 594h494l-74 774h-4z" />
    <glyph glyph-name="Aring" unicode="&#xc5;" horiz-adv-x="1251" 
d="M1036 1874q-55 0 -104 -39q-50 -39 -62 -96t20 -97t87 -38q55 0 103 38t60 96t-18 97q-31 39 -86 39zM1051 1944q84 0 132 -60q49 -60 29 -145t-94 -145t-158 -60t-131 59t-27 145t92 146q73 60 157 60zM51 0l801 1479h207l139 -1479h-143l-43 483h-559l-258 -483h-144z
M512 594h494l-74 774h-4z" />
    <glyph glyph-name="AE" unicode="&#xc6;" horiz-adv-x="1933" 
d="M37 0l1151 1479h952l-24 -111h-697l-121 -545h498l-24 -110h-498l-133 -602h735l-25 -111h-870l106 483h-534l-365 -483h-151zM643 594h469l172 770h-35z" />
    <glyph glyph-name="Ccedilla" unicode="&#xc7;" horiz-adv-x="1251" 
d="M690 90q164 0 268 95t185 266l121 -23q-190 -449 -600 -448l-89 -82l3 -4q29 12 67 12q74 0 107 -46q34 -46 16 -124t-96 -120t-176 -42t-168 41l45 74q82 -33 114 -33q133 0 154 84q7 40 -15 62t-65 22t-88 -19l-24 27l143 152q-229 29 -316 231q-86 203 -12 537
t272 540q198 207 463 207q187 -1 279 -117t100 -311l-131 -27q-23 344 -284 345q-209 -1 -355 -181t-210 -470t4 -469t288 -179z" />
    <glyph glyph-name="Egrave" unicode="&#xc8;" 
d="M780 1825h158l164 -283h-105zM1087 0h-882l327 1479h844l-24 -111h-709l-121 -545h510l-24 -110h-510l-133 -602h747z" />
    <glyph glyph-name="Eacute" unicode="&#xc9;" 
d="M1135 1825h157l-344 -283h-104zM1087 0h-882l327 1479h844l-24 -111h-709l-121 -545h510l-24 -110h-510l-133 -602h747z" />
    <glyph glyph-name="Ecircumflex" unicode="&#xca;" 
d="M1106 1825l170 -283h-135l-123 207l-213 -207h-135l297 283h139zM1087 0h-882l327 1479h844l-24 -111h-709l-121 -545h510l-24 -110h-510l-133 -602h747z" />
    <glyph glyph-name="Edieresis" unicode="&#xcb;" 
d="M1112 1755h135l-43 -192h-135zM793 1755h135l-43 -192h-135zM1087 0h-882l327 1479h844l-24 -111h-709l-121 -545h510l-24 -110h-510l-133 -602h747z" />
    <glyph glyph-name="Igrave" unicode="&#xcc;" horiz-adv-x="569" 
d="M420 1825h158l163 -283h-104zM217 0l328 1479h135l-328 -1479h-135z" />
    <glyph glyph-name="Iacute" unicode="&#xcd;" horiz-adv-x="569" 
d="M774 1825h158l-344 -283h-105zM217 0l328 1479h135l-328 -1479h-135z" />
    <glyph glyph-name="Icircumflex" unicode="&#xce;" horiz-adv-x="569" 
d="M745 1825l170 -283h-135l-123 207l-213 -207h-135l297 283h139zM217 0l328 1479h135l-328 -1479h-135z" />
    <glyph glyph-name="Idieresis" unicode="&#xcf;" horiz-adv-x="569" 
d="M752 1755h135l-43 -192h-135zM432 1755h135l-43 -192h-135zM217 0l328 1479h135l-328 -1479h-135z" />
    <glyph glyph-name="Eth" unicode="&#xd0;" horiz-adv-x="1366" 
d="M950 1479q166 -1 281 -61t164 -162t61 -235q12 -134 -26 -282q-72 -323 -278 -531t-529 -208h-418l157 713h-184l25 110h184l145 656h418zM651 111q244 -1 411 163t232 465q66 301 -27 465t-337 164h-287l-121 -545h402l-25 -110h-401l-133 -602h286z" />
    <glyph glyph-name="Ntilde" unicode="&#xd1;" horiz-adv-x="1478" 
d="M978 1763q62 0 154 -45t130 -45t68 30t46 71h78q-78 -199 -227 -199q-41 0 -135 46t-131 46q-78 0 -119 -102h-78q25 78 88 138q64 60 126 60zM205 0l327 1479h228l430 -1233h4l272 1233h136l-328 -1479h-139l-488 1368h-4l-303 -1368h-135z" />
    <glyph glyph-name="Ograve" unicode="&#xd2;" horiz-adv-x="1366" 
d="M834 1825h157l164 -283h-104zM702 90q207 0 366 171t226 478q68 307 -15 479t-290 171q-207 0 -365 -171q-158 -170 -227 -478q-68 -308 15 -479t290 -171zM1014 1499q272 0 381 -212t35 -548t-277 -548q-203 -211 -475 -211t-381 212t-35 547q74 336 277 548t475 212z
" />
    <glyph glyph-name="Oacute" unicode="&#xd3;" horiz-adv-x="1366" 
d="M1188 1825h158l-345 -283h-104zM702 90q207 0 366 171t226 478q68 307 -15 479t-290 171q-207 0 -365 -171q-158 -170 -227 -478q-68 -308 15 -479t290 -171zM1014 1499q272 0 381 -212t35 -548t-277 -548q-203 -211 -475 -211t-381 212t-35 547q74 336 277 548t475 212z
" />
    <glyph glyph-name="Ocircumflex" unicode="&#xd4;" horiz-adv-x="1366" 
d="M1159 1825l170 -283h-135l-123 207l-213 -207h-135l297 283h139zM702 90q207 0 366 171t226 478q68 307 -15 479t-290 171q-207 0 -365 -171q-158 -170 -227 -478q-68 -308 15 -479t290 -171zM1014 1499q272 0 381 -212t35 -548t-277 -548q-203 -211 -475 -211t-381 212
t-35 547q74 336 277 548t475 212z" />
    <glyph glyph-name="Otilde" unicode="&#xd5;" horiz-adv-x="1366" 
d="M922 1763q62 0 155 -45q92 -45 130 -45t68 30t46 71h78q-78 -199 -228 -199q-41 0 -135 46t-131 46q-78 0 -119 -102h-77q25 78 88 138t125 60zM702 90q207 0 366 171t226 478q68 307 -15 479t-290 171q-207 0 -365 -171q-158 -170 -227 -478q-68 -308 15 -479t290 -171z
M1014 1499q272 0 381 -212t35 -548t-277 -548q-203 -211 -475 -211t-381 212t-35 547q74 336 277 548t475 212z" />
    <glyph glyph-name="Odieresis" unicode="&#xd6;" horiz-adv-x="1366" 
d="M1165 1755h135l-43 -192h-135zM846 1755h135l-43 -192h-135zM702 90q207 0 366 171t226 478q68 307 -15 479t-290 171q-207 0 -365 -171q-158 -170 -227 -478q-68 -308 15 -479t290 -171zM1014 1499q272 0 381 -212t35 -548t-277 -548q-203 -211 -475 -211t-381 212
t-35 547q74 336 277 548t475 212z" />
    <glyph glyph-name="multiply" unicode="&#xd7;" horiz-adv-x="1228" 
d="M1366 987l-555 -455l352 -454l-94 -78l-354 455l-555 -455l-62 78l557 454l-354 455l94 78l355 -455l555 455z" />
    <glyph glyph-name="Oslash" unicode="&#xd8;" horiz-adv-x="1366" 
d="M1014 1499q201 0 317 -123l172 201h129l-243 -281q121 -205 44 -549t-280 -556t-475 -211q-199 0 -316 120l-172 -198h-129l242 280q-119 207 -43 550t279 555t475 212zM989 1389q-207 0 -365 -171t-224 -463q-64 -292 -1 -460l844 979q-84 115 -254 115zM702 90
q207 0 366 171t223 468t1 453l-841 -979q82 -113 251 -113z" />
    <glyph glyph-name="Ugrave" unicode="&#xd9;" horiz-adv-x="1478" 
d="M879 1825h157l164 -283h-104zM760 90q204 0 320 87t163 294l223 1008h136l-222 -996q-111 -504 -645 -503q-535 0 -424 503l221 996h136l-224 -1008q-47 -205 33 -293t283 -88z" />
    <glyph glyph-name="Uacute" unicode="&#xda;" horiz-adv-x="1478" 
d="M1233 1825h158l-344 -283h-105zM760 90q204 0 320 87t163 294l223 1008h136l-222 -996q-111 -504 -645 -503q-535 0 -424 503l221 996h136l-224 -1008q-47 -205 33 -293t283 -88z" />
    <glyph glyph-name="Ucircumflex" unicode="&#xdb;" horiz-adv-x="1478" 
d="M1204 1825l170 -283h-135l-123 207l-213 -207h-135l297 283h139zM760 90q204 0 320 87t163 294l223 1008h136l-222 -996q-111 -504 -645 -503q-535 0 -424 503l221 996h136l-224 -1008q-47 -205 33 -293t283 -88z" />
    <glyph glyph-name="Udieresis" unicode="&#xdc;" horiz-adv-x="1478" 
d="M1210 1755h136l-43 -192h-136zM891 1755h135l-43 -192h-135zM760 90q204 0 320 87t163 294l223 1008h136l-222 -996q-111 -504 -645 -503q-535 0 -424 503l221 996h136l-224 -1008q-47 -205 33 -293t283 -88z" />
    <glyph glyph-name="Yacute" unicode="&#xdd;" 
d="M1073 1825h158l-344 -283h-105zM494 0l139 627l-264 852h151l203 -731l551 731h151l-657 -852l-139 -627h-135z" />
    <glyph glyph-name="Thorn" unicode="&#xde;" horiz-adv-x="1251" 
d="M754 459q365 0 430 301q33 150 -38 226t-259 75h-312l-133 -602h312zM911 1171q254 0 353 -108q98 -109 55 -303q-92 -412 -590 -412h-311l-78 -348h-135l327 1479h136l-68 -308h311z" />
    <glyph glyph-name="germandbls" unicode="&#xdf;" horiz-adv-x="1024" 
d="M633 78q104 0 182 85t115 249q73 324 -301 325l20 99q283 6 344 282q29 125 -19 194q-48 68 -169 68t-189 -81t-94 -201l-243 -1098h-123l241 1092q39 178 155 282t282 104t242 -102q76 -104 40 -262q-49 -217 -258 -307q127 -43 176 -145t19 -250q-45 -201 -163 -317
t-284 -115q-109 0 -178 47l64 92q68 -41 141 -41z" />
    <glyph glyph-name="agrave" unicode="&#xe0;" horiz-adv-x="1024" 
d="M582 1466h157l164 -282h-104zM384 78q84 0 194 48t206 128l78 348q-460 -95 -566 -215q-46 -51 -64 -132t25 -129q42 -48 127 -48zM711 987q-188 0 -353 -192l-71 49q184 242 448 241q184 1 253 -79t30 -254l-123 -557q-21 -91 -27 -195h-118l12 129q-119 -80 -211 -115
q-92 -34 -214 -34t-189 74t-35 214q32 139 128 213q56 43 105 70q104 57 545 149l16 74q25 111 -19 162t-177 51z" />
    <glyph glyph-name="aacute" unicode="&#xe1;" horiz-adv-x="1024" 
d="M936 1466h158l-344 -282h-105zM384 78q84 0 194 48t206 128l78 348q-460 -95 -566 -215q-46 -51 -64 -132t25 -129q42 -48 127 -48zM711 987q-188 0 -353 -192l-71 49q184 242 448 241q184 1 253 -79t30 -254l-123 -557q-21 -91 -27 -195h-118l12 129q-119 -80 -211 -115
q-92 -34 -214 -34t-189 74t-35 214q32 139 128 213q56 43 105 70q104 57 545 149l16 74q25 111 -19 162t-177 51z" />
    <glyph glyph-name="acircumflex" unicode="&#xe2;" horiz-adv-x="1024" 
d="M907 1466l170 -282h-135l-121 207l-215 -207h-135l297 282h139zM384 78q84 0 194 48t206 128l78 348q-460 -95 -566 -215q-46 -51 -64 -132t25 -129q42 -48 127 -48zM711 987q-188 0 -353 -192l-71 49q184 242 448 241q184 1 253 -79t30 -254l-123 -557q-21 -91 -27 -195
h-118l12 129q-119 -80 -211 -115q-92 -34 -214 -34t-189 74t-35 214q32 139 128 213q56 43 105 70q104 57 545 149l16 74q25 111 -19 162t-177 51z" />
    <glyph glyph-name="atilde" unicode="&#xe3;" horiz-adv-x="1024" 
d="M955 1315q38 0 68 30t46 70h78q-78 -199 -225 -198q-44 0 -138 46t-129 46q-81 -1 -118 -103h-78q23 76 86 137t127 61t155 -44q90 -45 128 -45zM384 78q84 0 194 48t206 128l78 348q-460 -95 -566 -215q-46 -51 -64 -132t25 -129q42 -48 127 -48zM711 987
q-188 0 -353 -192l-71 49q184 242 448 241q184 1 253 -79t30 -254l-123 -557q-21 -91 -27 -195h-118l12 129q-119 -80 -211 -115q-92 -34 -214 -34t-189 74t-35 214q32 139 128 213q56 43 105 70q104 57 545 149l16 74q25 111 -19 162t-177 51z" />
    <glyph glyph-name="adieresis" unicode="&#xe4;" horiz-adv-x="1024" 
d="M913 1397h136l-43 -193h-136zM594 1397h135l-43 -193h-135zM384 78q84 0 194 48t206 128l78 348q-460 -95 -566 -215q-46 -51 -64 -132t25 -129q42 -48 127 -48zM711 987q-188 0 -353 -192l-71 49q184 242 448 241q184 1 253 -79t30 -254l-123 -557q-21 -91 -27 -195
h-118l12 129q-119 -80 -211 -115q-92 -34 -214 -34t-189 74t-35 214q32 139 128 213q56 43 105 70q104 57 545 149l16 74q25 111 -19 162t-177 51z" />
    <glyph glyph-name="aring" unicode="&#xe5;" horiz-adv-x="1024" 
d="M848 1516q-56 0 -104 -39t-61 -97t19 -96q32 -39 86 -39q55 0 104 39q48 39 61 95t-18 97q-32 40 -87 40zM864 1585q84 0 131 -59q47 -60 28 -146t-93 -145t-158 -59t-131 59t-29 145q20 86 94 146t158 59zM384 78q84 0 194 48t206 128l78 348q-460 -95 -566 -215
q-46 -51 -64 -132t25 -129q42 -48 127 -48zM711 987q-188 0 -353 -192l-71 49q184 242 448 241q184 1 253 -79t30 -254l-123 -557q-21 -91 -27 -195h-118l12 129q-119 -80 -211 -115q-92 -34 -214 -34t-189 74t-35 214q32 139 128 213q56 43 105 70q104 57 545 149l16 74
q25 111 -19 162t-177 51z" />
    <glyph glyph-name="ae" unicode="&#xe6;" horiz-adv-x="1593" 
d="M1321 987q-131 0 -227 -101t-140 -259h570q41 360 -203 360zM1123 78q103 0 179 45t183 170l88 -53q-119 -144 -224 -202t-255 -58q-207 0 -301 180q-186 -180 -451 -180q-127 0 -194 74t-37 204q34 157 146 240q113 84 342 142q91 24 167 41t82 19l16 74q20 90 -21 152
q-42 61 -157 61q-207 0 -324 -196l-79 53q157 242 407 242t295 -175q158 174 363 174q205 -1 269 -149t7 -408h-692q-25 -125 -23 -224q3 -98 57 -162t157 -64zM386 78q86 0 190 48t172 128l77 348q-427 -96 -530 -215q-45 -51 -63 -132t25 -129q42 -48 129 -48z" />
    <glyph glyph-name="ccedilla" unicode="&#xe7;" horiz-adv-x="1024" 
d="M752 987q-338 0 -437 -455q-47 -206 15 -330t219 -124q106 0 190 54t179 167l88 -47q-217 -270 -471 -272l-89 -82l3 -4q29 12 67 12q74 0 107 -46t15 -124t-95 -120t-175 -42t-169 41l45 74q82 -33 114 -33q133 0 154 84q8 40 -14 62t-66 22q-43 0 -88 -19l-25 27
l144 152q-182 22 -252 172t-18 376q59 268 214 410t365 143q285 1 326 -288l-119 -31q-51 221 -227 221z" />
    <glyph glyph-name="egrave" unicode="&#xe8;" horiz-adv-x="1024" 
d="M582 1466h157l164 -282h-104zM954 627q38 356 -227 360q-147 1 -253 -115t-138 -245h618zM548 78q109 0 185 45t182 170l89 -53q-118 -144 -224 -202t-256 -58q-215 0 -304 139q-90 139 -32 401t210 414q153 152 359 152q207 0 281 -152q74 -150 17 -406h-742
q-23 -125 -15 -224q8 -98 75 -162q66 -64 175 -64z" />
    <glyph glyph-name="eacute" unicode="&#xe9;" horiz-adv-x="1024" 
d="M936 1466h158l-344 -282h-105zM954 627q38 356 -227 360q-147 1 -253 -115t-138 -245h618zM548 78q109 0 185 45t182 170l89 -53q-118 -144 -224 -202t-256 -58q-215 0 -304 139q-90 139 -32 401t210 414q153 152 359 152q207 0 281 -152q74 -150 17 -406h-742
q-23 -125 -15 -224q8 -98 75 -162q66 -64 175 -64z" />
    <glyph glyph-name="ecircumflex" unicode="&#xea;" horiz-adv-x="1024" 
d="M907 1466l170 -282h-135l-121 207l-215 -207h-135l297 282h139zM954 627q38 356 -227 360q-147 1 -253 -115t-138 -245h618zM548 78q109 0 185 45t182 170l89 -53q-118 -144 -224 -202t-256 -58q-215 0 -304 139q-90 139 -32 401t210 414q153 152 359 152q207 0 281 -152
q74 -150 17 -406h-742q-23 -125 -15 -224q8 -98 75 -162q66 -64 175 -64z" />
    <glyph glyph-name="edieresis" unicode="&#xeb;" horiz-adv-x="1024" 
d="M913 1397h136l-43 -193h-136zM594 1397h135l-43 -193h-135zM954 627q38 356 -227 360q-147 1 -253 -115t-138 -245h618zM548 78q109 0 185 45t182 170l89 -53q-118 -144 -224 -202t-256 -58q-215 0 -304 139q-90 139 -32 401t210 414q153 152 359 152q207 0 281 -152
q74 -150 17 -406h-742q-23 -125 -15 -224q8 -98 75 -162q66 -64 175 -64z" />
    <glyph glyph-name="igrave" unicode="&#xec;" horiz-adv-x="454" 
d="M297 1466h158l163 -282h-104zM524 1065l-235 -1065h-123l235 1065h123z" />
    <glyph glyph-name="iacute" unicode="&#xed;" horiz-adv-x="454" 
d="M651 1466h158l-344 -282h-105zM524 1065l-235 -1065h-123l235 1065h123z" />
    <glyph glyph-name="icircumflex" unicode="&#xee;" horiz-adv-x="454" 
d="M623 1466l170 -282h-136l-120 207l-215 -207h-136l297 282h140zM524 1065l-235 -1065h-123l235 1065h123z" />
    <glyph glyph-name="idieresis" unicode="&#xef;" horiz-adv-x="454" 
d="M629 1397h135l-43 -193h-135zM309 1397h135l-43 -193h-135zM524 1065l-235 -1065h-123l235 1065h123z" />
    <glyph glyph-name="eth" unicode="&#xf0;" horiz-adv-x="1024" 
d="M752 1085q121 0 194 -45l4 4q-31 102 -94 199l-233 -108l-39 82l213 100q-55 63 -125 108l121 54q78 -61 118 -109l234 109l39 -82l-213 -101q203 -285 98 -764q-55 -244 -192 -398t-369 -154q-121 0 -199 46q-77 46 -107 122q-66 170 -9 384q50 231 185 392
q134 161 374 161zM731 987q-315 0 -417 -455t214 -454q314 0 416 454t-213 455z" />
    <glyph glyph-name="ntilde" unicode="&#xf1;" 
d="M998 1315q38 0 68 30t46 70h78q-78 -199 -225 -198q-43 0 -137 46t-130 46q-81 -1 -118 -103h-78q23 76 86 137q64 61 128 61t154 -44q90 -45 128 -45zM895 1085q317 0 238 -358l-162 -727h-123l158 715q30 139 -4 206t-152 66q-62 0 -96 -15q-35 -15 -60 -26t-76 -47
q-51 -35 -62 -45t-45 -35t-46 -35l-174 -784h-123l235 1065h123l-37 -168q117 98 207 143t199 45z" />
    <glyph glyph-name="ograve" unicode="&#xf2;" horiz-adv-x="1024" 
d="M571 1466h158l164 -282h-105zM752 1085q120 0 198 -46t108 -123q67 -173 11 -384q-55 -244 -192 -398t-369 -154q-121 0 -199 46q-77 46 -107 122q-66 170 -9 384q50 231 185 392q134 161 374 161zM731 987q-315 0 -417 -455t214 -454q314 0 416 454t-213 455z" />
    <glyph glyph-name="oacute" unicode="&#xf3;" horiz-adv-x="1024" 
d="M926 1466h157l-344 -282h-104zM752 1085q120 0 198 -46t108 -123q67 -173 11 -384q-55 -244 -192 -398t-369 -154q-121 0 -199 46q-77 46 -107 122q-66 170 -9 384q50 231 185 392q134 161 374 161zM731 987q-315 0 -417 -455t214 -454q314 0 416 454t-213 455z" />
    <glyph glyph-name="ocircumflex" unicode="&#xf4;" horiz-adv-x="1024" 
d="M897 1466l170 -282h-135l-121 207l-215 -207h-135l297 282h139zM752 1085q120 0 198 -46t108 -123q67 -173 11 -384q-55 -244 -192 -398t-369 -154q-121 0 -199 46q-77 46 -107 122q-66 170 -9 384q50 231 185 392q134 161 374 161zM731 987q-315 0 -417 -455t214 -454
q314 0 416 454t-213 455z" />
    <glyph glyph-name="otilde" unicode="&#xf5;" horiz-adv-x="1024" 
d="M945 1315q38 0 68 30t46 70h78q-78 -199 -226 -198q-43 0 -137 46t-129 46q-82 -1 -119 -103h-77q23 76 86 137t127 61t155 -44q90 -45 128 -45zM752 1085q120 0 198 -46t108 -123q67 -173 11 -384q-55 -244 -192 -398t-369 -154q-121 0 -199 46q-77 46 -107 122
q-66 170 -9 384q50 231 185 392q134 161 374 161zM731 987q-315 0 -417 -455t214 -454q314 0 416 454t-213 455z" />
    <glyph glyph-name="odieresis" unicode="&#xf6;" horiz-adv-x="1024" 
d="M903 1397h135l-43 -193h-135zM584 1397h135l-43 -193h-135zM752 1085q120 0 198 -46t108 -123q67 -173 11 -384q-55 -244 -192 -398t-369 -154q-121 0 -199 46q-77 46 -107 122q-66 170 -9 384q50 231 185 392q134 161 374 161zM731 987q-315 0 -417 -455t214 -454
q314 0 416 454t-213 455z" />
    <glyph glyph-name="divide" unicode="&#xf7;" horiz-adv-x="1228" 
d="M659 205q47 0 75 -35t18 -82t-54 -82t-90 -35q-48 0 -74 35t-16 82q8 47 51 82t90 35zM856 1094q47 0 75 -35q27 -35 17 -82t-53 -82t-90 -35t-74 35t-16 82q10 47 52 82t89 35zM1253 477h-1065l25 111h1065z" />
    <glyph glyph-name="oslash" unicode="&#xf8;" horiz-adv-x="1024" 
d="M765 1085q134 0 214 -67l176 211h117l-232 -277q88 -139 29 -420q-55 -244 -192 -398t-369 -154q-147 0 -225 67l-177 -211h-114l229 275q-92 143 -28 421q50 231 185 392q134 161 387 161zM528 78q315 0 418 454q45 212 6 314l-594 -709q59 -59 170 -59zM731 987
q-315 0 -416 -455q-47 -200 -6 -315l594 709q-59 61 -172 61z" />
    <glyph glyph-name="ugrave" unicode="&#xf9;" 
d="M639 1466h158l164 -282h-105zM479 -20q-315 0 -235 358l159 727h123l-157 -715q-31 -139 3 -206t152 -66q62 0 96 15t55 23q20 8 70 42q51 34 68 49q16 14 50 39t46 35l174 784h123l-235 -1065h-123l37 168q-117 -98 -207 -143t-199 -45z" />
    <glyph glyph-name="uacute" unicode="&#xfa;" 
d="M993 1466h158l-344 -282h-105zM479 -20q-315 0 -235 358l159 727h123l-157 -715q-31 -139 3 -206t152 -66q62 0 96 15t55 23q20 8 70 42q51 34 68 49q16 14 50 39t46 35l174 784h123l-235 -1065h-123l37 168q-117 -98 -207 -143t-199 -45z" />
    <glyph glyph-name="ucircumflex" unicode="&#xfb;" 
d="M965 1466l170 -282h-136l-120 207l-215 -207h-136l297 282h140zM479 -20q-315 0 -235 358l159 727h123l-157 -715q-31 -139 3 -206t152 -66q62 0 96 15t55 23q20 8 70 42q51 34 68 49q16 14 50 39t46 35l174 784h123l-235 -1065h-123l37 168q-117 -98 -207 -143t-199 -45
z" />
    <glyph glyph-name="udieresis" unicode="&#xfc;" 
d="M971 1397h135l-43 -193h-135zM651 1397h135l-43 -193h-135zM479 -20q-315 0 -235 358l159 727h123l-157 -715q-31 -139 3 -206t152 -66q62 0 96 15t55 23q20 8 70 42q51 34 68 49q16 14 50 39t46 35l174 784h123l-235 -1065h-123l37 168q-117 -98 -207 -143t-199 -45z
" />
    <glyph glyph-name="yacute" unicode="&#xfd;" horiz-adv-x="909" 
d="M879 1466h157l-344 -282h-104zM63 -377q-72 0 -110 12l20 101l121 -15q160 0 305 295l-139 1049h135l103 -866h4l487 866h131l-649 -1141q-94 -164 -181 -232t-227 -69z" />
    <glyph glyph-name="thorn" unicode="&#xfe;" 
d="M850 987q-63 0 -129 -30t-109 -62t-125 -102l-116 -525q20 -61 97 -126t161 -64q165 0 275 123t155 325t-7 332q-52 129 -202 129zM879 1085q197 1 275 -163t24 -415q-56 -251 -200 -389t-337 -138q-104 0 -171 36t-128 123l-115 -516h-123l412 1856h123l-127 -578h4
q166 184 363 184z" />
    <glyph glyph-name="ydieresis" unicode="&#xff;" horiz-adv-x="909" 
d="M856 1397h135l-43 -193h-135zM537 1397h135l-43 -193h-135zM63 -377q-72 0 -110 12l20 101l121 -15q160 0 305 295l-139 1049h135l103 -866h4l487 866h131l-649 -1141q-94 -164 -181 -232t-227 -69z" />
    <glyph glyph-name="dotlessi" unicode="&#x131;" horiz-adv-x="454" 
d="M524 1065l-235 -1065h-123l235 1065h123z" />
    <glyph glyph-name="Lslash" unicode="&#x141;" horiz-adv-x="1024" 
d="M879 858l-379 -139l-135 -608h659l-25 -111h-794l147 664l-188 -70l29 127l188 70l151 688h136l-140 -633l379 139z" />
    <glyph glyph-name="lslash" unicode="&#x142;" horiz-adv-x="454" 
d="M455 748l-166 -748h-123l151 684l-182 -86l29 131l182 86l148 664h122l-133 -600l183 84l-29 -132z" />
    <glyph glyph-name="OE" unicode="&#x152;" horiz-adv-x="2048" 
d="M821 90q293 0 338 205l197 889q24 100 -38 152t-208 53q-281 -1 -463 -175t-252 -484q-71 -310 31 -475t395 -165zM1139 0q-93 0 -233 -10t-152 -10q-340 0 -456 202t-39 544q77 341 297 557t534 216q86 0 194 -10q170 -10 174 -10h797l-25 -111h-698l-121 -545h500
l-25 -110h-500l-133 -602h738l-25 -111h-827z" />
    <glyph glyph-name="oe" unicode="&#x153;" horiz-adv-x="1705" 
d="M1425 987q-139 0 -229 -98t-135 -262h575q41 360 -211 360zM1234 78q106 0 181 45q76 45 182 170l89 -53q-118 -144 -224 -202t-256 -58q-248 0 -307 233q-154 -233 -399 -233q-154 0 -238 78t-91 202q-7 123 22 272q53 242 189 398t361 155q131 0 206 -63t95 -168
q62 96 164 164t240 67q206 -1 276 -151t13 -406h-699q-24 -125 -22 -224q2 -98 57 -162t161 -64zM723 987q-308 0 -409 -455t206 -454q147 0 248 118q100 118 150 336t1 336q-48 119 -196 119z" />
    <glyph glyph-name="Scaron" unicode="&#x160;" 
d="M842 1542l-170 283h135l121 -207l215 207h135l-297 -283h-139zM852 1499q188 0 292 -92t116 -262l-125 -35q-12 129 -86 204t-207 75q-132 0 -228 -72t-125 -201q-18 -86 24 -144t216 -130q279 -115 355 -211t39 -269q-38 -173 -192 -278q-155 -104 -355 -104t-305 96
t-121 299l133 39q9 -324 331 -324q156 0 252 80t124 202t-40 192t-176 111q-108 40 -216 85t-171 133q-63 89 -29 241t170 258t324 107z" />
    <glyph glyph-name="scaron" unicode="&#x161;" horiz-adv-x="909" 
d="M647 1184l-170 282h135l121 -206l215 206h135l-297 -282h-139zM484 78q105 0 187 58q81 58 98 138q31 145 -120 193q-172 52 -280 95q-63 26 -98 85q-34 59 -13 148q33 143 144 217q112 74 257 73q248 0 326 -192l-108 -66q-41 80 -97 120t-147 40q-92 0 -161 -47
t-87 -129t37 -123q55 -40 142 -64t172 -55t133 -103q47 -72 21 -196q-26 -126 -153 -208t-278 -82q-269 0 -365 215l105 63q49 -104 115 -142t170 -38z" />
    <glyph glyph-name="Ydieresis" unicode="&#x178;" 
d="M1051 1755h135l-43 -192h-135zM731 1755h135l-43 -192h-135zM494 0l139 627l-264 852h151l203 -731l551 731h151l-657 -852l-139 -627h-135z" />
    <glyph glyph-name="Zcaron" unicode="&#x17d;" 
d="M842 1542l-170 283h135l121 -207l215 207h135l-297 -283h-139zM461 1368l24 111h877l-25 -115l-1050 -1253h782l-25 -111h-950l25 111l1050 1257h-708z" />
    <glyph glyph-name="zcaron" unicode="&#x17e;" horiz-adv-x="909" 
d="M647 1184l-170 282h135l121 -206l215 206h135l-297 -282h-139zM315 967l21 98h729l-16 -78l-811 -889h630l-22 -98h-795l17 78l813 889h-566z" />
    <glyph glyph-name="florin" unicode="&#x192;" 
d="M1234 1401q-44 0 -95 -25q-51 -24 -84 -58t-66 -95t-75 -174t-58 -158h260l-20 -98h-271l-301 -816q-57 -156 -167 -255t-261 -99q-41 0 -78 6l39 111q47 -18 68 -19q111 -1 179 87t138 272l263 713h-275l21 98h284q99 292 167 389q36 52 86 108q99 112 245 111
q74 0 119 -12l-39 -92q-35 6 -79 6z" />
    <glyph glyph-name="circumflex" unicode="&#x2c6;" horiz-adv-x="454" 
d="M623 1466l170 -282h-136l-120 207l-215 -207h-136l297 282h140z" />
    <glyph glyph-name="caron" unicode="&#x2c7;" horiz-adv-x="454" 
d="M420 1184l-170 282h135l121 -206l215 206h135l-297 -282h-139z" />
    <glyph glyph-name="uni02C9" unicode="&#x2c9;" horiz-adv-x="454" 
d="M205 1264l20 90h606l-20 -90h-606z" />
    <glyph glyph-name="breve" unicode="&#x2d8;" horiz-adv-x="454" 
d="M492 1192q-129 0 -193 70q-63 70 -45 190h78q-4 -166 180 -166t254 166h78q-35 -120 -129 -190t-223 -70z" />
    <glyph glyph-name="dotaccent" unicode="&#x2d9;" horiz-adv-x="454" 
d="M469 1397h135l-43 -193h-135z" />
    <glyph glyph-name="ring" unicode="&#x2da;" horiz-adv-x="454" 
d="M563 1516q-55 0 -103 -39t-62 -97t19 -96q32 -39 87 -39t103 39q47 39 61 95q14 57 -18 97t-87 40zM580 1585q84 0 131 -59q47 -60 27 -146t-93 -145q-74 -59 -158 -59t-131 59t-28 145q20 86 94 146t158 59z" />
    <glyph glyph-name="ogonek" unicode="&#x2db;" horiz-adv-x="454" 
d="M176 -340q49 0 227 86l15 -61q-190 -106 -316 -107q-84 0 -129 40t-26 124q30 124 169 191q129 65 333 106l-5 -19q-254 -92 -318 -168q-36 -42 -46 -86t18 -76q28 -30 78 -30z" />
    <glyph glyph-name="tilde" unicode="&#x2dc;" horiz-adv-x="454" 
d="M671 1315q37 0 67 30t46 70h78q-78 -199 -225 -198q-43 0 -137 46t-129 46q-82 -1 -119 -103h-78q23 76 86 137q64 61 128 61t154 -44q90 -45 129 -45z" />
    <glyph glyph-name="hungarumlaut" unicode="&#x2dd;" horiz-adv-x="454" 
d="M784 1466h158l-344 -282h-104zM500 1466h157l-311 -282h-100z" />
    <glyph glyph-name="uni03A9" unicode="&#x3a9;" horiz-adv-x="1482" 
d="M1079 1487q262 0 384 -203t57 -496q-49 -219 -173 -398t-268 -284l-2 -6h320l-23 -100h-477l16 74q158 96 294 278t188 416q27 104 15 214q-11 110 -45 199t-116 146t-196 57q-219 0 -393 -178t-232 -442q-49 -220 6 -410t168 -280l-16 -74h-477l22 100h315l3 6
q-216 239 -140 674q72 313 290 510t480 197z" />
    <glyph glyph-name="uni03BC" unicode="&#x3bc;" 
d="M473 -20q-115 0 -176 49l-90 -406h-123l319 1442h123l-157 -715q-31 -139 3 -206t152 -66q62 0 96 15t55 23q20 8 70 42q51 34 68 49q16 14 50 39t46 35l174 784h123l-235 -1065h-123l37 168q-117 -98 -207 -143t-205 -45z" />
    <glyph glyph-name="pi" unicode="&#x3c0;" horiz-adv-x="1150" 
d="M545 1085h801l-35 -104h-172l-150 -674q-45 -207 -37 -307h-116q-20 61 32 293l152 688h-402q-63 -236 -176 -540t-196 -441h-119q92 158 201 449t172 532q-168 0 -244 -27l-4 80q102 51 293 51z" />
    <glyph glyph-name="uni2010" unicode="&#x2010;" horiz-adv-x="681" 
d="M702 477h-509l24 111h510z" />
    <glyph glyph-name="endash" unicode="&#x2013;" horiz-adv-x="1024" 
d="M1133 487h-1024l20 91h1024z" />
    <glyph glyph-name="emdash" unicode="&#x2014;" horiz-adv-x="2048" 
d="M2177 578l-20 -91h-2048l20 91h2048z" />
    <glyph glyph-name="quoteleft" unicode="&#x2018;" horiz-adv-x="454" 
d="M522 1008h-176l41 184l197 307h80l-187 -307h86z" />
    <glyph glyph-name="quoteright" unicode="&#x2019;" horiz-adv-x="454" 
d="M483 1479h176l-41 -185l-196 -307h-80l186 307h-86z" />
    <glyph glyph-name="quotesinglbase" unicode="&#x201a;" horiz-adv-x="454" 
d="M197 184h176l-41 -184l-197 -307h-80l187 307h-86z" />
    <glyph glyph-name="quotedblleft" unicode="&#x201c;" horiz-adv-x="909" 
d="M940 1008h-176l41 184l196 307h80l-186 -307h86zM598 1008h-176l41 184l196 307h80l-186 -307h86z" />
    <glyph glyph-name="quotedblright" unicode="&#x201d;" horiz-adv-x="909" 
d="M520 1479h176l-41 -185l-196 -307h-80l186 307h-86zM862 1479h176l-41 -185l-196 -307h-80l186 307h-86z" />
    <glyph glyph-name="quotedblbase" unicode="&#x201e;" horiz-adv-x="909" 
d="M233 184h177l-41 -184l-197 -307h-80l187 307h-86zM575 184h177l-41 -184l-197 -307h-80l187 307h-86z" />
    <glyph glyph-name="dagger" unicode="&#x2020;" horiz-adv-x="1024" 
d="M504 -164h-58l144 828l117 362l-320 -37l29 127l303 -35l63 418h123l-121 -418l320 35l-29 -127l-303 37l-43 -362z" />
    <glyph glyph-name="daggerdbl" unicode="&#x2021;" horiz-adv-x="1024" 
d="M1104 1116l-29 -127l-303 37l-43 -358l-117 -359l320 37l-27 -127l-305 35l-63 -418h-123l121 418l-318 -35l27 127l303 -37l43 359l117 358l-320 -37l29 127l303 -35l63 418h123l-121 -418z" />
    <glyph glyph-name="bullet" unicode="&#x2022;" horiz-adv-x="1024" 
d="M756 1108q154 0 238 -108t50 -262t-166 -262t-286 -108t-238 109q-84 108 -49 262q33 153 165 261t286 108z" />
    <glyph glyph-name="ellipsis" unicode="&#x2026;" horiz-adv-x="2048" 
d="M1794 0h-176l41 184h176zM1112 0h-176l41 184h176zM430 0h-176l41 184h176z" />
    <glyph glyph-name="perthousand" unicode="&#x2030;" horiz-adv-x="2048" 
d="M1446 1499l-1172 -1519h-106l1171 1519h107zM643 1389q-88 0 -167 -65q-79 -64 -97 -150t32 -151t138 -65t167 65t97 151t-32 150t-138 65zM664 1479q128 0 198 -90t41 -215t-138 -216q-110 -90 -237 -90q-128 0 -198 90t-41 216t138 215q110 90 237 90zM1071 518
q-88 0 -167 -64t-98 -151t32 -151t139 -64t166 65t97 151t-31 150t-138 64zM1092 608q128 0 198 -90t41 -215t-139 -215t-236 -90q-128 0 -198 90t-41 215t138 215q110 90 237 90zM1827 518q-88 0 -167 -64t-98 -151q-18 -87 32 -151t138 -64t166 65t98 151t-31 150
q-50 64 -138 64zM1847 608q127 0 198 -90t42 -215t-139 -215t-236 -90q-127 0 -198 90t-41 215q29 125 138 215t236 90z" />
    <glyph glyph-name="guilsinglleft" unicode="&#x2039;" horiz-adv-x="681" 
d="M702 848l-323 -311l182 -320h-135l-176 320l317 311h135z" />
    <glyph glyph-name="guilsinglright" unicode="&#x203a;" horiz-adv-x="681" 
d="M215 217l324 311l-183 320h136l176 -320l-318 -311h-135z" />
    <glyph glyph-name="fraction" unicode="&#x2044;" horiz-adv-x="342" 
d="M-346 -20l1245 1519h117l-1241 -1519h-121z" />
    <glyph glyph-name="Euro" unicode="&#x20ac;" 
d="M975 1389q-170 -1 -297 -147t-178 -341h667l-55 -98h-639q-12 -35 -27 -115q-14 -80 -16 -86h567l-53 -98h-522q-16 -174 52 -294t222 -120q225 0 414 221l-35 -157q-174 -174 -405 -174q-150 0 -243 78q-168 142 -140 446h-142l54 98h96q2 14 18 94t25 107h-127l57 98
h99q78 262 245 430q168 168 392 168q131 0 228 -59t138 -174l-82 -150q-29 115 -111 194q-83 79 -202 79z" />
    <glyph glyph-name="afii61289" unicode="&#x2113;" horiz-adv-x="976" 
d="M862 1526q-74 0 -150 -94t-120 -291l-111 -506q203 180 327 338t159 313q55 240 -105 240zM555 -10q-164 0 -219 114t-21 289l7 29q-61 -43 -144 -103l-26 76q145 102 194 144l131 589q59 262 172 377t234 115t164 -92t10 -236q-78 -354 -604 -782l-15 -66
q-39 -182 9 -270q47 -88 145 -88t186 62t150 143l53 -49q-188 -252 -426 -252z" />
    <glyph glyph-name="trademark" unicode="&#x2122;" horiz-adv-x="2027" 
d="M1419 1479l123 -672l414 672h174l-186 -844h-103l166 754h-4l-471 -754h-62l-139 754h-4l-166 -754h-102l186 844h174zM1094 1479l-21 -90h-272l-166 -754h-103l166 754h-280l20 90h656z" />
    <glyph glyph-name="Omega" unicode="&#x2126;" horiz-adv-x="1482" 
d="M1079 1487q262 0 384 -203t57 -496q-49 -219 -173 -398t-268 -284l-2 -6h320l-23 -100h-477l16 74q158 96 294 278t188 416q27 104 15 214q-11 110 -45 199t-116 146t-196 57q-219 0 -393 -178t-232 -442q-49 -220 6 -410t168 -280l-16 -74h-477l22 100h315l3 6
q-216 239 -140 674q72 313 290 510t480 197z" />
    <glyph glyph-name="estimated" unicode="&#x212e;" horiz-adv-x="2162" 
d="M1782 772v416q0 29 -21 49q-221 217 -515 217t-513 -223q-20 -25 -20 -51v-408q0 -14 12 -14h1047q10 0 10 14zM2091 719h-1366q-12 0 -12 -10v-414q0 -20 18 -47q219 -225 518 -225q158 -1 299 67t244 184h121q-115 -135 -291 -214t-377 -78q-348 0 -595 221t-247 535
t247 538t597 223q350 0 597 -222t247 -540v-18z" />
    <glyph glyph-name="partialdiff" unicode="&#x2202;" horiz-adv-x="1103" 
d="M506 90h2q150 0 287 163t213 402q-10 90 -81 167t-196 77t-251 -125t-164 -299q-38 -173 14 -279t176 -106zM868 1645q200 0 301 -203t17 -587t-272 -626t-441 -241q-184 0 -254 141t-24 338q51 236 214 384t339 148q130 -1 206 -69t99 -139h2q20 88 22 98
q66 291 -11 472t-239 181t-299 -100l-26 88q166 115 366 115z" />
    <glyph glyph-name="uni2206" unicode="&#x2206;" horiz-adv-x="1325" 
d="M211 100h938l-131 865q-4 49 -28 193t-25 198h-11q-27 -59 -107 -191q-79 -131 -99 -168zM68 0l20 90l842 1415h135l211 -1413l-21 -92h-1187z" />
    <glyph glyph-name="product" unicode="&#x220f;" horiz-adv-x="1742" 
d="M1690 1354h-230v-1557h-119v1557h-614v-1557h-119v1557h-229v110h1311v-110z" />
    <glyph glyph-name="summation" unicode="&#x2211;" horiz-adv-x="1458" 
d="M1411 -203h-1040v84l571 746l-545 751v86h981v-106h-809v-8l512 -707l-551 -723v-6h881v-117z" />
    <glyph glyph-name="minus" unicode="&#x2212;" horiz-adv-x="1228" 
d="M1253 477h-1065l25 111h1065z" />
    <glyph glyph-name="uni2215" unicode="&#x2215;" horiz-adv-x="342" 
d="M-346 -20l1245 1519h117l-1241 -1519h-121z" />
    <glyph glyph-name="uni2219" unicode="&#x2219;" horiz-adv-x="569" 
d="M426 635q40 0 64 -30t15 -73q-9 -42 -46 -72t-78 -30t-66 30t-15 72t47 73q38 30 79 30z" />
    <glyph glyph-name="radical" unicode="&#x221a;" horiz-adv-x="1492" 
d="M1489 1735l-455 -2054h-112l-336 989l-154 -56l-29 78l261 99l276 -811q27 -106 35 -146h2q2 16 12 66l15 75l393 1760h92z" />
    <glyph glyph-name="infinity" unicode="&#x221e;" horiz-adv-x="1804" 
d="M1397 842h-2q-49 0 -105 -30t-86 -58q-31 -28 -82 -82q-51 -55 -61 -64q86 -92 129 -133q111 -106 208 -105q97 2 155 72q59 70 59 172t-60 164q-60 64 -155 64zM627 371h2q96 0 186 82q48 42 92 91q45 48 54 56q-115 135 -168 174q-87 68 -183 68t-153 -72t-57 -169
t64 -163q63 -66 163 -67zM1702 610v-2q0 -141 -92 -230t-202 -89t-194 58t-206 192q-72 -80 -116 -123t-121 -85t-157 -42q-125 0 -214 91t-89 225t90 224q90 91 211 91t210 -66t194 -186q127 141 186 182q98 72 218 71t201 -87t81 -224z" />
    <glyph glyph-name="integral" unicode="&#x222b;" horiz-adv-x="1044" 
d="M902 1690q-166 0 -167 -430q-1 -162 13 -534t14 -538q0 -291 -94 -424q-63 -94 -185 -94q-72 0 -127 35l25 90q47 -27 94 -26q172 0 172 421l-26 1080q0 322 106 434q72 78 178 78q62 0 109 -29l-25 -86q-31 23 -87 23z" />
    <glyph glyph-name="approxequal" unicode="&#x2248;" horiz-adv-x="1363" 
d="M562 467q-69 0 -116 -42t-94 -116l-57 45q100 193 278 193q66 -1 108 -19t85 -43l43 -24q6 -1 33 -17t34 -19t44 -19t94 -17q57 0 102 37t92 117l56 -45q-96 -190 -260 -191q-77 -1 -128 25t-148 80t-166 55zM1001 647q-57 -1 -105 19t-156 80t-178 61q-69 0 -115 -40
t-95 -116l-57 43q100 195 280 195q65 -1 108 -21q44 -20 82 -42t44 -26t34 -18t35 -18q61 -35 127 -35t112 38t91 118l56 -45q-98 -193 -263 -193z" />
    <glyph glyph-name="notequal" unicode="&#x2260;" horiz-adv-x="1404" 
d="M1296 834v-84h-370l-144 -310h514v-84h-548l-115 -245l-68 32l99 213h-318v84h354l144 310h-498v84h533l110 241l70 -31l-98 -210h335z" />
    <glyph glyph-name="lessequal" unicode="&#x2264;" horiz-adv-x="1439" 
d="M1331 29h-952v88h952v-88zM1325 203l-934 469v88l934 469v-105l-838 -403v-6l838 -408v-104z" />
    <glyph glyph-name="greaterequal" unicode="&#x2265;" horiz-adv-x="1439" 
d="M1329 29h-948v88h948v-88zM393 1229l934 -469v-88l-934 -469v104l838 406v4l-838 407v105z" />
    <glyph glyph-name="lozenge" unicode="&#x25ca;" horiz-adv-x="1497" 
d="M1268 727l-314 614q-25 55 -39 107h-4q-23 -68 -41 -107l-309 -606l313 -618q31 -59 37 -103h9q14 57 36 103zM1380 731l-417 -821h-101l-413 821l417 823h99z" />
    <glyph glyph-name="fi" unicode="&#xfb01;" horiz-adv-x="1024" 
d="M1147 1298h-123l39 181h123zM1094 1065l-236 -1065h-123l236 1065h123zM784 1499q41 0 131 -16l-24 -103q-57 20 -115 21q-145 0 -184 -170l-37 -166h217l-20 -98h-217l-216 -967h-122l215 967h-176l20 98h176l35 152q31 141 107 211t210 71z" />
    <glyph glyph-name="fl" unicode="&#xfb02;" horiz-adv-x="1024" 
d="M735 0l328 1479h123l-328 -1479h-123zM784 1499q41 0 131 -16l-24 -103q-57 20 -115 21q-145 0 -184 -170l-37 -166h217l-20 -98h-217l-216 -967h-122l215 967h-176l20 98h176l35 152q31 141 107 211t210 71z" />
    <glyph glyph-name="a.superior" horiz-adv-x="614" 
d="M668 1016l39 172q-19 -6 -71 -18q-192 -42 -249 -99q-29 -29 -37 -65t15 -60q49 -54 193 2q67 27 110 68zM653 1499q117 0 160 -46t21 -150l-72 -320q-12 -68 -17 -131h-90l9 78q-127 -90 -261 -90q-84 0 -128 45q-45 45 -29 113t54 114q76 90 328 142q73 15 97 22l12 51
q17 92 -112 90q-117 0 -211 -100l-58 41q119 141 297 141z" />
    <glyph glyph-name="o.superior" horiz-adv-x="614" 
d="M638 1499q151 0 198 -92q47 -91 15 -237t-120 -238q-89 -92 -239 -92t-197 92t-14 237q31 145 118 238q88 92 239 92zM514 934q94 0 145 57t79 174q57 238 -120 240q-94 -1 -145 -59t-79 -176t-1 -177t121 -59z" />
    <glyph glyph-name="one.superior" horiz-adv-x="681" 
d="M696 598h-413l18 90h150l157 709l-176 -41l17 76l204 67h84l-180 -811h158z" />
    <glyph glyph-name="two.superior" horiz-adv-x="681" 
d="M684 1409q-186 0 -270 -178l-90 14q49 119 148 187t226 68q128 0 188 -72q60 -71 32 -195q-19 -95 -97 -159q-77 -65 -157 -112q-80 -48 -198 -124t-144 -104t-31 -46h504l-19 -90h-610l14 68q14 61 76 122t242 170q176 100 238 158t78 130q16 71 -19 117t-111 46z" />
    <glyph glyph-name="three.superior" horiz-adv-x="681" 
d="M487 676q100 0 167 45t86 131t-38 129t-182 43h-88l21 90h71q242 0 279 160q14 61 -28 98t-120 37t-128 -19t-113 -83l-62 47q135 145 318 145q116 0 190 -56q74 -55 54 -149t-59 -141q-38 -47 -126 -80q154 -57 117 -225q-29 -133 -133 -198t-256 -64q-240 0 -285 176
l96 49q25 -79 72 -107t147 -28z" />
    </font>
</defs>
</svg>
